# WaveFront *.obj file (generated by Cinema 4D)

v 26.250000 76.373813 15.799992
v -26.250000 76.373813 15.799992
v 4.375000 -0.625000 -15.625000
v 26.875000 -0.625000 -15.625000
v 26.875000 -0.625000 15.625000
v 4.375000 -0.625000 15.625000
v 4.375000 38.750000 -15.625000
v 26.875000 38.750000 -15.625000
v 26.875000 38.750000 15.625000
v 4.375000 38.750000 15.625000
v -1.562500 36.875000 -14.375000
v -27.812500 36.875000 -14.375000
v -27.812500 36.875000 14.375000
v -1.562500 36.875000 14.375000
v 1.562500 36.875000 -14.375000
v 27.812500 36.875000 -14.375000
v 27.812500 36.875000 14.375000
v 1.562500 36.875000 14.375000
v -12.354395 67.466041 16.271625
v -1.747794 56.859439 16.271625
v -22.075633 57.744804 16.031655
v -11.469031 47.138202 16.031655
v 20.502206 56.859439 16.271625
v 9.895605 67.466041 16.271625
v 10.780969 47.138202 16.031655
v 0.174367 57.744804 16.031655
v 26.250000 76.250000 13.750000
v -26.250000 76.250000 13.750000
v -26.250000 76.250000 -13.750000
v 26.250000 76.250000 -13.750000
v 26.250000 -0.418873 13.750000
v -26.250000 -0.418873 13.750000
v -26.250000 -0.418873 -13.750000
v 26.250000 -0.418873 -13.750000
v 26.250000 76.640807 -19.640798
v -26.250000 76.640807 -19.640798
v -26.250000 76.182867 -10.902789
v 26.250000 76.182867 -10.902789
v 26.250000 44.185347 -21.341716
v -26.250000 44.185347 -21.341716
v -26.250000 43.727407 -12.603708
v 26.250000 43.727407 -12.603708
v 26.250000 56.483375 17.890561
v -26.250000 56.483375 17.890561
v -26.250000 55.568751 9.188494
v 26.250000 55.568751 9.188494
v -26.250000 75.459189 7.097925
v 26.250000 75.459189 7.097925
v 23.125000 18.721605 -11.839745
v -23.125000 18.721605 -11.839745
v -23.125000 19.026976 -20.584415
v 23.125000 19.026976 -20.584415
v 23.125000 44.955614 -10.923633
v -23.125000 44.955614 -10.923633
v -23.125000 45.260985 -19.668303
v 23.125000 45.260985 -19.668303
v -20.000000 -0.032202 -11.621623
v 20.000000 -0.032202 -11.621623
v 20.000000 0.273168 -20.366293
v -20.000000 0.273168 -20.366293
v -20.000000 19.955614 -10.923633
v 20.000000 19.955614 -10.923633
v 20.000000 20.260985 -19.668303
v -20.000000 20.260985 -19.668303
v -1.562500 76.118592 -14.375000
v -27.812500 76.118592 -14.375000
v -27.812500 76.118592 14.375000
v -1.562500 76.118592 14.375000
v 15.125000 58.950638 8.147958
v -15.125000 58.950638 8.147958
v -15.125000 58.782659 16.896625
v 15.125000 58.782659 16.896625
v 15.125000 30.080036 7.689832
v -15.125000 30.080036 7.689832
v -15.125000 29.912057 16.438499
v 15.125000 29.912057 16.438499
v -26.875000 38.750000 -15.625000
v -4.375000 38.750000 -15.625000
v -4.375000 38.750000 15.625000
v -26.875000 38.750000 15.625000
v -26.875000 -0.625000 -15.625000
v -4.375000 -0.625000 -15.625000
v -4.375000 -0.625000 15.625000
v -26.875000 -0.625000 15.625000
v 1.562500 76.118592 -14.375000
v 27.812500 76.118592 -14.375000
v 27.812500 76.118592 14.375000
v 1.562500 76.118592 14.375000
v -11.361050 47.246183 7.282987
v -21.967651 57.852785 7.282987
v 11.125696 55.529591 21.163504
v -11.833062 54.772115 21.163504
v -11.838505 54.937104 11.706195
v 11.120252 55.694579 11.706195
v 11.838505 33.924639 20.786183
v -11.120252 33.167164 20.786183
v -11.125696 33.332152 11.328874
v 11.833062 34.089628 11.328874
v 20.610188 56.967421 7.522958
v 10.888950 47.246183 7.282987
# 100 vertices

vn -1.000000 0.000000 0.000000
vn 1.000000 0.000000 0.000000
vn 0.000000 0.998625 0.052313
vn 0.000000 -0.998625 -0.052313
vn -0.012312 -0.012312 0.999844
vn 0.000000 0.052313 -0.998625
vn 0.000000 0.994500 -0.104500
vn 0.000000 -0.994500 0.104500
vn 0.000000 0.104500 0.994500
vn 0.000000 1.000000 0.000000
vn 0.000000 -0.999375 -0.034875
vn 0.000000 -1.000000 0.000000
vn 0.000000 0.034875 -0.999375
vn -0.032969 0.999281 0.017438
vn 0.032969 -0.999281 -0.017438
vn 0.000562 -0.017438 0.999844
vn -0.706969 -0.706969 -0.017438
vn -0.999438 -0.032969 0.000000
vn 0.999438 0.032969 0.000000
vn 0.000000 0.000000 1.000000
vn 0.000000 0.000000 -1.000000
vn 0.000000 -0.999812 -0.019188
vn 0.000000 -0.015844 0.999844
vn 0.707094 -0.707094 0.000000
# 24 normals

vt 0.078947 -0.312500 0.000000
vt 0.105263 -0.312500 0.000000
vt 0.105263 -0.437500 0.000000
vt 0.078947 -0.437500 0.000000
vt 0.026316 -0.437500 0.000000
vt 0.000000 -0.437500 0.000000
vt 0.000000 -0.312500 0.000000
vt 0.026316 -0.312500 0.000000
vt 0.473684 -0.093750 0.000000
vt 0.684211 -0.093750 0.000000
vt 0.684211 -0.125000 0.000000
vt 0.473684 -0.125000 0.000000
vt 0.473684 -0.218750 0.000000
vt 0.684211 -0.218750 0.000000
vt 0.684211 -0.250000 0.000000
vt 0.473684 -0.250000 0.000000
vt 0.026316 -0.156250 0.000000
vt 0.078947 -0.156250 0.000000
vt 0.078947 -0.218750 0.000000
vt 0.026316 -0.218750 0.000000
vt 0.500000 -0.093750 0.000000
vt 0.500000 -0.250000 0.000000
vt 0.657895 -0.093750 0.000000
vt 0.657895 -0.250000 0.000000
vt 0.473684 0.000000 0.000000
vt 0.684211 0.000000 0.000000
vt 0.684211 -0.031250 0.000000
vt 0.473684 -0.031250 0.000000
vt 0.684211 -0.062500 0.000000
vt 0.473684 -0.062500 0.000000
vt 0.000000 -0.125000 0.000000
vt 0.105263 -0.125000 0.000000
vt 0.105263 -0.250000 0.000000
vt 0.000000 -0.250000 0.000000
vt 0.657895 0.000000 0.000000
vt 0.500000 0.000000 0.000000
vt 0.315789 -0.187500 0.000000
vt 0.421053 -0.187500 0.000000
vt 0.421053 -0.562500 0.000000
vt 0.315789 -0.562500 0.000000
vt 0.421053 -0.343750 0.000000
vt 0.605263 -0.343750 0.000000
vt 0.605263 -0.375000 0.000000
vt 0.421053 -0.375000 0.000000
vt 0.421053 -0.250000 0.000000
vt 0.605263 -0.250000 0.000000
vt 0.447368 -0.250000 0.000000
vt 0.447368 -0.375000 0.000000
vt 0.578947 -0.250000 0.000000
vt 0.578947 -0.375000 0.000000
vt 0.000000 -0.406250 0.000000
vt 0.078947 -0.500000 0.000000
vt 0.000000 -0.500000 0.000000
vt 0.000000 -0.531250 0.000000
vt 0.078947 -0.531250 0.000000
vt 0.078947 -0.187500 0.000000
vt 0.026316 -0.187500 0.000000
vt 0.026316 -0.531250 0.000000
vt 0.052632 -0.437500 0.000000
vt 0.052632 -0.531250 0.000000
vt 0.131579 0.000000 0.000000
vt 0.210526 0.000000 0.000000
vt 0.210526 -0.125000 0.000000
vt 0.131579 -0.125000 0.000000
vt 0.421053 -0.437500 0.000000
vt 0.578947 -0.437500 0.000000
vt 0.578947 -0.468750 0.000000
vt 0.421053 -0.468750 0.000000
vt 0.210526 -0.312500 0.000000
vt 0.342105 0.000000 0.000000
vt 0.263158 0.000000 0.000000
vt 0.263158 -0.187500 0.000000
vt 0.342105 -0.187500 0.000000
vt 0.315789 0.000000 0.000000
vt 0.210526 -0.187500 0.000000
vt 0.210526 -0.562500 0.000000
vt 0.105263 -0.406250 0.000000
vt 0.394737 0.000000 0.000000
vt 0.289474 0.000000 0.000000
vt 0.289474 -0.187500 0.000000
vt 0.394737 -0.187500 0.000000
vt 0.447368 -0.468750 0.000000
vt 0.552632 -0.375000 0.000000
vt 0.552631 -0.468750 0.000000
vt 0.210526 -0.500000 0.000000
vt 0.105263 -0.500000 0.000000
vt 0.421053 -0.312500 0.000000
vt 0.473684 -0.187500 0.000000
vt 0.210526 -0.218750 0.000000
vt 0.421053 -0.218750 0.000000
vt 0.210526 -0.343750 0.000000
# 91 texture coordinates

o Body
f 74/1/1 75/2/1 71/3/1 70/4/1
f 76/5/2 73/6/2 69/7/2 72/8/2
f 35/9/3 36/10/3 37/11/3 38/12/3
f 42/13/4 41/14/4 40/15/4 39/16/4
f 21/17/5 22/18/5 20/19/5 19/20/5
f 39/9/6 40/10/6 36/15/6 35/16/6
f 40/9/1 41/21/1 37/22/1 36/16/1
f 42/23/2 39/10/2 35/15/2 38/24/2
f 48/25/7 47/26/7 2/27/7 1/28/7
f 43/28/8 44/27/8 45/29/8 46/30/8
f 44/25/9 43/26/9 1/10/9 2/9/9
f 86/31/10 85/32/10 88/33/10 87/34/10
f 45/35/1 44/26/1 2/10/1 47/23/1
f 43/25/2 46/36/2 48/21/2 1/9/2
f 31/37/2 34/38/2 30/39/2 27/40/2
f 49/41/11 50/42/11 51/43/11 52/44/11
f 17/31/12 18/32/12 15/33/12 16/34/12
f 52/45/13 51/46/13 55/43/13 56/44/13
f 51/45/1 50/47/1 54/48/1 55/44/1
f 49/49/2 52/46/2 56/43/2 53/50/2
f 94/51/14 93/51/14 92/6/14 91/6/14
f 95/52/15 96/53/15 97/54/15 98/55/15
f 96/6/16 95/4/16 91/55/16 92/54/16
f 22/17/17 21/18/17 90/56/17 89/57/17
f 97/6/18 96/5/18 92/58/18 93/54/18
f 95/59/19 98/4/19 94/55/19 91/60/19
f 8/61/10 7/62/10 10/63/10 9/64/10
f 58/65/11 57/66/11 60/67/11 59/68/11
f 18/2/20 17/69/20 87/63/20 88/32/20
f 59/44/13 60/50/13 64/67/13 63/68/13
f 82/70/21 81/71/21 77/72/21 78/73/21
f 81/62/1 84/74/1 80/37/1 77/75/1
f 83/63/12 84/64/12 81/61/12 82/62/12
f 32/75/20 31/38/20 27/39/20 28/76/20
f 76/51/22 75/77/22 74/3/22 73/6/22
f 83/78/2 82/79/2 78/80/2 79/81/2
f 60/44/1 57/48/1 61/82/1 64/68/1
f 58/83/2 59/50/2 63/67/2 62/84/2
f 16/85/21 15/86/21 85/2/21 86/69/21
f 17/32/2 16/31/2 86/7/2 87/2/2
f 26/17/5 25/18/5 23/19/5 24/20/5
f 75/7/23 76/2/23 72/3/23 71/6/23
f 30/75/10 29/38/10 28/87/10 27/69/10
f 25/17/24 100/18/24 99/56/24 23/57/24
f 33/75/1 32/37/1 28/40/1 29/76/1
f 84/74/20 83/78/20 79/81/20 80/37/20
f 5/61/12 6/62/12 3/63/12 4/64/12
f 6/78/20 5/25/20 9/88/20 10/81/20
f 4/79/21 3/62/21 7/75/21 8/80/21
f 3/79/1 6/78/1 10/81/1 7/80/1
f 5/74/2 4/62/2 8/75/2 9/37/2
f 78/61/10 77/62/10 80/63/10 79/64/10
f 65/31/10 66/32/10 67/33/10 68/34/10
f 14/31/12 13/32/12 12/33/12 11/34/12
f 13/69/20 14/2/20 68/32/20 67/63/20
f 11/85/21 12/86/21 66/2/21 65/69/21
f 12/31/1 13/32/1 67/2/1 66/7/1
f 31/89/12 32/90/12 33/41/12 34/91/12

v -6.676689 -4.307614 16.126349
v 6.440149 -4.770395 16.126349
v 6.440149 -4.770395 20.813849
v -6.676689 -4.307614 20.813849
v -6.213908 8.809225 16.126349
v 6.902930 8.346444 16.126349
v 6.902930 8.346444 20.813849
v -6.213908 8.809225 20.813849
v 9.272153 -3.501650 13.945467
v 19.037506 -2.261778 13.945467
v 19.037506 -2.261778 18.632967
v 9.272153 -3.501650 18.632967
v 8.032281 6.263704 13.945467
v 17.797635 7.503575 13.945467
v 17.797635 7.503575 18.632967
v 8.032281 6.263704 18.632967
v -9.272153 -3.501650 13.945467
v -19.037506 -2.261778 13.945467
v -19.037506 -2.261778 18.632967
v -9.272153 -3.501650 18.632967
v -8.032281 6.263704 13.945467
v -17.797635 7.503575 13.945467
v -17.797635 7.503575 18.632967
v -8.032281 6.263704 18.632967
v -28.689486 -5.142521 17.238039
v 30.051566 -4.117192 17.238039
v 30.051566 -4.117192 -16.511961
v -28.689486 -5.142521 -16.511961
v -28.929456 8.605384 17.238039
v 29.811596 9.630713 17.238039
v 29.811596 9.630713 -16.511961
v -28.929456 8.605384 -16.511961
v -9.375000 -23.333937 19.937374
v -9.375000 -24.311653 13.764322
v 9.375000 -24.311653 13.764322
v 9.375000 -23.333937 19.937374
v -9.375000 1.358271 16.026512
v -9.375000 0.380556 9.853460
v 9.375000 0.380556 9.853460
v 9.375000 1.358271 16.026512
# 40 vertices

vn -0.999375 0.035250 0.000000
vn 0.999375 -0.035250 0.000000
vn 0.035250 0.999375 0.000000
vn -0.035250 -0.999375 0.000000
vn -0.992031 -0.125938 0.000000
vn 0.992031 0.125938 0.000000
vn -0.125938 0.992031 0.000000
vn 0.125938 -0.992031 0.000000
vn 0.992031 -0.125938 0.000000
vn -0.992031 0.125938 0.000000
vn 0.125938 0.992031 0.000000
vn -0.125938 -0.992031 0.000000
vn -0.017438 0.999844 0.000000
vn 0.017438 -0.999844 0.000000
vn -0.999844 -0.017438 0.000000
vn 0.999844 0.017438 0.000000
vn 0.000000 0.156406 0.987688
vn 0.000000 -0.987688 0.156406
# 18 normals

vt 0.000000 -0.468750 0.000000
vt 0.026316 -0.468750 0.000000
vt 0.052632 -0.468750 0.000000
vt 0.052632 -0.500000 0.000000
vt 0.657895 -1.000000 0.000000
vt 0.657895 -0.718750 0.000000
vt 0.789474 -0.718750 0.000000
vt 0.789474 -1.000000 0.000000
vt 0.710526 -1.000000 0.000000
vt 0.710526 -0.718750 0.000000
vt 0.842105 -0.718750 0.000000
vt 0.842105 -1.000000 0.000000
vt 0.763158 -0.718750 0.000000
vt 0.763158 -1.000000 0.000000
vt 0.763158 -0.875000 0.000000
vt 0.710526 -0.875000 0.000000
vt 0.500000 -0.843750 0.000000
vt 0.578947 -0.843750 0.000000
vt 0.578947 -0.968750 0.000000
vt 0.500000 -0.968750 0.000000
vt 0.500000 -0.937500 0.000000
vt 0.578947 -0.937500 0.000000
vt 0.552632 -0.843750 0.000000
vt 0.552631 -0.968750 0.000000
vt 0.526316 -0.843750 0.000000
vt 0.526316 -0.968750 0.000000
# 26 texture coordinates

o Belt
f 101/92/25 104/93/25 108/58/25 105/54/25
f 103/93/26 102/94/26 106/60/26 107/58/26
f 106/53/27 105/95/27 108/60/27 107/54/27
f 103/92/28 104/94/28 101/95/28 102/53/28
f 104/92/20 103/94/20 107/60/20 108/54/20
f 109/92/29 112/93/29 116/58/29 113/54/29
f 111/93/30 110/94/30 114/60/30 115/58/30
f 114/53/31 113/95/31 116/60/31 115/54/31
f 111/92/32 112/94/32 109/95/32 110/53/32
f 112/92/20 111/94/20 115/60/20 116/54/20
f 117/58/33 121/93/33 124/92/33 120/54/33
f 119/60/34 123/94/34 122/93/34 118/58/34
f 122/60/35 123/95/35 124/53/35 121/54/35
f 119/95/36 118/94/36 117/92/36 120/53/36
f 120/60/20 124/94/20 123/92/20 119/54/20
f 131/96/37 132/97/37 129/98/37 130/99/37
f 126/100/38 125/101/38 128/102/38 127/103/38
f 125/104/20 126/105/20 130/100/20 129/101/20
f 127/104/21 128/105/21 132/100/21 131/101/21
f 128/104/39 125/106/39 129/107/39 132/101/39
f 126/106/40 127/105/40 131/100/40 130/107/40
f 133/108/41 136/109/41 140/110/41 137/111/41
f 133/112/42 134/113/42 135/110/42 136/111/42
f 134/114/1 133/109/1 137/110/1 138/115/1
f 136/108/2 135/116/2 139/117/2 140/111/2

v -37.603796 137.762405 23.723797
v -19.089776 140.022483 21.804003
v -20.527341 136.246000 3.494604
v -39.041362 133.985922 5.414398
v -35.010157 119.536250 27.279469
v -16.496137 121.796328 25.359676
v -17.933702 118.019845 7.050277
v -36.447723 115.759767 8.970071
v -37.715883 152.011257 8.896461
v -25.373203 153.517975 7.616599
v -25.817852 147.748644 -3.463433
v -38.160532 146.241925 -2.183571
v -33.863333 130.039037 20.182710
v -21.520653 131.545755 18.902847
v -21.965302 125.776424 7.822816
v -34.307982 124.269705 9.102678
v -30.451275 160.041872 -3.153964
v -36.622615 159.288512 -2.514033
v -36.622582 155.242112 -7.277345
v -30.451242 155.995471 -7.917276
v -28.474346 150.635152 4.836992
v -34.645686 149.881793 5.476924
v -34.645653 145.835392 0.713611
v -28.474313 146.588752 0.073680
v 37.603796 137.762405 23.723797
v 19.089776 140.022483 21.804003
v 20.527341 136.246000 3.494604
v 39.041362 133.985922 5.414398
v 35.010157 119.536250 27.279469
v 16.496137 121.796328 25.359676
v 17.933702 118.019845 7.050277
v 36.447723 115.759767 8.970071
v 37.715883 152.011257 8.896461
v 25.373203 153.517975 7.616599
v 25.817852 147.748644 -3.463433
v 38.160532 146.241925 -2.183571
v 33.863333 130.039037 20.182710
v 21.520653 131.545755 18.902847
v 21.965302 125.776424 7.822816
v 34.307982 124.269705 9.102678
v 30.451275 160.041872 -3.153964
v 36.622615 159.288512 -2.514033
v 36.622582 155.242112 -7.277345
v 30.451242 155.995471 -7.917276
v 28.474346 150.635152 4.836992
v 34.645686 149.881793 5.476924
v 34.645653 145.835392 0.713611
v 28.474313 146.588752 0.073680
v -16.681125 134.523311 5.560477
v -35.017240 132.813147 9.085348
v -37.130482 122.925411 -6.704819
v -18.794367 124.635575 -10.229690
v -13.382097 118.684419 15.037207
v -31.718212 116.974255 18.562078
v -33.831454 107.086518 2.771910
v -15.495339 108.796683 -0.752961
v -24.729024 132.953431 -20.442805
v -36.953101 131.813321 -18.092891
v -36.205072 141.060316 -9.715329
v -23.980995 142.200425 -12.065244
v -19.724067 116.286909 -2.493502
v -31.948144 115.146799 -0.143588
v -31.200115 124.393794 8.233973
v -18.976038 125.533904 5.884059
v -29.799907 139.090164 -27.220845
v -35.911945 138.520110 -26.045888
v -35.828985 143.962395 -22.973894
v -29.716946 144.532450 -24.148851
v -27.193297 133.050606 -16.591673
v -33.305335 132.480551 -15.416715
v -33.222375 137.922836 -12.344722
v -27.110336 138.492891 -13.519679
v 16.681125 134.523311 5.560477
v 35.017240 132.813147 9.085348
v 37.130482 122.925411 -6.704819
v 18.794367 124.635575 -10.229690
v 13.382097 118.684419 15.037207
v 31.718212 116.974255 18.562078
v 33.831454 107.086518 2.771910
v 15.495339 108.796683 -0.752961
v 24.729024 132.953431 -20.442805
v 36.953101 131.813321 -18.092891
v 36.205072 141.060316 -9.715329
v 23.980995 142.200425 -12.065244
v 19.724067 116.286909 -2.493502
v 31.948144 115.146799 -0.143588
v 31.200115 124.393794 8.233973
v 18.976038 125.533904 5.884059
v 29.799907 139.090164 -27.220845
v 35.911945 138.520110 -26.045888
v 35.828985 143.962395 -22.973894
v 29.716946 144.532450 -24.148851
v 27.193297 133.050606 -16.591673
v 33.305335 132.480551 -15.416715
v 33.222375 137.922836 -12.344722
v 27.110336 138.492891 -13.519679
v -35.298437 109.137724 -17.979145
v -17.434487 111.819186 -23.004238
v -16.699082 127.137058 -12.216075
v -34.563032 124.455596 -7.190982
v -29.650342 98.662274 -3.490306
v -11.786392 101.343736 -8.515399
v -11.050987 116.661608 2.272765
v -28.914937 113.980146 7.297858
v -36.498723 112.988067 -31.851735
v -24.589423 114.775708 -35.201797
v -25.156029 126.516981 -30.950742
v -37.065329 124.729340 -27.600680
v -28.989386 105.191439 -9.316819
v -17.080087 106.979080 -12.666881
v -17.646693 118.720353 -8.415826
v -29.555993 116.932712 -5.065764
v -33.670429 121.258755 -29.044170
v -27.715780 122.152576 -30.719201
v -27.017429 115.993939 -31.522938
v -32.972079 115.100118 -29.847907
v -37.201407 122.415944 -40.979123
v -31.246757 123.309765 -42.654154
v -30.548407 117.151127 -43.457891
v -36.503057 116.257307 -41.782860
v -26.012733 102.797687 2.535895
v -8.148783 105.479149 -2.489198
v -7.495945 88.082043 -9.451740
v -25.359895 85.400581 -4.426647
v -31.670966 109.256243 -14.132457
v -13.807016 111.937705 -19.157550
v -13.154178 94.540598 -26.120092
v -31.018128 91.859137 -21.094999
v -21.412818 106.456309 -37.460509
v -33.322118 104.668667 -34.110447
v -31.864005 92.333073 -35.509383
v -19.954706 94.120714 -38.859445
v -26.309989 102.784574 -10.188067
v -14.400689 104.572216 -13.538129
v -12.942577 92.236621 -14.937065
v -24.851877 90.448980 -11.587003
v -32.752861 99.344849 -46.587865
v -26.798211 100.238670 -48.262896
v -25.693494 94.122996 -47.599095
v -31.648144 93.229175 -45.924064
v -29.664660 101.201852 -34.618547
v -23.710011 102.095673 -36.293578
v -22.605294 95.979999 -35.629778
v -28.559944 95.086178 -33.954747
v 35.298437 109.137724 -17.979145
v 17.434487 111.819186 -23.004238
v 16.699082 127.137058 -12.216075
v 34.563032 124.455596 -7.190982
v 29.650342 98.662274 -3.490306
v 11.786392 101.343736 -8.515399
v 11.050987 116.661608 2.272765
v 28.914937 113.980146 7.297858
v 36.498723 112.988067 -31.851735
v 24.589423 114.775708 -35.201797
v 25.156029 126.516981 -30.950742
v 37.065329 124.729340 -27.600680
v 28.989386 105.191439 -9.316819
v 17.080087 106.979080 -12.666881
v 17.646693 118.720353 -8.415826
v 29.555993 116.932712 -5.065764
v 33.670429 121.258755 -29.044170
v 27.715780 122.152576 -30.719201
v 27.017429 115.993939 -31.522938
v 32.972079 115.100118 -29.847907
v 37.201407 122.415944 -40.979123
v 31.246757 123.309765 -42.654154
v 30.548407 117.151127 -43.457891
v 36.503057 116.257307 -41.782860
v 26.012733 102.797687 2.535895
v 8.148783 105.479149 -2.489198
v 7.495945 88.082043 -9.451740
v 25.359895 85.400581 -4.426647
v 31.670966 109.256243 -14.132457
v 13.807016 111.937705 -19.157550
v 13.154178 94.540598 -26.120092
v 31.018128 91.859137 -21.094999
v 21.412818 106.456309 -37.460509
v 33.322118 104.668667 -34.110447
v 31.864005 92.333073 -35.509383
v 19.954706 94.120714 -38.859445
v 26.309989 102.784574 -10.188067
v 14.400689 104.572216 -13.538129
v 12.942577 92.236621 -14.937065
v 24.851877 90.448980 -11.587003
v 32.752861 99.344849 -46.587865
v 26.798211 100.238670 -48.262896
v 25.693494 94.122996 -47.599095
v 31.648144 93.229175 -45.924064
v 29.664660 101.201852 -34.618547
v 23.710011 102.095673 -36.293578
v 22.605294 95.979999 -35.629778
v 28.559944 95.086178 -33.954747
v 10.625000 135.576807 29.739015
v -10.625000 135.576807 29.739015
v -10.625000 133.526461 -28.975196
v 10.625000 133.526461 -28.975196
v 10.625000 109.342798 30.655127
v -10.625000 109.342798 30.655127
v -10.625000 107.292452 -28.059084
v 10.625000 107.292452 -28.059084
v 26.250000 126.250000 26.250000
v -26.250000 126.250000 26.250000
v -26.250000 126.250000 -26.250000
v 26.250000 126.250000 -26.250000
v 26.250000 106.250000 26.250000
v -26.250000 106.250000 26.250000
v -26.250000 106.250000 -26.250000
v 26.250000 106.250000 -26.250000
v 18.750000 133.268340 -31.107301
v -18.750000 133.268340 -31.107301
v -18.750000 130.000000 6.250000
v 18.750000 130.000000 6.250000
v 18.750000 102.137256 -33.830918
v -18.750000 102.137256 -33.830918
v -18.750000 98.868916 3.526383
v 18.750000 98.868916 3.526383
v -26.250000 106.250000 7.500000
v 26.250000 106.250000 7.500000
v 26.250000 73.750000 -26.250000
v -26.250000 73.750000 -26.250000
v -26.250000 73.750000 7.500000
v 26.250000 73.750000 7.500000
v -9.375000 103.973617 -31.131084
v 9.375000 103.973617 -31.131084
v 9.375000 101.250000 0.000000
v -9.375000 101.250000 0.000000
v -9.375000 72.842533 -33.854701
v 9.375000 72.842533 -33.854701
v 9.375000 70.118916 -2.723617
v -9.375000 70.118916 -2.723617
v -31.250000 129.759170 12.571349
v 31.250000 129.759170 12.571349
v 31.250000 128.125000 31.250000
v -31.250000 128.125000 31.250000
v -31.250000 111.080520 10.937179
v 31.250000 111.080520 10.937179
v 31.250000 109.446349 29.615830
v -31.250000 109.446349 29.615830
v -28.125000 76.853016 12.012044
v 28.125000 76.853016 12.012044
v 28.125000 85.200910 -30.934145
v -28.125000 85.200910 -30.934145
v -28.125000 89.123356 14.397156
v 28.125000 89.123356 14.397156
v 28.125000 97.471249 -28.549033
v -28.125000 97.471249 -28.549033
v -10.312500 111.454063 32.898220
v 10.312500 111.454063 32.898220
v 10.312500 112.053259 26.049381
v -10.312500 112.053259 26.049381
v -10.312500 132.000579 34.695807
v 10.312500 132.000579 34.695807
v 10.312500 132.599775 27.846968
v -10.312500 132.599775 27.846968
# 254 vertices

vn -0.138313 0.972031 -0.189625
vn 0.138313 -0.972031 0.189625
vn 0.076656 0.201406 0.976500
vn -0.076656 -0.201406 -0.976500
vn 0.987406 0.120531 -0.102375
vn -0.987406 -0.120531 0.102375
vn -0.154094 0.878875 -0.451438
vn 0.035563 0.461531 0.886375
vn -0.035563 -0.461531 -0.886375
vn -0.158125 0.752531 -0.639250
vn 0.000000 0.647406 0.762125
vn 0.000000 -0.647406 -0.762125
vn 0.138313 0.972031 -0.189625
vn -0.138313 -0.972031 0.189625
vn -0.076656 0.201406 0.976500
vn 0.076656 -0.201406 -0.976500
vn -0.987406 0.120531 -0.102375
vn 0.987406 -0.120531 0.102375
vn 0.154094 0.878875 -0.451438
vn -0.035563 0.461531 0.886375
vn 0.035563 -0.461531 -0.886375
vn 0.158125 0.752531 -0.639250
vn -0.175938 0.844719 -0.505406
vn 0.175938 -0.844719 0.505406
vn 0.112687 0.527344 0.842125
vn -0.112687 -0.527344 -0.842125
vn 0.977906 0.091187 -0.187969
vn -0.977906 -0.091187 0.187969
vn -0.200188 0.666656 -0.717969
vn 0.059813 0.739750 0.670187
vn -0.059813 -0.739750 -0.670187
vn -0.208500 0.483156 -0.850312
vn 0.013250 0.870750 0.491500
vn -0.013250 -0.870750 -0.491500
vn 0.175938 0.844719 -0.505406
vn -0.175938 -0.844719 0.505406
vn -0.112687 0.527344 0.842125
vn 0.112687 -0.527344 -0.842125
vn -0.977906 0.091187 -0.187969
vn 0.977906 -0.091187 0.187969
vn 0.200188 0.666656 -0.717969
vn -0.059813 0.739750 0.670187
vn 0.059813 -0.739750 -0.670187
vn 0.208500 0.483156 -0.850312
vn -0.013250 0.870750 0.491500
vn 0.013250 -0.870750 -0.491500
vn -0.282469 0.092562 -0.954781
vn 0.952719 0.143000 -0.268000
vn -0.111719 0.985375 0.128594
vn 0.111719 -0.985375 -0.128594
vn -0.952719 -0.143000 0.268000
vn -0.301750 0.344438 -0.888969
vn 0.301750 -0.344438 0.888969
vn -0.034812 0.927844 0.371312
vn 0.034812 -0.927844 -0.371312
vn -0.280469 0.075344 -0.956875
vn -0.116625 0.986844 0.111906
vn 0.116625 -0.986844 -0.111906
vn -0.301219 0.558688 -0.772719
vn 0.301219 -0.558688 0.772719
vn 0.039219 0.816938 0.575344
vn -0.039219 -0.816938 -0.575344
vn -0.300344 0.311844 -0.901375
vn -0.247031 -0.148531 -0.957531
vn 0.176750 -0.978500 0.106188
vn -0.045313 0.939281 0.340062
vn 0.045313 -0.939281 -0.340062
vn -0.176750 0.978500 -0.106188
vn 0.282469 0.092562 -0.954781
vn -0.952719 0.143000 -0.268000
vn 0.111719 0.985375 0.128594
vn -0.111719 -0.985375 -0.128594
vn 0.952719 -0.143000 0.268000
vn 0.301750 0.344438 -0.888969
vn -0.301750 -0.344438 0.888969
vn 0.034812 0.927844 0.371312
vn -0.034812 -0.927844 -0.371312
vn 0.280469 0.075344 -0.956875
vn 0.116625 0.986844 0.111906
vn -0.116625 -0.986844 -0.111906
vn 0.301219 0.558688 -0.772719
vn -0.301219 -0.558688 0.772719
vn -0.039219 0.816938 0.575344
vn 0.039219 -0.816938 -0.575344
vn 0.300344 0.311844 -0.901375
vn 0.247031 -0.148531 -0.957531
vn -0.176750 -0.978500 0.106188
vn 0.045313 0.939281 0.340062
vn -0.045313 -0.939281 -0.340062
vn 0.176750 0.978500 -0.106188
vn 0.000000 0.999375 -0.034875
vn 0.000000 -0.999375 0.034875
vn 0.000000 0.034875 0.999375
vn 0.000000 -0.034875 -0.999375
vn 0.000000 0.996188 0.087125
vn 0.000000 -0.996188 -0.087125
vn 0.000000 -0.087125 0.996188
vn 0.000000 0.087125 -0.996188
vn 0.000000 0.981625 0.190781
vn 0.000000 -0.981625 -0.190781
vn 0.000000 -0.190781 0.981625
vn 0.000000 0.190781 -0.981625
# 102 normals

vt 0.657895 -0.906250 0.000000
vt 0.578947 -0.906250 0.000000
vt 0.578947 -1.000000 0.000000
vt 0.078947 -0.375000 0.000000
vt 0.026316 -0.375000 0.000000
vt 0.052632 -0.312500 0.000000
vt 0.052632 -0.343750 0.000000
vt 0.105263 -0.343750 0.000000
vt 0.000000 -0.343750 0.000000
vt 0.105263 -0.375000 0.000000
vt 0.000000 -0.375000 0.000000
vt 0.052632 -0.375000 0.000000
vt 0.078947 -0.343750 0.000000
vt 0.026316 -0.343750 0.000000
vt 1.000000 0.000000 0.000000
vt 1.000000 -0.250000 0.000000
vt 0.789474 -0.250000 0.000000
vt 0.789474 0.000000 0.000000
vt 0.763158 -0.343750 0.000000
vt 0.763158 -0.593750 0.000000
vt 0.842105 -0.593750 0.000000
vt 0.842105 -0.343750 0.000000
vt 0.684211 -0.718750 0.000000
vt 0.684211 -1.000000 0.000000
vt 0.736842 -0.718750 0.000000
vt 0.736842 -0.843750 0.000000
vt 0.657895 -0.843750 0.000000
vt 0.736842 -1.000000 0.000000
vt 0.000000 0.000000 0.000000
vt 0.842105 -0.218750 0.000000
vt 0.842105 -0.468750 0.000000
vt 0.973684 -0.468750 0.000000
vt 0.973684 -0.218750 0.000000
vt 0.868421 -0.218750 0.000000
vt 0.736842 -0.218750 0.000000
vt 0.736842 -0.375000 0.000000
vt 0.868421 -0.375000 0.000000
vt 0.500000 -1.000000 0.000000
vt 0.342105 -1.000000 0.000000
vt 0.342105 -0.843750 0.000000
vt 0.210526 -0.843750 0.000000
vt 0.368421 -0.843750 0.000000
vt 0.368421 -1.000000 0.000000
vt 0.210526 -1.000000 0.000000
vt 0.789474 -0.875000 0.000000
vt 0.657895 -0.875000 0.000000
vt 0.710526 -0.843750 0.000000
vt 0.789474 -0.843750 0.000000
vt 0.842105 -0.843750 0.000000
vt 0.815789 -0.718750 0.000000
vt 0.815789 -1.000000 0.000000
vt 0.657895 -0.781250 0.000000
vt 0.842105 -0.781250 0.000000
vt 0.921053 -0.812500 0.000000
vt 0.921053 -0.500000 0.000000
vt 1.000000 -0.500000 0.000000
vt 1.000000 -0.812500 0.000000
vt 0.842105 -0.500000 0.000000
vt 0.842105 -0.812500 0.000000
# 59 texture coordinates

o Head
f 141/96/43 142/118/43 143/119/43 144/120/43
f 148/96/44 147/118/44 146/119/44 145/120/44
f 142/96/45 141/118/45 145/119/45 146/120/45
f 144/96/46 143/118/46 147/119/46 148/120/46
f 143/96/47 142/118/47 146/119/47 147/120/47
f 141/96/48 144/118/48 148/119/48 145/120/48
f 149/4/49 150/121/49 151/122/49 152/5/49
f 160/123/47 157/124/47 161/125/47 164/2/47
f 150/77/50 149/125/50 153/126/50 154/51/50
f 152/127/51 151/2/51 155/7/51 156/128/51
f 151/77/47 150/125/47 154/126/47 155/51/47
f 149/127/48 152/2/48 156/7/48 153/128/48
f 158/124/52 157/129/52 160/121/52 159/130/52
f 158/7/48 159/126/48 163/124/48 162/123/48
f 157/131/53 158/122/53 162/121/53 161/130/53
f 159/126/54 160/128/54 164/129/54 163/124/54
f 165/119/55 168/118/55 167/96/55 166/120/55
f 172/119/56 169/118/56 170/96/56 171/120/56
f 166/119/57 170/118/57 169/96/57 165/120/57
f 168/119/58 172/118/58 171/96/58 167/120/58
f 167/119/59 171/118/59 170/96/59 166/120/59
f 165/119/60 169/118/60 172/96/60 168/120/60
f 173/122/61 176/121/61 175/4/61 174/5/61
f 184/125/59 188/124/59 185/123/59 181/2/59
f 174/126/62 178/125/62 177/77/62 173/51/62
f 176/7/63 180/2/63 179/127/63 175/128/63
f 175/126/59 179/125/59 178/77/59 174/51/59
f 173/7/60 177/2/60 180/127/60 176/128/60
f 182/121/64 183/129/64 184/124/64 181/130/64
f 182/124/60 186/126/60 187/7/60 183/123/60
f 181/121/53 185/122/53 186/131/53 182/130/53
f 183/129/54 187/128/54 188/126/54 184/124/54
f 190/96/65 189/118/65 192/119/65 191/120/65
f 195/96/66 196/118/66 193/119/66 194/120/66
f 189/96/67 190/118/67 194/119/67 193/120/67
f 191/96/68 192/118/68 196/119/68 195/120/68
f 192/96/69 189/118/69 193/119/69 196/120/69
f 190/96/70 191/118/70 195/119/70 194/120/70
f 199/3/71 200/127/71 197/129/71 198/59/71
f 200/3/72 199/127/72 203/128/72 204/6/72
f 198/127/73 197/2/73 201/7/73 202/128/73
f 197/127/69 200/2/69 204/7/69 201/128/69
f 199/77/70 198/125/70 202/126/70 203/51/70
f 207/126/74 208/128/74 205/122/74 206/131/74
f 208/131/75 207/122/75 211/121/75 212/130/75
f 206/124/76 205/129/76 209/127/76 210/125/76
f 205/123/69 208/124/69 212/125/69 209/2/69
f 207/8/70 206/131/70 210/130/70 211/1/70
f 214/119/77 215/118/77 216/96/77 213/120/77
f 219/119/78 218/118/78 217/96/78 220/120/78
f 213/119/79 217/118/79 218/96/79 214/120/79
f 215/119/80 219/118/80 220/96/80 216/120/80
f 216/119/81 220/118/81 217/96/81 213/120/81
f 214/119/82 218/118/82 219/96/82 215/120/82
f 223/129/83 222/127/83 221/3/83 224/59/83
f 224/128/84 228/127/84 227/3/84 223/6/84
f 222/7/85 226/2/85 225/127/85 221/128/85
f 221/7/81 225/2/81 228/127/81 224/128/81
f 223/126/82 227/125/82 226/77/82 222/51/82
f 231/122/86 230/128/86 229/126/86 232/131/86
f 232/121/87 236/122/87 235/131/87 231/130/87
f 230/127/88 234/129/88 233/124/88 229/125/88
f 229/125/81 233/124/81 236/123/81 232/2/81
f 231/130/82 235/131/82 234/8/82 230/1/82
f 257/131/89 258/122/89 259/129/89 260/124/89
f 279/131/90 278/122/90 282/121/90 283/130/90
f 258/124/91 257/129/91 253/127/91 254/125/91
f 260/126/92 259/128/92 255/129/92 256/124/92
f 259/131/90 258/122/90 254/121/90 255/130/90
f 257/123/93 260/124/93 256/125/93 253/2/93
f 265/96/94 266/118/94 267/119/94 268/120/94
f 272/127/90 269/2/90 274/7/90 275/128/90
f 264/96/95 263/118/95 262/119/95 261/120/95
f 266/96/96 265/118/96 261/119/96 262/120/96
f 268/96/97 267/118/97 263/119/97 264/120/97
f 267/96/90 266/118/90 262/119/90 263/120/90
f 265/96/93 268/118/93 264/119/93 261/120/93
f 270/77/93 271/125/93 276/126/93 273/51/93
f 270/4/98 269/121/98 272/122/98 271/5/98
f 277/8/93 280/131/93 284/130/93 281/1/93
f 269/3/99 270/127/99 273/128/99 274/6/99
f 271/3/100 272/127/100 275/128/100 276/6/100
f 240/96/101 239/118/101 238/119/101 237/120/101
f 241/96/102 242/118/102 243/119/102 244/120/102
f 239/96/103 240/118/103 244/119/103 243/120/103
f 237/96/104 238/118/104 242/119/104 241/120/104
f 238/96/90 239/118/90 243/119/90 242/120/90
f 240/96/93 237/118/93 241/119/93 244/120/93
f 248/4/105 247/121/105 246/122/105 245/5/105
f 277/130/106 278/121/106 279/127/106 280/125/106
f 280/124/107 279/129/107 283/127/107 284/125/107
f 247/77/108 248/125/108 252/126/108 251/51/108
f 245/3/109 246/127/109 250/128/109 249/6/109
f 246/77/90 247/125/90 251/126/90 250/51/90
f 248/3/93 245/127/93 249/128/93 252/6/93
f 278/131/110 277/122/110 281/121/110 282/130/110
f 305/129/111 308/122/111 307/131/111 306/124/111
f 327/121/112 331/122/112 330/131/112 326/130/112
f 306/127/113 302/129/113 301/124/113 305/125/113
f 308/129/114 304/128/114 303/126/114 307/124/114
f 307/121/112 303/122/112 302/131/112 306/130/112
f 305/125/115 301/124/115 304/123/115 308/2/115
f 313/119/116 316/118/116 315/96/116 314/120/116
f 320/7/112 323/2/112 322/127/112 317/128/112
f 312/119/117 309/118/117 310/96/117 311/120/117
f 314/119/118 310/118/118 309/96/118 313/120/118
f 316/119/119 312/118/119 311/96/119 315/120/119
f 315/119/112 311/118/112 310/96/112 314/120/112
f 313/119/115 309/118/115 312/96/115 316/120/115
f 318/126/115 321/125/115 324/77/115 319/51/115
f 318/122/120 319/121/120 320/4/120 317/5/120
f 325/130/115 329/131/115 332/8/115 328/1/115
f 317/128/121 322/127/121 321/3/121 318/6/121
f 319/128/122 324/127/122 323/3/122 320/6/122
f 288/119/123 285/118/123 286/96/123 287/120/123
f 289/119/124 292/118/124 291/96/124 290/120/124
f 287/119/125 291/118/125 292/96/125 288/120/125
f 285/119/126 289/118/126 290/96/126 286/120/126
f 286/119/112 290/118/112 291/96/112 287/120/112
f 288/119/115 292/118/115 289/96/115 285/120/115
f 296/122/127 293/121/127 294/4/127 295/5/127
f 325/127/128 328/121/128 327/130/128 326/125/128
f 328/127/129 332/129/129 331/124/129 327/125/129
f 295/126/130 299/125/130 300/77/130 296/51/130
f 293/128/131 297/127/131 298/3/131 294/6/131
f 294/126/112 298/125/112 299/77/112 295/51/112
f 296/128/115 300/127/115 297/3/115 293/6/115
f 326/121/132 330/122/132 329/131/132 325/130/132
f 375/96/1 378/118/1 374/119/1 371/120/1
f 377/96/2 376/118/2 372/119/2 373/120/2
f 344/132/10 343/133/10 342/134/10 341/135/10
f 345/135/12 346/134/12 347/133/12 348/132/12
f 346/136/20 345/137/20 341/138/20 342/139/20
f 348/136/21 347/137/21 343/138/21 344/139/21
f 347/137/1 346/136/1 342/139/1 343/138/1
f 345/136/2 348/137/2 344/138/2 341/139/2
f 336/140/133 335/98/133 334/99/133 333/141/133
f 337/140/134 338/98/134 339/99/134 340/141/134
f 338/97/135 337/142/135 333/143/135 334/144/135
f 340/97/136 339/142/136 335/143/136 336/144/136
f 339/96/1 338/97/1 334/104/1 335/105/1
f 337/145/2 340/142/2 336/102/2 333/103/2
f 348/133/10 347/132/10 357/146/10 358/34/10
f 362/147/12 361/148/12 360/149/12 359/150/12
f 361/147/20 362/148/20 358/149/20 357/150/20
f 359/147/21 360/148/21 347/149/21 348/150/21
f 360/151/1 361/152/1 357/153/1 347/154/1
f 362/154/2 359/153/2 348/152/2 358/151/2
f 349/155/137 350/156/137 351/157/137 352/108/137
f 356/155/138 355/156/138 354/157/138 353/108/138
f 355/158/139 356/159/139 352/160/139 351/161/139
f 353/157/140 354/108/140 350/155/140 349/156/140
f 354/158/1 355/159/1 351/160/1 350/161/1
f 356/158/2 353/159/2 349/160/2 352/161/2
f 367/97/1 370/98/1 366/162/1 363/163/1
f 369/164/138 370/165/138 367/99/138 368/100/138
f 369/164/2 368/166/2 364/103/2 365/100/2
f 368/101/140 367/98/140 363/162/140 364/107/140
f 385/96/141 386/97/141 383/102/141 384/103/141
f 380/96/142 379/97/142 382/102/142 381/103/142
f 379/141/143 380/140/143 384/142/143 383/145/143
f 381/105/144 382/104/144 386/167/144 385/168/144
f 382/166/1 379/144/1 383/169/1 386/170/1
f 380/166/2 381/144/2 385/169/2 384/170/2
f 372/171/137 371/172/137 374/173/137 373/174/137
f 377/172/138 378/171/138 375/174/138 376/173/138
f 378/171/139 377/172/139 373/175/139 374/176/139
f 376/176/140 375/175/140 371/172/140 372/171/140
f 390/55/1 387/60/1 391/59/1 394/4/1
f 388/58/2 389/54/2 393/6/2 392/5/2
f 393/54/137 394/55/137 391/52/137 392/53/137
f 388/54/138 387/55/138 390/52/138 389/53/138
f 387/55/139 388/54/139 392/6/139 391/4/139
f 389/133/140 390/132/140 394/146/140 393/34/140

v -26.875000 -56.250000 -14.375000
v -26.875000 -56.250000 14.375000
v -26.875000 -25.000000 -14.375000
v -26.875000 -25.000000 14.375000
v -26.250000 -18.750000 13.750000
v -26.250000 -18.750000 -13.750000
v -26.250000 -25.000000 13.750000
v -26.250000 -25.000000 -13.750000
v -25.901283 -27.721282 -12.500000
v -32.074336 -26.743566 -12.500000
v -32.074336 -26.743566 12.500000
v -25.901283 -27.721282 12.500000
v -21.990422 -3.029073 -12.500000
v -28.163474 -2.051358 -12.500000
v -28.163474 -2.051358 12.500000
v -21.990422 -3.029073 12.500000
v 2.500000 -18.750000 -15.000000
v -27.500000 -18.750000 -15.000000
v -27.500000 -18.750000 15.000000
v 2.500000 -18.750000 15.000000
v 2.500000 0.000000 -15.000000
v -27.500000 0.000000 -15.000000
v -27.500000 0.000000 15.000000
v 2.500000 0.000000 15.000000
v 1.875000 -56.250000 -14.375000
v 1.875000 -56.250000 14.375000
v 1.875000 -25.000000 -14.375000
v 1.875000 -25.000000 14.375000
v 1.250000 -18.750000 13.750000
v 1.250000 -18.750000 -13.750000
v 1.250000 -25.000000 13.750000
v 1.250000 -25.000000 -13.750000
v -30.541258 -39.328344 15.625000
v -6.881634 -41.398293 15.625000
v -6.881634 -41.398293 -15.625000
v -30.541258 -39.328344 -15.625000
v -27.272918 -1.971043 15.625000
v -3.613294 -4.040991 15.625000
v -3.613294 -4.040991 -15.625000
v -27.272918 -1.971043 -15.625000
v -27.187500 -38.125000 -14.687500
v 2.187500 -38.125000 -14.687500
v 2.187500 -38.125000 14.687500
v -27.187500 -38.125000 14.687500
v -27.187500 -24.375000 -14.687500
v 2.187500 -24.375000 -14.687500
v 2.187500 -24.375000 14.687500
v -27.187500 -24.375000 14.687500
# 48 vertices

vn 0.156406 0.987688 0.000000
vn -0.156406 -0.987688 0.000000
vn -0.987688 0.156406 0.000000
vn 0.087125 0.996188 0.000000
vn -0.087125 -0.996188 0.000000
vn 0.996188 -0.087125 0.000000
vn -0.996188 0.087125 0.000000
# 7 normals

vt 0.526316 -0.593750 0.000000
vt 0.421053 -0.593750 0.000000
vt 0.421053 -0.625000 0.000000
vt 0.526316 -0.625000 0.000000
vt 0.526316 -0.687500 0.000000
vt 0.421053 -0.687500 0.000000
vt 0.421053 -0.718750 0.000000
vt 0.526316 -0.718750 0.000000
vt 0.500000 -0.593750 0.000000
vt 0.500000 -0.718750 0.000000
vt 0.447368 -0.718750 0.000000
vt 0.447368 -0.593750 0.000000
vt 0.105263 -0.937500 0.000000
vt 0.105263 -0.875000 0.000000
vt 0.000000 -0.875000 0.000000
vt 0.000000 -0.937500 0.000000
vt 0.210526 -0.968750 0.000000
vt 0.105263 -0.843750 0.000000
vt 0.105263 -0.968750 0.000000
vt 0.000000 -0.843750 0.000000
vt 0.684211 -0.875000 0.000000
vt 0.684211 -0.750000 0.000000
vt 0.578947 -0.750000 0.000000
vt 0.578947 -0.875000 0.000000
vt 0.763158 -0.750000 0.000000
vt 0.657895 -0.593750 0.000000
vt 0.657895 -0.750000 0.000000
vt 0.815789 -0.750000 0.000000
vt 0.815789 -0.593750 0.000000
vt 0.710526 -0.593750 0.000000
vt 0.710526 -0.750000 0.000000
vt 0.842105 -0.750000 0.000000
vt 0.736842 -0.593750 0.000000
vt 0.736842 -0.750000 0.000000
vt 0.789474 -0.750000 0.000000
vt 0.789474 -0.593750 0.000000
vt 0.684211 -0.593750 0.000000
vt 0.815789 -0.625000 0.000000
vt 0.710526 -0.625000 0.000000
vt 0.842105 -0.625000 0.000000
vt 0.736842 -0.625000 0.000000
vt 0.763158 -0.625000 0.000000
vt 0.657895 -0.625000 0.000000
vt 0.789474 -0.187500 0.000000
vt 0.684211 -0.187500 0.000000
vt 0.657895 -0.406250 0.000000
vt 0.763158 -0.406250 0.000000
vt 0.973684 -1.000000 0.000000
vt 0.973684 -0.812500 0.000000
# 49 texture coordinates

o pantsO
f 408/177/145 409/178/145 410/179/145 407/180/145
f 405/181/146 404/182/146 403/183/146 406/184/146
f 406/184/20 410/177/20 409/185/20 405/186/20
f 404/187/21 408/188/21 407/178/21 403/183/21
f 438/189/1 442/190/1 439/191/1 435/192/1
f 405/184/147 409/177/147 408/178/147 404/183/147
f 416/193/10 417/158/10 418/194/10 415/195/10
f 413/193/12 412/158/12 411/194/12 414/195/12
f 414/192/20 418/196/20 417/194/20 413/189/20
f 412/192/21 416/196/21 415/194/21 411/189/21
f 411/196/2 415/192/2 418/189/2 414/194/2
f 413/196/1 417/192/1 416/189/1 412/194/1
f 436/189/2 440/190/2 441/191/2 437/192/2
f 396/197/12 395/198/12 419/199/12 420/200/12
f 420/201/20 422/137/20 398/202/20 396/203/20
f 395/204/21 397/205/21 421/206/21 419/207/21
f 419/208/2 421/138/2 422/209/2 420/210/2
f 396/211/1 398/212/1 397/213/1 395/198/1
f 435/189/21 439/190/21 440/191/21 436/192/21
f 437/189/20 441/190/20 442/191/20 438/192/20
f 425/214/20 423/205/20 399/206/20 401/215/20
f 402/216/21 400/138/21 424/209/21 426/217/21
f 426/218/2 424/137/2 423/202/2 425/219/2
f 438/193/12 435/158/12 436/194/12 437/195/12
f 434/220/148 431/135/148 432/26/148 433/221/148
f 427/220/149 430/135/149 429/26/149 428/221/149
f 428/222/20 432/202/20 431/137/20 427/223/20
f 430/222/21 434/202/21 433/137/21 429/223/21
f 429/176/150 433/103/150 432/224/150 428/225/150
f 427/176/151 431/103/151 434/224/151 430/225/151
f 439/193/10 442/158/10 441/194/10 440/195/10

v -27.187500 -55.625000 14.687500
v 2.187500 -55.625000 14.687500
v 2.187500 -55.625000 -14.687500
v -27.187500 -55.625000 -14.687500
v -27.187500 -75.625000 14.687500
v 2.187500 -75.625000 14.687500
v 2.187500 -75.625000 -14.687500
v -27.187500 -75.625000 -14.687500
v -25.000000 -74.687500 12.500000
v 0.000000 -74.687500 12.500000
v 0.000000 -74.687500 18.750000
v -25.000000 -74.687500 18.750000
v -25.000000 -62.187500 12.500000
v 0.000000 -62.187500 12.500000
v 0.000000 -62.187500 18.750000
v -25.000000 -62.187500 18.750000
v -28.437500 -56.875000 -15.937500
v 3.437500 -56.875000 -15.937500
v 3.437500 -56.875000 15.937500
v -28.437500 -56.875000 15.937500
v -28.437500 -43.125000 -15.937500
v 3.437500 -43.125000 -15.937500
v 3.437500 -43.125000 15.937500
v -28.437500 -43.125000 15.937500
# 24 vertices

# 0 normal

vt 0.000000 -0.093750 0.000000
vt 0.105263 -0.093750 0.000000
vt 0.000000 -0.062500 0.000000
vt 0.105263 0.000000 0.000000
vt 0.105263 -0.062500 0.000000
vt 0.000000 -1.000000 0.000000
vt 1.000000 -1.000000 0.000000
vt 0.078947 -0.062500 0.000000
vt 0.078947 0.000000 0.000000
vt 0.026316 0.000000 0.000000
vt 0.026316 -0.062500 0.000000
vt 0.684211 -0.906250 0.000000
vt 0.684211 -0.843750 0.000000
vt 0.789474 -0.906250 0.000000
vt 0.710526 -0.906250 0.000000
vt 0.815790 -0.843750 0.000000
vt 0.815790 -0.906250 0.000000
vt 0.736842 -0.906250 0.000000
vt 0.842105 -0.906250 0.000000
vt 0.000000 -0.031250 0.000000
vt 0.105263 -0.031250 0.000000
# 21 texture coordinates

o BootO
f 452/31/12 453/226/12 454/227/12 451/32/12
f 458/228/20 454/146/20 453/229/20 457/230/20
f 452/132/20 456/146/20 455/231/20 451/232/20
f 457/233/2 453/234/2 452/229/2 456/230/2
f 449/31/12 448/146/12 447/229/12 450/32/12
f 455/228/1 451/146/1 454/235/1 458/236/1
f 443/226/20 447/146/20 448/229/20 444/227/20
f 445/132/12 444/146/12 443/231/12 446/232/12
f 445/146/21 449/226/21 450/227/21 446/229/21
f 444/229/2 448/227/2 449/226/2 445/146/2
f 446/229/1 450/227/1 447/226/1 443/146/1
f 465/31/10 464/146/10 463/229/10 466/32/10
f 460/31/12 461/146/12 462/229/12 459/32/12
f 466/237/20 462/238/20 461/165/20 465/239/20
f 464/240/21 460/164/21 459/241/21 463/242/21
f 465/243/2 461/143/2 460/166/2 464/244/2
f 463/243/1 459/143/1 462/166/1 466/244/1
f 457/245/10 456/146/10 455/229/10 458/246/10

v 26.875000 -56.250000 -14.375000
v 26.875000 -56.250000 14.375000
v 26.875000 -25.000000 -14.375000
v 26.875000 -25.000000 14.375000
v 26.250000 -18.750000 13.750000
v 26.250000 -18.750000 -13.750000
v 26.250000 -25.000000 13.750000
v 26.250000 -25.000000 -13.750000
v -1.250000 -18.750000 13.750000
v -1.250000 -18.750000 -13.750000
v -1.250000 -25.000000 13.750000
v -1.250000 -25.000000 -13.750000
v 25.901283 -27.721282 -12.500000
v 32.074336 -26.743566 -12.500000
v 32.074336 -26.743566 12.500000
v 25.901283 -27.721282 12.500000
v 21.990422 -3.029073 -12.500000
v 28.163474 -2.051358 -12.500000
v 28.163474 -2.051358 12.500000
v 21.990422 -3.029073 12.500000
v -2.500000 -18.750000 -15.000000
v 27.500000 -18.750000 -15.000000
v 27.500000 -18.750000 15.000000
v -2.500000 -18.750000 15.000000
v -2.500000 0.000000 -15.000000
v 27.500000 0.000000 -15.000000
v 27.500000 0.000000 15.000000
v -2.500000 0.000000 15.000000
v -1.875000 -56.250000 -14.375000
v -1.875000 -56.250000 14.375000
v -1.875000 -25.000000 -14.375000
v -1.875000 -25.000000 14.375000
v 30.541258 -39.328344 15.625000
v 6.881634 -41.398293 15.625000
v 6.881634 -41.398293 -15.625000
v 30.541258 -39.328344 -15.625000
v 27.272918 -1.971043 15.625000
v 3.613294 -4.040991 15.625000
v 3.613294 -4.040991 -15.625000
v 27.272918 -1.971043 -15.625000
v 27.187500 -38.125000 -14.687500
v -2.187500 -38.125000 -14.687500
v -2.187500 -38.125000 14.687500
v 27.187500 -38.125000 14.687500
v 27.187500 -24.375000 -14.687500
v -2.187500 -24.375000 -14.687500
v -2.187500 -24.375000 14.687500
v 27.187500 -24.375000 14.687500
# 48 vertices

vn -0.156406 0.987688 0.000000
vn 0.156406 -0.987688 0.000000
vn 0.987688 0.156406 0.000000
vn -0.087125 0.996188 0.000000
vn 0.087125 -0.996188 0.000000
vn -0.996188 -0.087125 0.000000
vn 0.996188 0.087125 0.000000
# 7 normals

# 0 texture coordinate

o PantsT
f 483/180/152 486/179/152 485/178/152 484/177/152
f 482/184/153 479/183/153 480/182/153 481/181/153
f 481/186/20 485/185/20 486/177/20 482/184/20
f 479/183/21 483/178/21 484/188/21 480/187/21
f 507/192/2 511/191/2 514/190/2 510/189/2
f 480/183/154 484/178/154 485/177/154 481/184/154
f 491/195/10 494/194/10 493/158/10 492/193/10
f 490/195/12 487/194/12 488/158/12 489/193/12
f 489/189/20 493/194/20 494/196/20 490/192/20
f 487/189/21 491/194/21 492/196/21 488/192/21
f 490/194/1 494/189/1 491/192/1 487/196/1
f 488/194/2 492/189/2 493/192/2 489/196/2
f 509/192/1 513/191/1 512/190/1 508/189/1
f 496/200/12 495/199/12 467/198/12 468/197/12
f 468/203/20 470/202/20 498/137/20 496/201/20
f 495/207/21 497/206/21 469/205/21 467/204/21
f 496/210/1 498/209/1 497/138/1 495/208/1
f 467/198/2 469/213/2 470/212/2 468/211/2
f 508/192/21 512/191/21 511/190/21 507/189/21
f 510/192/20 514/191/20 513/190/20 509/189/20
f 473/215/20 471/206/20 475/205/20 477/214/20
f 478/217/21 476/209/21 472/138/21 474/216/21
f 477/219/1 475/202/1 476/137/1 478/218/1
f 509/195/12 508/194/12 507/158/12 510/193/12
f 505/221/155 504/26/155 503/135/155 506/220/155
f 500/221/156 501/26/156 502/135/156 499/220/156
f 499/223/20 503/137/20 504/202/20 500/222/20
f 501/223/21 505/137/21 506/202/21 502/222/21
f 500/225/157 504/224/157 505/103/157 501/176/157
f 502/225/158 506/224/158 503/103/158 499/176/158
f 512/195/10 513/194/10 514/158/10 511/193/10

v 0.000000 -74.687500 12.500000
v 0.000000 -74.687500 18.750000
v 27.187500 -55.625000 14.687500
v -2.187500 -55.625000 14.687500
v -2.187500 -55.625000 -14.687500
v 27.187500 -55.625000 -14.687500
v 27.187500 -75.625000 14.687500
v -2.187500 -75.625000 14.687500
v -2.187500 -75.625000 -14.687500
v 27.187500 -75.625000 -14.687500
v 25.000000 -74.687500 12.500000
v 25.000000 -74.687500 18.750000
v 25.000000 -62.187500 12.500000
v 0.000000 -62.187500 12.500000
v 0.000000 -62.187500 18.750000
v 25.000000 -62.187500 18.750000
v 28.437500 -56.875000 -15.937500
v -3.437500 -56.875000 -15.937500
v -3.437500 -56.875000 15.937500
v 28.437500 -56.875000 15.937500
v 28.437500 -43.125000 -15.937500
v -3.437500 -43.125000 -15.937500
v -3.437500 -43.125000 15.937500
v 28.437500 -43.125000 15.937500
# 24 vertices

# 0 normal

# 0 texture coordinate

o BootT
f 526/227/12 516/226/12 515/31/12 525/32/12
f 516/229/20 526/146/20 530/228/20 529/230/20
f 525/232/21 515/132/21 528/146/21 527/231/21
f 515/229/1 516/234/1 529/233/1 528/230/1
f 521/229/12 522/146/12 523/31/12 524/32/12
f 526/235/2 525/146/2 527/228/2 530/236/2
f 522/229/20 521/146/20 517/226/20 518/227/20
f 520/232/10 519/132/10 518/146/10 517/231/10
f 524/227/21 523/226/21 519/146/21 520/229/21
f 523/226/1 522/227/1 518/229/1 519/146/1
f 521/226/2 524/227/2 520/229/2 517/146/2
f 535/229/10 536/146/10 537/31/10 538/32/10
f 534/229/12 533/146/12 532/31/12 531/32/12
f 533/165/20 534/238/20 538/237/20 537/239/20
f 531/241/21 532/164/21 536/240/21 535/242/21
f 532/166/1 533/143/1 537/243/1 536/244/1
f 534/166/2 531/143/2 535/243/2 538/244/2
f 527/229/10 528/146/10 529/245/10 530/246/10

v -48.125000 43.750000 -15.000000
v -53.931632 63.893942 -11.278540
v -45.625000 69.083464 -15.967758
v -35.625000 69.083464 -15.967758
v -35.625000 69.540474 -19.689806
v -45.625000 69.540474 -19.689806
v -45.625000 59.158002 -17.186451
v -35.625000 59.158002 -17.186451
v -35.625000 59.615012 -20.908499
v -45.625000 59.615012 -20.908499
v -40.673379 77.152194 -11.278540
v -41.058557 77.537372 -17.504757
v -54.316809 64.279120 -17.504757
v -40.723831 50.686142 -12.912710
v -27.465579 63.944394 -12.912710
v -27.850757 64.329571 -19.138927
v -41.109009 51.071319 -19.138927
v -64.664226 72.149850 -9.371296
v -40.549174 65.679374 -10.635112
v -40.734238 66.205536 -16.860175
v -64.849289 72.676012 -15.596358
v -67.939753 60.121722 -10.290575
v -43.824702 53.651246 -11.554391
v -44.009765 54.177409 -17.779453
v -68.124816 60.647885 -16.515637
v -47.911057 94.377836 -9.010955
v -36.218930 72.304146 -10.033883
v -36.282448 72.559878 -16.278326
v -47.974575 94.633568 -15.255398
v -58.959016 88.531773 -9.137992
v -47.266889 66.458083 -10.160920
v -47.330407 66.713815 -16.405363
v -59.022534 88.787505 -15.382435
v -45.853438 68.095810 15.383447
v -35.853438 68.095810 15.383447
v -35.853438 67.952317 19.130701
v -45.853438 67.952317 19.130701
v -45.853438 58.103134 15.000798
v -35.853438 58.103134 15.000798
v -35.853438 57.959641 18.748052
v -45.853438 57.959641 18.748052
v -54.160070 63.722091 9.925381
v -40.901817 76.810053 12.043516
v -41.286995 76.195585 18.251299
v -54.545247 63.107623 16.133164
v -40.952269 50.422858 9.428487
v -27.694017 63.510820 11.546622
v -28.079195 62.896352 17.754405
v -41.337447 49.808390 15.636270
v -64.892664 72.176660 9.361596
v -40.777612 65.587384 9.575458
v -40.962676 65.112274 15.804625
v -65.077727 71.701550 15.590763
v -68.168191 60.156159 8.347457
v -44.053140 53.566883 8.561319
v -44.238203 53.091773 14.790486
v -68.353254 59.681049 14.576624
v -48.139495 94.176716 12.557020
v -36.447368 72.223120 10.040323
v -36.510886 71.477957 16.245418
v -48.203013 93.431553 18.762115
v -59.187454 88.385445 11.748460
v -47.495327 66.431848 9.231763
v -47.558845 65.686685 15.436858
v -59.250972 87.640282 17.953554
v -24.113256 77.853148 -14.997350
v -29.986335 79.990774 -14.997350
v -30.545708 78.453908 16.209823
v -24.672630 76.316282 16.209823
v -30.517345 60.258058 -15.978649
v -36.390424 62.395684 -15.978649
v -36.949797 60.858818 15.228524
v -31.076719 58.721192 15.228524
v -23.750000 76.250000 13.750000
v -51.250000 76.250000 13.750000
v -51.250000 76.250000 -13.750000
v -23.750000 76.250000 -13.750000
v -23.750000 18.750000 13.750000
v -51.250000 18.750000 13.750000
v -51.250000 18.750000 -13.750000
v -23.750000 18.750000 -13.750000
v -46.990422 53.220927 12.500000
v -53.163474 54.198642 12.500000
v -53.163474 54.198642 -12.500000
v -46.990422 53.220927 -12.500000
v -49.923568 34.701771 12.500000
v -56.096620 35.679486 12.500000
v -56.096620 35.679486 -12.500000
v -49.923568 34.701771 -12.500000
v -30.376578 78.975362 -14.415431
v -47.881211 85.694761 -14.415431
v -48.857268 83.152045 16.715653
v -31.352635 76.432646 16.715653
v -41.532961 49.911991 -17.139048
v -59.037594 56.631390 -17.139048
v -60.013651 54.088674 13.992036
v -42.509018 47.369275 13.992036
v -48.125000 76.250000 -15.000000
v -26.875000 76.250000 -15.000000
v -26.875000 76.250000 -6.250000
v -48.125000 76.250000 -6.250000
v -26.875000 43.750000 -15.000000
v -26.875000 43.750000 -6.250000
v -48.125000 43.750000 -6.250000
v -40.351323 30.799244 12.812500
v -53.444351 29.883690 12.812500
v -53.444351 29.883690 -12.812500
v -40.351323 30.799244 -12.812500
v -51.700439 4.944589 12.812500
v -38.607411 5.860143 12.812500
v -38.607411 5.860143 -12.812500
v -51.700439 4.944589 -12.812500
v -53.664373 25.080168 3.942090
v -32.439488 23.149647 3.942090
v -32.439488 23.149647 -3.620410
v -53.664373 25.080168 -3.620410
v -56.155368 -2.306780 3.942090
v -34.930483 -4.237302 3.942090
v -34.930483 -4.237302 -3.620410
v -56.155368 -2.306780 -3.620410
v -53.438620 22.736145 -2.275052
v -34.227666 21.394287 -0.146841
v -33.419465 22.215369 -6.924618
v -52.630419 23.557228 -9.052828
v -54.817600 -2.024457 -5.439066
v -35.606646 -3.366315 -3.310856
v -34.798445 -2.545233 -10.088633
v -54.009399 -1.203375 -12.216843
v -53.438620 22.736145 2.275052
v -34.227666 21.394287 0.146841
v -33.419465 22.215369 6.924618
v -52.630419 23.557228 9.052828
v -54.817600 -2.024457 5.439066
v -35.606646 -3.366315 3.310856
v -34.798445 -2.545233 10.088633
v -54.009399 -1.203375 12.216843
# 136 vertices

vn 0.000000 0.121844 -0.992531
vn 0.000000 0.992531 0.121844
vn 0.262031 0.962250 0.073531
vn -0.262031 -0.962250 -0.073531
vn -0.704406 0.704406 0.087125
vn 0.704406 -0.704406 -0.087125
vn 0.000000 -0.992531 -0.121844
vn -0.061625 0.061625 -0.996188
vn 0.707094 0.707094 0.000000
vn -0.707094 -0.707094 0.000000
vn 0.883812 0.467656 0.010156
vn -0.883812 -0.467656 -0.010156
vn 0.010156 -0.040906 0.999094
vn -0.010156 0.040906 -0.999094
vn 0.467656 -0.882937 -0.040906
vn -0.467656 0.882937 0.040906
vn 0.029594 -0.084156 0.996000
vn -0.029594 0.084156 -0.996000
vn 0.964594 -0.258812 -0.050531
vn -0.964594 0.258812 0.050531
vn 0.000000 -0.038250 0.999250
vn 0.000000 0.999250 0.038250
vn 0.262031 0.961625 0.081125
vn -0.262031 -0.961625 -0.081125
vn -0.704406 0.709281 0.026500
vn 0.704406 -0.709281 -0.026500
vn 0.000000 -0.999250 -0.038250
vn -0.061625 -0.098312 0.993219
vn 0.707094 0.698000 0.112938
vn -0.707094 -0.698000 -0.112938
vn 0.883812 0.463281 0.064656
vn -0.883812 -0.463281 -0.064656
vn 0.010156 0.119219 -0.992813
vn -0.010156 -0.119219 0.992813
vn 0.467656 -0.878125 -0.100656
vn -0.467656 0.878125 0.100656
vn 0.029594 0.076000 -0.996656
vn -0.029594 -0.076000 0.996656
vn 0.964594 -0.263563 0.008531
vn -0.964594 0.263563 -0.008531
vn 0.017875 0.049156 -0.998625
vn 0.939687 -0.342000 0.000000
vn -0.939687 0.342000 0.000000
vn 0.341531 0.938375 0.052313
vn -0.341531 -0.938375 -0.052313
vn -0.017875 -0.049156 0.998625
vn 0.357000 0.930000 0.087125
vn -0.357000 -0.930000 -0.087125
vn -0.031219 -0.081344 0.996188
vn 0.031219 0.081344 -0.996188
vn 0.933563 -0.358344 0.000000
vn -0.933563 0.358344 0.000000
vn -0.069750 0.997563 0.000000
vn 0.069750 -0.997563 0.000000
vn 0.997563 0.069750 0.000000
vn -0.997563 -0.069750 0.000000
vn 0.090563 0.995875 0.000000
vn -0.090563 -0.995875 0.000000
vn 0.995875 -0.090563 0.000000
vn -0.995875 0.090563 0.000000
vn 0.055156 0.990406 0.126531
vn -0.055156 -0.990406 -0.126531
vn -0.117531 -0.119406 0.985844
vn 0.117531 0.119406 -0.985844
vn 0.991531 -0.069250 0.109812
vn -0.991531 0.069250 -0.109812
vn 0.055156 0.990406 -0.126531
vn -0.055156 -0.990406 0.126531
vn -0.117531 -0.119406 -0.985844
vn 0.117531 0.119406 0.985844
vn 0.991531 -0.069250 -0.109812
vn -0.991531 0.069250 0.109812
# 72 normals

vt 0.552632 -0.781250 0.000000
vt 0.447368 -0.781250 0.000000
vt 0.447368 -0.812500 0.000000
vt 0.552632 -0.812500 0.000000
vt 0.078947 -0.406250 0.000000
vt 0.026316 -0.406250 0.000000
vt 0.052632 -0.406250 0.000000
vt 0.578947 -0.781250 0.000000
vt 0.473684 -0.781250 0.000000
vt 0.473684 -0.843750 0.000000
vt 0.447368 -0.843750 0.000000
vt 0.552632 -0.750000 0.000000
vt 0.500000 -0.750000 0.000000
vt 0.500000 -0.781250 0.000000
vt 0.526316 -0.781250 0.000000
vt 0.421053 -0.781250 0.000000
vt 0.421053 -0.843750 0.000000
vt 0.473684 -0.750000 0.000000
vt 0.421053 -0.750000 0.000000
vt 0.657895 -0.562500 0.000000
vt 0.657895 -0.468750 0.000000
vt 0.631579 -0.468750 0.000000
vt 0.631579 -0.562500 0.000000
vt 0.578947 -0.406250 0.000000
vt 0.578947 -0.562500 0.000000
vt 0.631579 -0.406250 0.000000
vt 0.526316 -0.468750 0.000000
vt 0.315789 -0.843750 0.000000
vt 0.105263 -0.562500 0.000000
vt 0.000000 -0.562500 0.000000
vt 0.631579 -0.625000 0.000000
vt 0.526316 -0.656250 0.000000
vt 0.631579 -0.656250 0.000000
vt 0.552632 -0.656250 0.000000
vt 0.552631 -0.562500 0.000000
vt 0.526316 -0.562500 0.000000
vt 0.605263 -0.562500 0.000000
vt 0.605263 -0.656250 0.000000
vt 0.605263 -0.406250 0.000000
vt 0.736842 -0.406250 0.000000
vt 0.736842 -0.250000 0.000000
vt 0.526316 -0.750000 0.000000
vt 0.657895 -0.656250 0.000000
vt 0.631579 -0.750000 0.000000
vt 0.657895 -0.687500 0.000000
# 45 texture coordinates

o ArmO
f 547/58/2 543/93/2 542/94/2 546/60/2
f 545/54/1 541/92/1 544/93/1 548/58/1
f 548/60/159 544/94/159 543/92/159 547/54/159
f 544/54/160 541/53/160 542/95/160 543/60/160
f 556/247/161 557/248/161 558/249/161 559/250/161
f 563/247/162 562/248/162 561/249/162 560/250/162
f 551/130/163 540/1/163 549/7/163 550/126/163
f 552/251/164 555/121/164 554/128/164 553/51/164
f 545/95/165 548/60/165 547/54/165 546/53/165
f 555/251/166 551/1/166 550/7/166 554/51/166
f 554/252/167 550/8/167 549/7/167 553/51/167
f 552/251/168 540/1/168 551/123/168 555/253/168
f 564/247/169 565/248/169 566/249/169 567/250/169
f 571/247/170 570/248/170 569/249/170 568/250/170
f 565/254/171 564/255/171 568/256/171 569/109/171
f 567/247/172 566/248/172 570/257/172 571/114/172
f 566/146/173 565/146/173 569/146/173 570/146/173
f 564/247/174 567/258/174 571/259/174 568/260/174
f 557/261/175 556/262/175 560/263/175 561/116/175
f 559/261/176 558/262/176 562/263/176 563/116/176
f 558/146/177 557/146/177 561/146/177 562/146/177
f 556/255/178 559/264/178 563/265/178 560/262/178
f 578/94/2 577/93/2 573/58/2 574/60/2
f 576/93/1 579/92/1 575/54/1 572/58/1
f 579/92/179 578/94/179 574/60/179 575/54/179
f 575/95/180 574/53/180 573/54/180 572/60/180
f 588/249/181 591/248/181 590/247/181 589/250/181
f 595/249/182 592/248/182 593/247/182 594/250/182
f 583/7/183 582/1/183 581/130/183 580/126/183
f 584/128/184 585/121/184 586/251/184 587/51/184
f 576/54/185 577/60/185 578/95/185 579/53/185
f 587/7/186 586/1/186 582/251/186 583/51/186
f 586/7/187 585/8/187 581/252/187 582/51/187
f 584/123/188 587/1/188 583/251/188 580/253/188
f 596/249/189 599/248/189 598/247/189 597/250/189
f 603/249/190 600/248/190 601/247/190 602/250/190
f 597/256/191 601/255/191 600/254/191 596/109/191
f 599/257/192 603/248/192 602/247/192 598/114/192
f 598/146/193 602/146/193 601/146/193 597/146/193
f 596/259/194 600/258/194 603/247/194 599/260/194
f 589/263/195 593/262/195 592/261/195 588/116/195
f 591/263/196 595/262/196 594/261/196 590/116/196
f 590/146/197 594/146/197 593/146/197 589/146/197
f 588/265/198 592/264/198 595/255/198 591/262/198
f 609/266/199 605/267/199 604/268/199 608/269/199
f 608/222/200 604/270/200 607/271/200 611/266/200
f 610/271/201 606/266/201 605/222/201 609/270/201
f 605/266/202 606/222/202 607/272/202 604/269/202
f 610/266/203 609/222/203 608/272/203 611/269/203
f 611/266/204 607/267/204 606/268/204 610/269/204
f 551/130/163 540/1/163 549/7/163 550/126/163
f 552/251/164 555/121/164 554/128/164 553/51/164
f 545/95/165 548/60/165 547/54/165 546/53/165
f 555/251/166 551/1/166 550/7/166 554/51/166
f 554/252/167 550/8/167 549/7/167 553/51/167
f 552/251/168 540/1/168 551/123/168 555/253/168
f 564/247/169 565/248/169 566/249/169 567/250/169
f 571/247/170 570/248/170 569/249/170 568/250/170
f 565/254/171 564/255/171 568/256/171 569/109/171
f 567/247/172 566/248/172 570/257/172 571/114/172
f 566/146/173 565/146/173 569/146/173 570/146/173
f 564/247/174 567/258/174 571/259/174 568/260/174
f 614/33/10 613/32/10 612/31/10 615/34/10
f 617/177/12 618/273/12 619/68/12 616/178/12
f 616/274/20 612/40/20 613/39/20 617/263/20
f 618/194/21 614/275/21 615/76/21 619/158/21
f 619/196/2 615/276/2 612/275/2 616/194/2
f 617/158/1 613/76/1 614/40/1 618/274/1
f 547/58/2 543/93/2 542/94/2 546/60/2
f 625/277/146 626/180/146 627/278/146 624/279/146
f 624/280/20 620/281/20 621/282/20 625/278/20
f 626/279/21 622/269/21 623/283/21 627/284/21
f 545/54/1 541/92/1 544/93/1 548/58/1
f 625/279/147 621/269/147 622/282/147 626/278/147
f 629/271/205 630/270/205 631/222/205 628/266/205
f 634/266/206 633/222/206 632/270/206 635/271/206
f 635/271/207 631/270/207 630/222/207 634/266/207
f 633/270/208 629/271/208 628/266/208 632/222/208
f 632/46/209 628/285/209 631/286/209 635/287/209
f 634/285/210 630/46/210 629/287/210 633/286/210
f 636/280/10 639/278/10 638/288/10 637/258/10
f 642/289/12 539/279/12 640/290/12 641/203/12
f 548/60/159 544/94/159 543/92/159 547/54/159
f 539/289/21 636/278/21 637/288/21 640/203/21
f 640/289/2 637/278/2 638/181/2 641/291/2
f 642/97/1 639/184/1 636/288/1 539/203/1
f 644/227/211 643/246/211 646/245/211 645/226/211
f 650/5/212 649/4/212 648/1/212 647/8/212
f 643/1/20 644/8/20 647/5/20 648/4/20
f 645/2/21 646/123/21 649/59/21 650/3/21
f 544/54/160 541/53/160 542/95/160 543/60/160
f 556/247/161 557/248/161 558/249/161 559/250/161
f 563/247/162 562/248/162 561/249/162 560/250/162
f 557/261/175 556/262/175 560/263/175 561/116/175
f 559/261/176 558/262/176 562/263/176 563/116/176
f 558/146/177 557/146/177 561/146/177 562/146/177
f 556/255/178 559/264/178 563/265/178 560/262/178
f 646/229/213 643/146/213 648/31/213 649/32/213
f 644/229/214 645/146/214 650/31/214 647/32/214
f 651/5/215 652/131/215 653/126/215 654/6/215
f 658/4/216 657/130/216 656/124/216 655/59/216
f 652/5/20 651/3/20 655/2/20 656/8/20
f 654/5/21 653/3/21 657/2/21 658/8/21
f 653/8/217 652/7/217 656/6/217 657/5/217
f 651/123/218 654/8/218 658/5/218 655/59/218
f 659/5/219 660/131/219 661/126/219 662/6/219
f 666/4/220 665/130/220 664/124/220 663/59/220
f 660/5/221 659/3/221 663/2/221 664/8/221
f 662/5/222 661/3/222 665/2/222 666/8/222
f 661/8/223 660/7/223 664/6/223 665/5/223
f 659/123/224 662/8/224 666/5/224 663/59/224
f 667/126/225 670/131/225 669/5/225 668/6/225
f 674/124/226 671/130/226 672/4/226 673/59/226
f 668/2/227 672/3/227 671/5/227 667/8/227
f 670/2/228 674/3/228 673/5/228 669/8/228
f 669/6/229 673/7/229 672/8/229 668/5/229
f 667/5/230 671/8/230 674/123/230 670/59/230

v 54.316809 64.279120 -17.504757
v 45.625000 69.083464 -15.967758
v 35.625000 69.083464 -15.967758
v 35.625000 69.540474 -19.689806
v 45.625000 69.540474 -19.689806
v 45.625000 59.158002 -17.186451
v 35.625000 59.158002 -17.186451
v 35.625000 59.615012 -20.908499
v 45.625000 59.615012 -20.908499
v 53.931632 63.893942 -11.278540
v 40.673379 77.152194 -11.278540
v 41.058557 77.537372 -17.504757
v 40.723831 50.686142 -12.912710
v 27.465579 63.944394 -12.912710
v 27.850757 64.329571 -19.138927
v 41.109009 51.071319 -19.138927
v 64.664226 72.149850 -9.371296
v 40.549174 65.679374 -10.635112
v 40.734238 66.205536 -16.860175
v 64.849289 72.676012 -15.596358
v 67.939753 60.121722 -10.290575
v 43.824702 53.651246 -11.554391
v 44.009765 54.177409 -17.779453
v 68.124816 60.647885 -16.515637
v 47.911057 94.377836 -9.010955
v 36.218930 72.304146 -10.033883
v 36.282448 72.559878 -16.278326
v 47.974575 94.633568 -15.255398
v 58.959016 88.531773 -9.137992
v 47.266889 66.458083 -10.160920
v 47.330407 66.713815 -16.405363
v 59.022534 88.787505 -15.382435
v 45.853438 68.095810 15.383447
v 35.853438 68.095810 15.383447
v 35.853438 67.952317 19.130701
v 45.853438 67.952317 19.130701
v 45.853438 58.103134 15.000798
v 35.853438 58.103134 15.000798
v 35.853438 57.959641 18.748052
v 45.853438 57.959641 18.748052
v 54.160070 63.722091 9.925381
v 40.901817 76.810053 12.043516
v 41.286995 76.195585 18.251299
v 54.545247 63.107623 16.133164
v 40.952269 50.422858 9.428487
v 27.694017 63.510820 11.546622
v 28.079195 62.896352 17.754405
v 41.337447 49.808390 15.636270
v 64.892664 72.176660 9.361596
v 40.777612 65.587384 9.575458
v 40.962676 65.112274 15.804625
v 65.077727 71.701550 15.590763
v 68.168191 60.156159 8.347457
v 44.053140 53.566883 8.561319
v 44.238203 53.091773 14.790486
v 68.353254 59.681049 14.576624
v 48.139495 94.176716 12.557020
v 36.447368 72.223120 10.040323
v 36.510886 71.477957 16.245418
v 48.203013 93.431553 18.762115
v 59.187454 88.385445 11.748460
v 47.495327 66.431848 9.231763
v 47.558845 65.686685 15.436858
v 59.250972 87.640282 17.953554
v 24.113256 77.853148 -14.997350
v 29.986335 79.990774 -14.997350
v 30.545708 78.453908 16.209823
v 24.672630 76.316282 16.209823
v 30.517345 60.258058 -15.978649
v 36.390424 62.395684 -15.978649
v 36.949797 60.858818 15.228524
v 31.076719 58.721192 15.228524
v 23.750000 76.250000 13.750000
v 51.250000 76.250000 13.750000
v 51.250000 76.250000 -13.750000
v 23.750000 76.250000 -13.750000
v 23.750000 18.750000 13.750000
v 51.250000 18.750000 13.750000
v 51.250000 18.750000 -13.750000
v 23.750000 18.750000 -13.750000
v 46.990422 53.220927 12.500000
v 53.163474 54.198642 12.500000
v 53.163474 54.198642 -12.500000
v 46.990422 53.220927 -12.500000
v 49.923568 34.701771 12.500000
v 56.096620 35.679486 12.500000
v 56.096620 35.679486 -12.500000
v 49.923568 34.701771 -12.500000
v 30.376578 78.975362 -14.415431
v 47.881211 85.694761 -14.415431
v 48.857268 83.152045 16.715653
v 31.352635 76.432646 16.715653
v 41.532961 49.911991 -17.139048
v 59.037594 56.631390 -17.139048
v 60.013651 54.088674 13.992036
v 42.509018 47.369275 13.992036
v 48.125000 76.250000 -15.000000
v 26.875000 76.250000 -15.000000
v 26.875000 76.250000 -6.250000
v 48.125000 76.250000 -6.250000
v 48.125000 43.750000 -15.000000
v 26.875000 43.750000 -15.000000
v 26.875000 43.750000 -6.250000
v 48.125000 43.750000 -6.250000
v 40.351323 30.799244 12.812500
v 53.444351 29.883690 12.812500
v 53.444351 29.883690 -12.812500
v 40.351323 30.799244 -12.812500
v 51.700439 4.944589 12.812500
v 38.607411 5.860143 12.812500
v 38.607411 5.860143 -12.812500
v 51.700439 4.944589 -12.812500
v 53.664373 25.080168 3.942090
v 32.439488 23.149647 3.942090
v 32.439488 23.149647 -3.620410
v 53.664373 25.080168 -3.620410
v 56.155368 -2.306780 3.942090
v 34.930483 -4.237302 3.942090
v 34.930483 -4.237302 -3.620410
v 56.155368 -2.306780 -3.620410
v 53.438620 22.736145 -2.275052
v 34.227666 21.394287 -0.146841
v 33.419465 22.215369 -6.924618
v 52.630419 23.557228 -9.052828
v 54.817600 -2.024457 -5.439066
v 35.606646 -3.366315 -3.310856
v 34.798445 -2.545233 -10.088633
v 54.009399 -1.203375 -12.216843
v 53.438620 22.736145 2.275052
v 34.227666 21.394287 0.146841
v 33.419465 22.215369 6.924618
v 52.630419 23.557228 9.052828
v 54.817600 -2.024457 5.439066
v 35.606646 -3.366315 3.310856
v 34.798445 -2.545233 10.088633
v 54.009399 -1.203375 12.216843
# 136 vertices

vn -0.262031 0.962250 0.073531
vn 0.262031 -0.962250 -0.073531
vn 0.704406 0.704406 0.087125
vn -0.704406 -0.704406 -0.087125
vn 0.061625 0.061625 -0.996188
vn -0.707094 0.707094 0.000000
vn -0.883812 0.467656 0.010156
vn 0.883812 -0.467656 -0.010156
vn -0.010156 -0.040906 0.999094
vn 0.010156 0.040906 -0.999094
vn -0.467656 -0.882937 -0.040906
vn 0.467656 0.882937 0.040906
vn -0.029594 -0.084156 0.996000
vn 0.029594 0.084156 -0.996000
vn -0.964594 -0.258812 -0.050531
vn 0.964594 0.258812 0.050531
vn -0.262031 0.961625 0.081125
vn 0.262031 -0.961625 -0.081125
vn 0.704406 0.709281 0.026500
vn -0.704406 -0.709281 -0.026500
vn 0.061625 -0.098312 0.993219
vn -0.707094 0.698000 0.112938
vn 0.707094 -0.698000 -0.112938
vn -0.883812 0.463281 0.064656
vn 0.883812 -0.463281 -0.064656
vn -0.010156 0.119219 -0.992813
vn 0.010156 -0.119219 0.992813
vn -0.467656 -0.878125 -0.100656
vn 0.467656 0.878125 0.100656
vn -0.029594 0.076000 -0.996656
vn 0.029594 -0.076000 0.996656
vn -0.964594 -0.263563 0.008531
vn 0.964594 0.263563 -0.008531
vn -0.017875 0.049156 -0.998625
vn -0.939687 -0.342000 0.000000
vn 0.939687 0.342000 0.000000
vn -0.341531 0.938375 0.052313
vn 0.341531 -0.938375 -0.052313
vn 0.017875 -0.049156 0.998625
vn -0.357000 0.930000 0.087125
vn 0.357000 -0.930000 -0.087125
vn 0.031219 -0.081344 0.996188
vn -0.031219 0.081344 -0.996188
vn -0.933563 -0.358344 0.000000
vn 0.933563 0.358344 0.000000
vn 0.069750 0.997563 0.000000
vn -0.069750 -0.997563 0.000000
vn -0.997563 0.069750 0.000000
vn 0.997563 -0.069750 0.000000
vn -0.090563 0.995875 0.000000
vn 0.090563 -0.995875 0.000000
vn -0.995875 -0.090563 0.000000
vn 0.995875 0.090563 0.000000
vn -0.055156 0.990406 0.126531
vn 0.055156 -0.990406 -0.126531
vn 0.117531 -0.119406 0.985844
vn -0.117531 0.119406 -0.985844
vn -0.991531 -0.069250 0.109812
vn 0.991531 0.069250 -0.109812
vn -0.055156 0.990406 -0.126531
vn 0.055156 -0.990406 0.126531
vn 0.117531 -0.119406 -0.985844
vn -0.117531 0.119406 0.985844
vn -0.991531 -0.069250 -0.109812
vn 0.991531 0.069250 0.109812
# 65 normals

# 0 texture coordinate

o ArmT
f 681/60/1 677/94/1 678/93/1 682/58/1
f 683/58/2 679/93/2 676/92/2 680/54/2
f 682/54/159 678/92/159 679/94/159 683/60/159
f 678/60/160 677/95/160 676/53/160 679/54/160
f 694/250/231 693/249/231 692/248/231 691/247/231
f 695/250/232 696/249/232 697/248/232 698/247/232
f 686/126/233 685/7/233 684/1/233 675/130/233
f 688/51/234 689/128/234 690/121/234 687/251/234
f 681/53/165 682/54/165 683/60/165 680/95/165
f 689/51/235 686/7/235 675/1/235 690/251/235
f 688/51/236 685/7/236 686/8/236 689/252/236
f 690/253/24 675/123/24 684/1/24 687/251/24
f 702/250/237 701/249/237 700/248/237 699/247/237
f 703/250/238 704/249/238 705/248/238 706/247/238
f 704/109/239 703/256/239 699/255/239 700/254/239
f 706/114/240 705/257/240 701/248/240 702/247/240
f 705/146/241 704/146/241 700/146/241 701/146/241
f 703/260/242 706/259/242 702/258/242 699/247/242
f 696/116/243 695/263/243 691/262/243 692/261/243
f 698/116/244 697/263/244 693/262/244 694/261/244
f 697/146/245 696/146/245 692/146/245 693/146/245
f 695/262/246 698/265/246 694/264/246 691/255/246
f 709/60/1 708/58/1 712/93/1 713/94/1
f 707/58/2 710/54/2 714/92/2 711/93/2
f 710/54/179 709/60/179 713/94/179 714/92/179
f 707/60/180 708/54/180 709/53/180 710/95/180
f 724/250/247 725/247/247 726/248/247 723/249/247
f 729/250/248 728/247/248 727/248/248 730/249/248
f 715/126/249 716/130/249 717/1/249 718/7/249
f 722/51/250 721/251/250 720/121/250 719/128/250
f 714/53/185 713/95/185 712/60/185 711/54/185
f 718/51/251 717/251/251 721/1/251 722/7/251
f 717/51/252 716/252/252 720/8/252 721/7/252
f 715/253/253 718/251/253 722/1/253 719/123/253
f 732/250/254 733/247/254 734/248/254 731/249/254
f 737/250/255 736/247/255 735/248/255 738/249/255
f 731/109/256 735/254/256 736/255/256 732/256/256
f 733/114/257 737/247/257 738/248/257 734/257/257
f 732/146/258 736/146/258 737/146/258 733/146/258
f 734/260/259 738/247/259 735/258/259 731/259/259
f 723/116/260 727/261/260 728/262/260 724/263/260
f 725/116/261 729/261/261 730/262/261 726/263/261
f 724/146/262 728/146/262 729/146/262 725/146/262
f 726/262/263 730/255/263 727/264/263 723/265/263
f 743/269/264 739/268/264 740/267/264 744/266/264
f 746/266/265 742/271/265 739/270/265 743/222/265
f 744/270/266 740/222/266 741/266/266 745/271/266
f 739/269/267 742/272/267 741/222/267 740/266/267
f 746/269/268 743/272/268 744/222/268 745/266/268
f 745/269/269 741/268/269 742/267/269 746/266/269
f 686/126/233 685/7/233 684/1/233 675/130/233
f 688/51/234 689/128/234 690/121/234 687/251/234
f 681/53/165 682/54/165 683/60/165 680/95/165
f 689/51/235 686/7/235 675/1/235 690/251/235
f 688/51/236 685/7/236 686/8/236 689/252/236
f 690/253/24 675/123/24 684/1/24 687/251/24
f 702/250/237 701/249/237 700/248/237 699/247/237
f 703/250/238 704/249/238 705/248/238 706/247/238
f 704/109/239 703/256/239 699/255/239 700/254/239
f 706/114/240 705/257/240 701/248/240 702/247/240
f 705/146/241 704/146/241 700/146/241 701/146/241
f 703/260/242 706/259/242 702/258/242 699/247/242
f 750/34/10 747/31/10 748/32/10 749/33/10
f 751/178/12 754/68/12 753/273/12 752/177/12
f 752/263/20 748/39/20 747/40/20 751/274/20
f 754/158/21 750/76/21 749/275/21 753/194/21
f 751/194/1 747/275/1 750/276/1 754/196/1
f 753/274/2 749/40/2 748/76/2 752/158/2
f 681/60/1 677/94/1 678/93/1 682/58/1
f 759/279/153 762/278/153 761/180/153 760/277/153
f 760/278/20 756/282/20 755/281/20 759/280/20
f 762/284/21 758/283/21 757/269/21 761/279/21
f 683/58/2 679/93/2 676/92/2 680/54/2
f 761/278/154 757/282/154 756/269/154 760/279/154
f 763/266/270 766/222/270 765/270/270 764/271/270
f 770/271/271 767/270/271 768/222/271 769/266/271
f 769/266/272 765/222/272 766/270/272 770/271/272
f 767/222/273 763/266/273 764/271/273 768/270/273
f 770/287/274 766/286/274 763/285/274 767/46/274
f 768/286/275 764/287/275 765/46/275 769/285/275
f 772/258/10 773/288/10 774/278/10 771/280/10
f 777/203/12 776/290/12 775/279/12 778/289/12
f 682/54/159 678/92/159 679/94/159 683/60/159
f 776/203/21 772/288/21 771/278/21 775/289/21
f 777/291/1 773/181/1 772/278/1 776/289/1
f 775/203/2 771/288/2 774/184/2 778/97/2
f 781/226/276 782/245/276 779/246/276 780/227/276
f 783/8/277 784/1/277 785/4/277 786/5/277
f 784/4/20 783/5/20 780/8/20 779/1/20
f 786/3/21 785/59/21 782/123/21 781/2/21
f 678/60/160 677/95/160 676/53/160 679/54/160
f 694/250/231 693/249/231 692/248/231 691/247/231
f 695/250/232 696/249/232 697/248/232 698/247/232
f 696/116/243 695/263/243 691/262/243 692/261/243
f 698/116/244 697/263/244 693/262/244 694/261/244
f 697/146/245 696/146/245 692/146/245 693/146/245
f 695/262/246 698/265/246 694/264/246 691/255/246
f 785/32/278 784/31/278 779/146/278 782/229/278
f 783/32/279 786/31/279 781/146/279 780/229/279
f 790/6/280 789/126/280 788/131/280 787/5/280
f 791/59/281 792/124/281 793/130/281 794/4/281
f 792/8/20 791/2/20 787/3/20 788/5/20
f 794/8/21 793/2/21 789/3/21 790/5/21
f 793/5/282 792/6/282 788/7/282 789/8/282
f 791/59/283 794/5/283 790/8/283 787/123/283
f 798/6/284 797/126/284 796/131/284 795/5/284
f 799/59/285 800/124/285 801/130/285 802/4/285
f 800/8/286 799/2/286 795/3/286 796/5/286
f 802/8/287 801/2/287 797/3/287 798/5/287
f 801/5/288 800/6/288 796/7/288 797/8/288
f 799/59/289 802/5/289 798/8/289 795/123/289
f 804/6/290 805/5/290 806/131/290 803/126/290
f 809/59/291 808/4/291 807/130/291 810/124/291
f 803/8/292 807/5/292 808/3/292 804/2/292
f 805/8/293 809/5/293 810/3/293 806/2/293
f 804/5/294 808/8/294 809/7/294 805/6/294
f 806/59/295 810/123/295 807/8/295 803/5/295

