# Made in Blockbench 4.8.1
mtllib lamp.mtl

o palki
v -0.375 0.8125 -0.12499999999999996
v -0.375 0.8125 0.12500000000000006
v -0.375 0.125 -0.12499999999999996
v -0.375 0.125 0.12500000000000006
v -0.25 0.8125 -0.12499999999999997
v -0.24999999999999997 0.8125 0.12500000000000003
v -0.25 0.125 -0.12499999999999997
v -0.24999999999999997 0.125 0.12500000000000003
v -0.25 0.25 -0.12499999999999997
v -0.24999999999999997 0.25 0.12500000000000003
v -0.375 0.25 0.12500000000000006
v -0.375 0.25 -0.12499999999999996
v 0.375 0.125 -0.12500000000000006
v 0.375 0.25 -0.12500000000000006
v 0.375 0.25 0.12499999999999996
v 0.375 0.125 0.12499999999999996
v 0.24999999999999997 0.25 -0.12500000000000003
v 0.25 0.25 0.12499999999999997
v 0.25 0.125 0.12499999999999997
v 0.24999999999999997 0.125 -0.12500000000000003
v 0.375 0.8125 -0.12500000000000006
v 0.24999999999999997 0.8125 -0.12500000000000003
v 0.25 0.8125 0.12499999999999997
v 0.375 0.8125 0.12499999999999996
vt 0.2826086956521739 0.31818181818181823
vt 0.2826086956521739 0.11363636363636365
vt 0.3695652173913043 0.11363636363636365
vt 0.3695652173913043 0.31818181818181823
vt 0.5434782608695652 0.31818181818181823
vt 0.5434782608695652 0.11363636363636365
vt 0.6304347826086957 0.11363636363636365
vt 0.6304347826086957 0.31818181818181823
vt 0.8695652173913043 0.43181818181818177
vt 0.8695652173913043 0.5227272727272727
vt 0.8260869565217391 0.5227272727272727
vt 0.8260869565217391 0.43181818181818177
vt 0.8695652173913043 0.34090909090909094
vt 0.8695652173913043 0.43181818181818177
vt 0.8260869565217391 0.43181818181818177
vt 0.8260869565217391 0.34090909090909094
vt 0.5217391304347826 1
vt 0.5217391304347826 0.7954545454545454
vt 0.5652173913043478 0.7954545454545454
vt 0.5652173913043478 1
vt 0.30434782608695654 0.75
vt 0.30434782608695654 0.5454545454545454
vt 0.34782608695652173 0.5454545454545454
vt 0.34782608695652173 0.75
vt 0.7391304347826086 0.2272727272727273
vt 0.7391304347826086 0.2727272727272727
vt 0.6521739130434783 0.2727272727272727
vt 0.6521739130434783 0.2272727272727273
vt 0.34782608695652173 0.5
vt 0.34782608695652173 0.5454545454545454
vt 0.30434782608695654 0.5454545454545454
vt 0.30434782608695654 0.5
vt 0.7391304347826086 0.2727272727272727
vt 0.7391304347826086 0.31818181818181823
vt 0.6521739130434783 0.31818181818181823
vt 0.6521739130434783 0.2727272727272727
vt 0.5652173913043478 0.75
vt 0.5652173913043478 0.7954545454545454
vt 0.5217391304347826 0.7954545454545454
vt 0.5217391304347826 0.75
vt 0.5217391304347826 0.7954545454545454
vt 0.34782608695652173 0.7954545454545454
vt 0.34782608695652173 0.75
vt 0.5217391304347826 0.75
vt 0.782608695652174 0.5227272727272727
vt 0.6086956521739131 0.5227272727272727
vt 0.6086956521739131 0.43181818181818177
vt 0.782608695652174 0.43181818181818177
vt 0.34782608695652173 0.5
vt 0.5217391304347826 0.5
vt 0.5217391304347826 0.5454545454545454
vt 0.34782608695652173 0.5454545454545454
vt 0.8260869565217391 0.43181818181818177
vt 0.6521739130434783 0.43181818181818177
vt 0.6521739130434783 0.34090909090909094
vt 0.8260869565217391 0.34090909090909094
vt 0.782608695652174 0.43181818181818177
vt 0.8260869565217391 0.43181818181818177
vt 0.8260869565217391 0.5227272727272727
vt 0.782608695652174 0.5227272727272727
vt 0.5652173913043478 0.5454545454545454
vt 0.5217391304347826 0.5454545454545454
vt 0.5217391304347826 0.5
vt 0.5652173913043478 0.5
vt 0.6086956521739131 0.34090909090909094
vt 0.6521739130434783 0.34090909090909094
vt 0.6521739130434783 0.43181818181818177
vt 0.6086956521739131 0.43181818181818177
vt 0.30434782608695654 0.75
vt 0.34782608695652173 0.75
vt 0.34782608695652173 0.7954545454545454
vt 0.30434782608695654 0.7954545454545454
vt 0.34782608695652173 1
vt 0.30434782608695654 1
vt 0.30434782608695654 0.7954545454545454
vt 0.34782608695652173 0.7954545454545454
vt 0.5434782608695652 0.31818181818181823
vt 0.45652173913043476 0.31818181818181823
vt 0.45652173913043476 0.11363636363636365
vt 0.5434782608695652 0.11363636363636365
vt 0.5652173913043478 0.75
vt 0.5217391304347826 0.75
vt 0.5217391304347826 0.5454545454545454
vt 0.5652173913043478 0.5454545454545454
vt 0.45652173913043476 0.31818181818181823
vt 0.3695652173913043 0.31818181818181823
vt 0.3695652173913043 0.11363636363636365
vt 0.45652173913043476 0.11363636363636365
vn -1 0 1.2246467991473532e-16
vn 1 0 -1.2246467991473532e-16
vn 0 1 0
vn 0 -1 0
vn -1.2246467991473532e-16 0 -1
vn 1.2246467991473532e-16 0 1
vn 1 0 -1.2246467991473532e-16
vn 1.2246467991473532e-16 0 1
vn -1 0 1.2246467991473532e-16
vn -1.2246467991473532e-16 0 -1
vn -1.2246467991473532e-16 0 -1
vn 0 1 0
vn 1.2246467991473532e-16 0 1
vn 0 -1 0
vn 0 1 0
vn 1.2246467991473532e-16 0 1
vn 0 -1 0
vn -1.2246467991473532e-16 0 -1
vn -1.2246467991473532e-16 0 -1
vn -1 0 1.2246467991473532e-16
vn 1.2246467991473532e-16 0 1
vn 1 0 -1.2246467991473532e-16
usemtl m_dbfac155-21cb-0eae-d143-e0735df857d3
f 1/1/1 12/2/1 11/3/1 2/4/1
f 6/5/2 10/6/2 9/7/2 5/8/2
f 1/9/3 2/10/3 6/11/3 5/12/3
f 4/13/4 3/14/4 7/15/4 8/16/4
f 5/17/5 9/18/5 12/19/5 1/20/5
f 2/21/6 11/22/6 10/23/6 6/24/6
f 13/25/7 14/26/7 15/27/7 16/28/7
f 8/29/8 10/30/8 11/31/8 4/32/8
f 4/33/9 11/34/9 12/35/9 3/36/9
f 3/37/10 12/38/10 9/39/10 7/40/10
f 9/41/11 17/42/11 20/43/11 7/44/11
f 10/45/12 18/46/12 17/47/12 9/48/12
f 8/49/13 19/50/13 18/51/13 10/52/13
f 7/53/14 20/54/14 19/55/14 8/56/14
f 21/57/15 22/58/15 23/59/15 24/60/15
f 15/61/16 18/62/16 19/63/16 16/64/16
f 16/65/17 19/66/17 20/67/17 13/68/17
f 13/69/18 20/70/18 17/71/18 14/72/18
f 22/73/19 21/74/19 14/75/19 17/76/19
f 23/77/20 22/78/20 17/79/20 18/80/20
f 24/81/21 23/82/21 18/83/21 15/84/21
f 21/85/22 24/86/22 15/87/22 14/88/22
o head
v -0.25000000000000006 1 -0.43749999999999994
v -0.24999999999999994 1 0.37500000000000006
v -0.25000000000000006 0.5 -0.43749999999999994
v -0.24999999999999994 0.5 0.37500000000000006
v 0.24999999999999994 1 -0.43750000000000006
v 0.25000000000000006 1 0.37499999999999994
v 0.24999999999999994 0.5 -0.43750000000000006
v 0.25000000000000006 0.5 0.37499999999999994
v 0.18750000000000006 0.9375 0.375
v -0.18749999999999994 0.9375 0.375
v 0.18750000000000006 0.5625 0.375
v -0.18749999999999994 0.5625 0.375
v 0.18750000000000006 0.9375 0.4375
v -0.18749999999999994 0.9375 0.4375
v 0.18750000000000006 0.5625 0.4375
v -0.18749999999999994 0.5625 0.4375
v -0.18750000000000006 0.9375 -0.4375
v 0.18749999999999994 0.9375 -0.4375
v -0.18750000000000006 0.5625 -0.4375
v 0.18749999999999994 0.5625 -0.4375
v -0.18750000000000003 0.9375 -0.3125
v 0.18749999999999997 0.9375 -0.3125
v -0.18750000000000003 0.5625 -0.3125
v 0.18749999999999997 0.5625 -0.3125
vt 0.2826086956521739 0.18181818181818177
vt 0.2826086956521739 0.36363636363636365
vt 0 0.36363636363636365
vt 0 0.18181818181818177
vt 0.8478260869565217 0.8181818181818181
vt 0.8478260869565217 1
vt 0.5652173913043478 1
vt 0.5652173913043478 0.8181818181818181
vt 0.7391304347826086 0.5227272727272727
vt 0.7391304347826086 0.8181818181818181
vt 0.5652173913043478 0.8181818181818181
vt 0.5652173913043478 0.5227272727272727
vt 0.9130434782608695 0.5227272727272727
vt 0.9130434782608695 0.8181818181818181
vt 0.7391304347826086 0.8181818181818181
vt 0.7391304347826086 0.5227272727272727
vt 0.5 0.8181818181818181
vt 0.5 0.9545454545454546
vt 0.3695652173913043 0.9545454545454546
vt 0.3695652173913043 0.8181818181818181
vt 0.5 0.5681818181818181
vt 0.5 0.7045454545454546
vt 0.3695652173913043 0.7045454545454546
vt 0.3695652173913043 0.5681818181818181
vt 0.5 0.7045454545454546
vt 0.5 0.5681818181818181
vt 0.5217391304347826 0.5454545454545454
vt 0.5217391304347826 0.7272727272727273
vt 0.3695652173913043 0.7045454545454546
vt 0.5 0.7045454545454546
vt 0.5217391304347826 0.7272727272727273
vt 0.34782608695652173 0.7272727272727273
vt 0.3695652173913043 0.5681818181818181
vt 0.3695652173913043 0.7045454545454546
vt 0.34782608695652173 0.7272727272727273
vt 0.34782608695652173 0.5454545454545454
vt 0.5 0.5681818181818181
vt 0.3695652173913043 0.5681818181818181
vt 0.34782608695652173 0.5454545454545454
vt 0.5217391304347826 0.5454545454545454
vt 0.7391304347826086 0.31818181818181823
vt 0.7391304347826086 0.18181818181818177
vt 0.7608695652173914 0.18181818181818177
vt 0.7608695652173914 0.31818181818181823
vt 0.7608695652173914 0.18181818181818177
vt 0.6304347826086957 0.18181818181818177
vt 0.6304347826086957 0.15909090909090906
vt 0.7608695652173914 0.15909090909090906
vt 0.6521739130434783 0.18181818181818177
vt 0.6521739130434783 0.31818181818181823
vt 0.6304347826086957 0.31818181818181823
vt 0.6304347826086957 0.18181818181818177
vt 0.6304347826086957 0.31818181818181823
vt 0.7608695652173914 0.31818181818181823
vt 0.7608695652173914 0.34090909090909094
vt 0.6304347826086957 0.34090909090909094
vt 0.5 0.9545454545454546
vt 0.5 0.8181818181818181
vt 0.5217391304347826 0.7954545454545454
vt 0.5217391304347826 0.9772727272727273
vt 0.3695652173913043 0.9545454545454546
vt 0.5 0.9545454545454546
vt 0.5217391304347826 0.9772727272727273
vt 0.34782608695652173 0.9772727272727273
vt 0.3695652173913043 0.8181818181818181
vt 0.3695652173913043 0.9545454545454546
vt 0.34782608695652173 0.9772727272727273
vt 0.34782608695652173 0.7954545454545454
vt 0.5 0.8181818181818181
vt 0.3695652173913043 0.8181818181818181
vt 0.34782608695652173 0.7954545454545454
vt 0.5217391304347826 0.7954545454545454
vt 0.8478260869565217 0.2954545454545454
vt 0.8478260869565217 0.15909090909090906
vt 0.8913043478260869 0.15909090909090906
vt 0.8913043478260869 0.2954545454545454
vt 0.7608695652173914 0.2954545454545454
vt 0.8913043478260869 0.2954545454545454
vt 0.8913043478260869 0.34090909090909094
vt 0.7608695652173914 0.34090909090909094
vt 0.8043478260869565 0.15909090909090906
vt 0.8043478260869565 0.2954545454545454
vt 0.7608695652173914 0.2954545454545454
vt 0.7608695652173914 0.15909090909090906
vt 0.8913043478260869 0.15909090909090906
vt 0.7608695652173914 0.15909090909090906
vt 0.7608695652173914 0.11363636363636365
vt 0.8913043478260869 0.11363636363636365
vn -1 0 1.2246467991473532e-16
vn 1 0 -1.2246467991473532e-16
vn 0 1 0
vn 0 -1 0
vn -1.2246467991473532e-16 0 -1
vn 1.2246467991473532e-16 0 1
vn 1.2246467991473532e-16 0 1
vn 1.2246467991473532e-16 0 1
vn 1.2246467991473532e-16 0 1
vn 1.2246467991473532e-16 0 1
vn 1 0 -1.2246467991473532e-16
vn 0 1 0
vn -1 0 1.2246467991473532e-16
vn 0 -1 0
vn -1.2246467991473532e-16 0 -1
vn -1.2246467991473532e-16 0 -1
vn -1.2246467991473532e-16 0 -1
vn -1.2246467991473532e-16 0 -1
vn 1 0 -1.2246467991473532e-16
vn 0 -1 0
vn -1 0 1.2246467991473532e-16
vn 0 1 0
usemtl m_dbfac155-21cb-0eae-d143-e0735df857d3
f 28/89/23 26/90/23 25/91/23 27/92/23
f 31/93/24 29/94/24 30/95/24 32/96/24
f 25/97/25 26/98/25 30/99/25 29/100/25
f 28/101/26 27/102/26 31/103/26 32/104/26
f 47/105/27 45/106/27 46/107/27 48/108/27
f 39/109/28 37/110/28 38/111/28 40/112/28
f 33/113/29 35/114/29 32/115/29 30/116/29
f 34/117/30 33/118/30 30/119/30 26/120/30
f 36/121/31 34/122/31 26/123/31 28/124/31
f 35/125/32 36/126/32 28/127/32 32/128/32
f 37/129/33 39/130/33 35/131/33 33/132/33
f 38/133/34 37/134/34 33/135/34 34/136/34
f 40/137/35 38/138/35 34/139/35 36/140/35
f 39/141/36 40/142/36 36/143/36 35/144/36
f 41/145/37 43/146/37 27/147/37 25/148/37
f 42/149/38 41/150/38 25/151/38 29/152/38
f 44/153/39 42/154/39 29/155/39 31/156/39
f 43/157/40 44/158/40 31/159/40 27/160/40
f 45/161/41 47/162/41 43/163/41 41/164/41
f 46/165/42 45/166/42 41/167/42 42/168/42
f 48/169/43 46/170/43 42/171/43 44/172/43
f 47/173/44 48/174/44 44/175/44 43/176/44
o platform
v -0.43750000000000006 0.125 -0.43749999999999994
v -0.43749999999999994 0.125 0.4375
v -0.43750000000000006 0 -0.43749999999999994
v -0.43749999999999994 0 0.4375
v 0.4375 0.125 0.4375
v 0.4375 0.125 -0.43750000000000006
v 0.4375 0 0.4375
v 0.4375 0 -0.43750000000000006
vt 0.30434782608695654 0.40909090909090906
vt 0.6086956521739131 0.40909090909090906
vt 0.6086956521739131 0.36363636363636365
vt 0.30434782608695654 0.36363636363636365
vt 0.30434782608695654 0.36363636363636365
vt 0.6086956521739131 0.36363636363636365
vt 0.6086956521739131 0.31818181818181823
vt 0.30434782608695654 0.31818181818181823
vt 0.30434782608695654 0.5
vt 0.6086956521739131 0.5
vt 0.6086956521739131 0.4545454545454546
vt 0.30434782608695654 0.4545454545454546
vt 0.30434782608695654 0.4545454545454546
vt 0.6086956521739131 0.4545454545454546
vt 0.6086956521739131 0.40909090909090906
vt 0.30434782608695654 0.40909090909090906
vt 0.30434782608695654 0.6818181818181819
vt 0 0.6818181818181819
vt 0 1
vt 0.30434782608695654 1
vt 0.30434782608695654 0.6818181818181819
vt 0 0.6818181818181819
vt 0 0.36363636363636365
vt 0.30434782608695654 0.36363636363636365
vn 1.2246467991473532e-16 0 1
vn -1 0 1.2246467991473532e-16
vn -1.2246467991473532e-16 0 -1
vn 1 0 -1.2246467991473532e-16
vn 0 1 0
vn 0 -1 0
usemtl m_dbfac155-21cb-0eae-d143-e0735df857d3
f 52/180/45 55/179/45 53/178/45 50/177/45
f 51/184/46 52/183/46 50/182/46 49/181/46
f 56/188/47 51/187/47 49/186/47 54/185/47
f 55/192/48 56/191/48 54/190/48 53/189/48
f 54/196/49 49/195/49 50/194/49 53/193/49
f 55/200/50 52/199/50 51/198/50 56/197/50