# WaveFront *.obj file (generated by Cinema 4D)

v 0.222922 0.912923 0.152078
v 0.211614 0.822231 -0.211614
v 0.011308 0.090692 0.363692
v 0.000000 0.000000 0.000000
v -0.152078 0.912923 -0.222922
v -0.140771 1.003615 0.140771
v -0.363692 0.090692 -0.011308
v -0.352385 0.181384 0.352385
v 0.211614 0.822231 0.211614
v 0.222922 0.912923 -0.152078
v 0.000000 0.000000 0.000000
v 0.011308 0.090692 -0.363692
v -0.140771 1.003615 -0.140771
v -0.152078 0.912923 0.222922
v -0.352385 0.181384 -0.352385
v -0.363692 0.090692 0.011308
v 0.152078 0.912923 0.222922
v 0.140771 1.003615 -0.140771
v 0.363692 0.090692 0.011308
v 0.352385 0.181384 -0.352385
v -0.222922 0.912923 -0.152078
v -0.211614 0.822231 0.211614
v -0.011308 0.090692 -0.363692
v 0.000000 0.000000 0.000000
v 0.140771 1.003615 0.140771
v 0.152078 0.912923 -0.222922
v 0.352385 0.181384 0.352385
v 0.363692 0.090692 -0.011308
v -0.211614 0.822231 -0.211614
v -0.222922 0.912923 0.152078
v 0.000000 0.000000 0.000000
v -0.011308 0.090692 0.363692
v -0.187500 -0.250000 -0.187500
v 0.106725 0.510722 -0.400033
v 0.000000 -0.062500 0.000000
v 0.016752 0.027473 -0.491553
v -0.384828 0.602241 -0.400033
v -0.401579 0.512268 0.091520
v -0.474801 0.118993 -0.491553
v -0.491553 0.029020 0.000000
v 0.401579 0.512268 0.091520
v 0.384828 0.602241 -0.400033
v 0.491553 0.029020 0.000000
v 0.474801 0.118993 -0.491553
v -0.106725 0.510722 -0.400033
v -0.187500 -0.250000 0.187500
v -0.016752 0.027473 -0.491553
v 0.000000 -0.062500 0.000000
v 0.384828 0.602241 0.400033
v 0.401579 0.512268 -0.091520
v 0.474801 0.118993 0.491553
v 0.491553 0.029020 0.000000
v -0.187500 0.000000 -0.187500
v -0.106725 0.510722 0.400033
v 0.000000 -0.062500 0.000000
v -0.016752 0.027473 0.491553
v 0.106725 0.510722 0.400033
v -0.187500 0.000000 0.187500
v 0.016752 0.027473 0.491553
v 0.000000 -0.062500 0.000000
v -0.401579 0.512268 -0.091520
v -0.384828 0.602241 0.400033
v -0.491553 0.029020 0.000000
v -0.474801 0.118993 0.491553
v 0.375000 0.554050 -0.451592
v -0.375000 0.554050 -0.451592
v 0.375000 0.061646 -0.364768
v -0.375000 0.061646 -0.364768
v -0.375000 0.554050 -0.451592
v 0.375000 0.554050 -0.451592
v -0.375000 0.061646 -0.364768
v 0.375000 0.061646 -0.364768
v 0.451592 0.554050 0.375000
v 0.451592 0.554050 -0.375000
v 0.364768 0.061646 0.375000
v 0.364768 0.061646 -0.375000
v 0.451592 0.554050 -0.375000
v 0.451592 0.554050 0.375000
v 0.364768 0.061646 -0.375000
v 0.364768 0.061646 0.375000
v -0.375000 0.554050 0.451592
v 0.375000 0.554050 0.451592
v -0.375000 0.061646 0.364768
v 0.375000 0.061646 0.364768
v 0.375000 0.554050 0.451592
v -0.375000 0.554050 0.451592
v 0.375000 0.061646 0.364768
v -0.375000 0.061646 0.364768
v -0.451592 0.554050 -0.375000
v -0.451592 0.554050 0.375000
v -0.364768 0.061646 -0.375000
v -0.364768 0.061646 0.375000
v -0.451592 0.554050 0.375000
v -0.451592 0.554050 -0.375000
v -0.364768 0.061646 0.375000
v -0.364768 0.061646 -0.375000
v -0.302268 0.125854 -0.375000
v -0.302268 0.125854 0.375000
v -0.389092 -0.366550 -0.375000
v -0.389092 -0.366550 0.375000
v -0.302268 0.125854 0.375000
v -0.302268 0.125854 -0.375000
v -0.389092 -0.366550 0.375000
v -0.389092 -0.366550 -0.375000
v -0.375000 0.125854 0.302268
v 0.375000 0.125854 0.302268
v -0.375000 -0.366550 0.389092
v 0.375000 -0.366550 0.389092
v 0.375000 0.125854 0.302268
v -0.375000 0.125854 0.302268
v 0.375000 -0.366550 0.389092
v -0.375000 -0.366550 0.389092
v 0.302268 0.125854 0.375000
v 0.302268 0.125854 -0.375000
v 0.389092 -0.366550 0.375000
v 0.389092 -0.366550 -0.375000
v 0.302268 0.125854 -0.375000
v 0.302268 0.125854 0.375000
v 0.389092 -0.366550 -0.375000
v 0.389092 -0.366550 0.375000
v 0.375000 0.125854 -0.302268
v -0.375000 0.125854 -0.302268
v 0.375000 -0.366550 -0.389092
v -0.375000 -0.366550 -0.389092
v -0.375000 0.125854 -0.302268
v 0.375000 0.125854 -0.302268
v -0.375000 -0.366550 -0.389092
v 0.375000 -0.366550 -0.389092
v 0.187500 0.000000 0.187500
v 0.187500 0.000000 -0.187500
v 0.187500 -0.250000 0.187500
v 0.187500 -0.250000 -0.187500
# 132 vertices

vn -0.173625 0.984781 0.000000
vn 0.000000 0.000000 1.000000
vn 0.030063 0.241750 0.969813
vn -0.969813 0.241750 -0.030063
vn 0.241750 0.939656 -0.241750
vn -0.241750 -0.939656 0.241750
vn 0.030063 0.241750 -0.969813
vn -0.984781 -0.173625 0.000000
vn 0.984781 0.173625 0.000000
vn -0.969813 0.241750 0.030063
vn 0.241750 0.939656 0.241750
vn -0.241750 -0.939656 -0.241750
vn -0.030063 0.241750 -0.969813
vn 0.969813 0.241750 0.030063
vn 0.000000 0.000000 -1.000000
vn 0.000000 -0.984781 0.173625
vn -0.241750 0.939656 0.241750
vn 0.241750 -0.939656 -0.241750
vn 0.173625 -0.984781 0.000000
vn 0.969813 0.241750 -0.030063
vn -0.030063 0.241750 0.969813
vn 0.000000 0.984781 -0.173625
vn -0.241750 0.939656 -0.241750
vn 0.241750 -0.939656 0.241750
vn 0.033500 0.179875 -0.983063
vn 1.000000 0.000000 0.000000
vn 0.000000 0.984781 0.173625
vn -0.983063 0.182969 0.000000
vn 0.000000 -1.000000 0.000000
vn -0.179875 -0.966469 -0.182969
vn -0.179844 -0.966469 -0.182969
vn -0.033500 0.179875 -0.983063
vn 0.983063 0.182969 0.000000
vn 0.000000 -0.173625 0.984781
vn 0.000000 1.000000 0.000000
vn 0.179875 -0.966469 -0.182969
vn 0.179844 -0.966469 -0.182969
vn -0.033500 0.179875 0.983063
vn -1.000000 0.000000 0.000000
vn 0.179844 -0.966469 0.182969
vn 0.179875 -0.966469 0.182969
vn 0.000000 -0.984781 -0.173625
vn 0.000000 0.173625 -0.984781
vn 0.033500 0.179875 0.983063
vn -0.179875 -0.966469 0.182969
vn -0.179844 -0.966469 0.182969
vn 0.000000 -0.173625 -0.984781
vn 0.000000 0.173625 0.984781
vn 0.984781 -0.173625 0.000000
vn -0.984781 0.173625 0.000000
vn 0.173625 0.984781 0.000000
vn -0.173625 -0.984781 0.000000
# 52 normals

vt 0.000000 -1.666667 0.000000
vt 0.000000 1.000000 0.000000
vt 0.700000 1.000000 0.000000
vt 0.700000 0.666667 0.000000
vt 0.000000 0.666667 0.000000
vt 0.300000 0.041667 0.000000
vt 0.000000 0.041667 0.000000
vt 0.000000 0.625000 0.000000
vt 0.300000 0.625000 0.000000
vt 1.000000 0.583333 0.000000
vt 0.700000 0.583333 0.000000
vt 0.700000 0.333333 0.000000
vt 1.000000 0.333333 0.000000
vt 1.000000 -1.333333 0.000000
vt 0.700000 -1.333333 0.000000
vt 0.700000 -1.083333 0.000000
vt 1.000000 -1.083333 0.000000
vt 3.000000 0.500000 0.000000
vt 2.700000 0.500000 0.000000
vt 2.700000 0.750000 0.000000
vt 3.000000 0.750000 0.000000
vt 0.050000 0.958333 0.000000
vt 0.750000 0.958333 0.000000
vt 0.750000 0.625000 0.000000
vt 0.050000 0.625000 0.000000
vt 3.000000 0.000000 0.000000
vt 2.700000 0.000000 0.000000
vt 2.700000 0.250000 0.000000
vt 3.000000 0.250000 0.000000
vt 0.700000 0.333333 0.000000
vt 3.000000 -0.250000 0.000000
vt 2.700000 -0.250000 0.000000
vt 0.300000 0.333333 0.000000
vt 0.300000 0.666667 0.000000
vt 0.700000 0.666667 0.000000
vt 0.700000 0.750000 0.000000
vt 1.000000 0.750000 0.000000
vt 1.000000 1.000000 0.000000
vt 0.700000 0.000000 0.000000
vt 0.300000 0.000000 0.000000
# 40 texture coordinates

o Default
usemtl default
f 118/1/1 113/1/1 114/1/1 117/1/1
f 120/2/2 115/3/2 113/4/2 118/5/2
f 8/6/3 3/7/3 1/8/3 6/9/3
f 7/7/4 8/6/4 6/9/4 5/8/4
f 6/10/5 1/11/5 2/12/5 5/13/5
f 7/14/6 4/15/6 3/16/6 8/17/6
f 12/7/7 15/6/7 13/9/7 10/8/7
f 119/1/8 120/1/8 118/1/8 117/1/8
f 115/2/9 116/3/9 114/4/9 113/5/9
f 15/6/10 16/7/10 14/8/10 13/9/10
f 14/13/11 9/12/11 10/11/11 13/10/11
f 15/18/12 12/19/12 11/20/12 16/21/12
f 20/6/13 23/7/13 21/8/13 18/9/13
f 19/7/14 20/6/14 18/9/14 17/8/14
f 116/22/15 119/23/15 117/24/15 114/25/15
f 111/1/16 108/1/16 107/1/16 112/1/16
f 22/12/17 17/13/17 18/10/17 21/11/17
f 23/26/18 20/27/18 19/28/18 24/29/18
f 119/1/19 116/1/19 115/1/19 120/1/19
f 27/6/20 28/7/20 26/8/20 25/9/20
f 32/7/21 27/6/21 25/9/21 30/8/21
f 110/1/22 105/1/22 106/1/22 109/1/22
f 30/11/23 25/10/23 26/13/23 29/30/23
f 31/31/24 28/32/24 27/27/24 32/26/24
f 36/12/25 39/33/25 37/34/25 34/35/25
f 128/2/26 123/3/26 121/4/26 126/5/26
f 126/1/27 121/1/27 122/1/27 125/1/27
f 39/33/28 40/30/28 38/35/28 37/34/28
f 33/36/29 132/37/29 131/38/29 46/3/29
f 39/33/30 36/12/30 35/39/31 40/40/30
f 44/33/32 47/12/32 45/35/32 42/34/32
f 43/30/33 44/33/33 42/34/33 41/35/33
f 131/11/26 132/10/26 130/37/26 129/36/26
f 127/1/34 128/1/34 126/1/34 125/1/34
f 58/36/35 129/37/35 130/38/35 53/3/35
f 47/12/36 44/33/36 43/40/36 48/39/37
f 132/11/15 33/10/15 53/37/15 130/36/15
f 51/33/33 52/30/33 50/35/33 49/34/33
f 56/12/38 51/33/38 49/34/38 54/35/38
f 124/2/39 127/3/39 125/4/39 122/5/39
f 33/11/39 46/10/39 58/37/39 53/36/39
f 55/39/40 52/40/41 51/33/41 56/12/41
f 127/1/42 124/1/42 123/1/42 128/1/42
f 123/2/43 124/3/43 122/4/43 121/5/43
f 64/33/44 59/12/44 57/35/44 62/34/44
f 63/30/28 64/33/28 62/34/28 61/35/28
f 46/11/2 131/10/2 129/37/2 58/36/2
f 63/40/45 60/39/46 59/12/45 64/33/45
f 68/25/39 71/24/39 69/23/39 66/22/39
f 67/5/47 68/4/47 66/3/47 65/2/47
f 72/25/26 67/24/26 65/23/26 70/22/26
f 71/1/48 72/1/48 70/1/48 69/1/48
f 70/1/22 65/1/22 66/1/22 69/1/22
f 71/1/16 68/1/16 67/1/16 72/1/16
f 76/5/15 79/4/15 77/3/15 74/2/15
f 75/5/49 76/4/49 74/3/49 73/2/49
f 80/5/2 75/4/2 73/3/2 78/2/2
f 79/1/50 80/1/50 78/1/50 77/1/50
f 78/1/51 73/1/51 74/1/51 77/1/51
f 79/1/52 76/1/52 75/1/52 80/1/52
f 84/5/26 87/4/26 85/3/26 82/2/26
f 83/5/34 84/4/34 82/3/34 81/2/34
f 88/5/39 83/4/39 81/3/39 86/2/39
f 87/1/43 88/1/43 86/1/43 85/1/43
f 86/1/27 81/1/27 82/1/27 85/1/27
f 87/1/42 84/1/42 83/1/42 88/1/42
f 92/25/2 95/24/2 93/23/2 90/22/2
f 91/5/8 92/4/8 90/3/8 89/2/8
f 96/25/15 91/24/15 89/23/15 94/22/15
f 95/1/9 96/1/9 94/1/9 93/1/9
f 94/1/1 89/1/1 90/1/1 93/1/1
f 95/1/19 92/1/19 91/1/19 96/1/19
f 100/22/2 103/23/2 101/24/2 98/25/2
f 99/2/50 100/3/50 98/4/50 97/5/50
f 104/22/15 99/23/15 97/24/15 102/25/15
f 103/1/49 104/1/49 102/1/49 101/1/49
f 102/1/51 97/1/51 98/1/51 101/1/51
f 103/1/52 100/1/52 99/1/52 104/1/52
f 108/22/26 111/23/26 109/24/26 106/25/26
f 107/2/48 108/3/48 106/4/48 105/5/48
f 112/22/39 107/23/39 105/24/39 110/25/39
f 111/1/47 112/1/47 110/1/47 109/1/47

