# WaveFront *.obj file (generated by CINEMA 4D)

v 0.140625 0.140625 0.140625
v 0.140625 0.140625 -0.140625
v 0.140625 -0.140625 0.140625
v 0.140625 -0.140625 -0.140625
v -0.140625 0.140625 -0.140625
v -0.140625 0.140625 0.140625
v -0.140625 -0.140625 -0.140625
v -0.140625 -0.140625 0.140625
# 8 vertices

vn 0 0 -1
vn 1 0 0
vn 0 0 1
vn -1 0 0
vn 0 1 0
vn 0 -1 0
# 6 normals

vt 0.75 0.64285713434219 0
vt 1 0.64285713434219 0
vt 1 0.82142853736877 0
vt 0.5 0.64285713434219 0
vt 0.75 0.82142853736877 0
vt 0.25 0.64285713434219 0
vt 0.5 0.82142853736877 0
vt 0 0.64285713434219 0
vt 0.25 0.82142853736877 0
vt 0.75 1 0
vt 0.5 1 0
vt 0.75 0.46428573131561 0
vt 0.5 0.46428573131561 0
vt 0 0.82142853736877 0
# 14 texture coordinates

o cube
usemtl default
f 4/1/1 7/2/1 5/3/1
f 3/4/2 4/1/2 2/5/2
f 8/6/3 3/4/3 1/7/3
f 7/8/4 8/6/4 6/9/4
f 6/10/5 1/11/5 2/7/5
f 7/12/6 4/13/6 3/4/6
f 4/1/1 5/3/1 2/5/1
f 3/4/2 2/5/2 1/7/2
f 8/6/3 1/7/3 6/9/3
f 7/8/4 6/9/4 5/14/4
f 6/10/5 2/7/5 5/5/5
f 7/12/6 3/4/6 8/1/6

v 0 -0.4375 0
v 0 -0.5 0
v 0.02588834799826 -0.4375 -0.0625
v 0.0625 -0.4375 -0.02588834799826
v 0.0625 -0.4375 0.02588834799826
v 0.02588834799826 -0.4375 0.0625
v -0.02588834799826 -0.4375 0.0625
v -0.0625 -0.4375 0.02588834799826
v -0.0625 -0.4375 -0.02588834799826
v -0.02588834799826 -0.4375 -0.0625
# 10 vertices

vn 0.50000458955765 -0.70710027217865 -0.50000458955765
vn 0.70710676908493 -0.70710676908493 0
vn 0.50002020597458 -0.70712238550186 0.49995771050453
vn 0 -0.70710676908493 0.70710676908493
vn -0.50002020597458 -0.70712238550186 0.49995771050453
vn -0.70710676908493 -0.70710676908493 0
vn -0.50000458955765 -0.70710027217865 -0.50000458955765
vn 0 -0.70710676908493 -0.70710676908493
# 8 normals

vt 0.03750000149012 0.97691249847412 0
vt 0.03017750009894 0.98214286565781 0
vt 0.02499999850988 0.97321426868439 0
vt 0.03017750009894 0.9695160984993 0
vt 0.03889630362391 0.97350639104843 0
vt 0.02500000037253 0.98214286565781 0
vt 0.03750000149012 0.9695160984993 0
vt 0.02828994393349 1 0
vt 0.03120051324368 0.99290174245834 0
vt 0.04671005532146 1 0
vt 0.03017750009894 0.96428573131561 0
vt 0.01110369805247 0.99136352539062 0
vt 0.01982250064611 0.98737323284149 0
vt 0.02500000037253 1 0
vt 0.01982250064611 0.96428573131561 0
vt 0.03017750009894 0.98737323284149 0
vt 0.01250000018626 0.9695160984993 0
vt 0.03889630362391 0.99136352539062 0
vt 0.01250000018626 0.97691249847412 0
vt 0.02828994393349 0.99107140302658 0
vt 0.03120051324368 0.98397320508957 0
vt 0.04671005532146 0.99107140302658 0
vt 0.01982250064611 0.98214286565781 0
vt 0.01110369805247 0.97350639104843 0
vt 0.01982250064611 0.9695160984993 0
# 25 texture coordinates

o cone
usemtl default
f 12/15/5 11/16/5 9/17/5
f 11/18/7 12/19/7 10/20/7
f 13/21/5 12/15/5 9/17/5
f 12/22/8 13/23/8 10/24/8
f 14/25/5 13/21/5 9/17/5
f 13/26/9 14/27/9 10/28/9
f 15/29/5 14/25/5 9/17/5
f 14/27/10 15/30/10 10/28/10
f 16/31/5 15/29/5 9/17/5
f 15/30/11 16/32/11 10/28/11
f 17/33/5 16/31/5 9/17/5
f 16/34/12 17/35/12 10/36/12
f 18/37/5 17/33/5 9/17/5
f 17/38/13 18/39/13 10/20/13
f 11/16/5 18/37/5 9/17/5
f 18/39/14 11/18/14 10/20/14

v 0.12944173812866 -0.03125 0.3125
v 0.12944173812866 0.03125 0.3125
v 0.10127420723438 -0.03125 0.24449756741524
v 0.10127420723438 0.03125 0.24449756741524
v 0.3125 -0.03125 0.12944173812866
v 0.3125 0.03125 0.12944173812866
v 0.24449756741524 -0.03125 0.10127420723438
v 0.24449756741524 0.03125 0.10127420723438
v 0.3125 -0.03125 -0.12944173812866
v 0.3125 0.03125 -0.12944173812866
v 0.24449756741524 -0.03125 -0.10127420723438
v 0.24449756741524 0.03125 -0.10127420723438
v 0.12944173812866 -0.03125 -0.3125
v 0.12944173812866 0.03125 -0.3125
v 0.10127420723438 -0.03125 -0.24449756741524
v 0.10127420723438 0.03125 -0.24449756741524
v -0.12944173812866 -0.03125 -0.3125
v -0.12944173812866 0.03125 -0.3125
v -0.10127420723438 -0.03125 -0.24449756741524
v -0.10127420723438 0.03125 -0.24449756741524
v -0.3125 -0.03125 -0.12944173812866
v -0.3125 0.03125 -0.12944173812866
v -0.24449756741524 -0.03125 -0.10127420723438
v -0.24449756741524 0.03125 -0.10127420723438
v -0.3125 -0.03125 0.12944173812866
v -0.3125 0.03125 0.12944173812866
v -0.24449756741524 -0.03125 0.10127420723438
v -0.24449756741524 0.03125 0.10127420723438
v -0.12944173812866 -0.03125 0.3125
v -0.12944173812866 0.03125 0.3125
v -0.10127420723438 -0.03125 0.24449756741524
v -0.10127420723438 0.03125 0.24449756741524
# 32 vertices

vn 0.70710676908493 0 0.70710676908493
vn -0.70710676908493 0 -0.70710676908493
vn 0.70710676908493 0 -0.70710676908493
vn -0.70710676908493 0 0.70710676908493
# 4 normals

vt 0.40000000596046 0.35714292526245 0
vt 0.40000000596046 0.5 0
vt 0.34999999403954 0.5 0
vt 0.05000000074506 0.5 0
vt 0.05000000074506 0.35714292526245 0
vt 0.10000000149012 0.35714292526245 0
vt 0.40000000596046 0.62731498479843 0
vt 0.40000000596046 0.51554214954376 0
vt 0.25 0.5 0
vt 0.30000001192093 0.51554214954376 0
vt 0 0.5 0
vt 0 0.35714292526245 0
vt 0.05000000074506 0.62731331586838 0
vt 0.05000000074506 0.51554387807846 0
vt 0.20000000298023 0.64285713434219 0
vt 0.20000000298023 0.5 0
vt 0.25 0.51554387807846 0
vt 0.10000000149012 0.5 0
vt 0.34999999403954 0.35714292526245 0
vt 0.10000000149012 0.51554214954376 0
vt 0.10000000149012 0.62731498479843 0
vt 0.05000000074506 0.64285713434219 0
vt 0.15000000596046 0.64285713434219 0
vt 0.15000000596046 0.5 0
vt 0.20000000298023 0.51554214954376 0
vt 0.15000000596046 0.35714292526245 0
vt 0.30000001192093 0.5 0
vt 0.30000001192093 0.35714292526245 0
vt 0.15000000596046 0.51554387807846 0
vt 0.15000000596046 0.62731331586838 0
vt 0.10000000149012 0.64285713434219 0
vt 0.20000000298023 0.35714292526245 0
vt 0.25 0.35714292526245 0
vt 0.20000000298023 0.62731498479843 0
vt 0.10000000149012 0.51785713434219 0
vt 0.25 0.62731331586838 0
vt 0.05000000074506 0.51785713434219 0
vt 0.30000001192093 0.62731498479843 0
vt 0.34999999403954 0.64285713434219 0
vt 0.34999999403954 0.51554387807846 0
vt 0.34999999403954 0.62731331586838 0
vt 0.30000001192093 0.64285713434219 0
vt 0.10000000149012 0.625 0
vt 0.05000000074506 0.625 0
vt 0.34999999403954 0.62482750415802 0
# 45 texture coordinates

o tube1
usemtl default
f 19/40/15 23/41/15 24/42/15
f 22/43/16 26/44/16 25/45/16
f 21/46/6 25/47/6 23/42/6
f 20/6/5 24/48/5 26/49/5
f 23/44/2 27/43/2 28/50/2
f 26/50/4 30/51/4 29/44/4
f 25/52/6 29/53/6 27/50/6
f 24/54/5 28/55/5 30/56/5
f 27/45/17 31/57/17 32/43/17
f 30/42/18 34/58/18 33/40/18
f 29/59/6 33/60/6 31/61/6
f 28/62/5 32/63/5 34/64/5
f 31/65/1 35/63/1 36/57/1
f 34/66/3 38/67/3 37/58/3
f 33/68/6 37/69/6 35/70/6
f 32/70/5 36/57/5 38/68/5
f 35/71/16 39/55/16 40/63/16
f 38/48/15 42/72/15 41/67/15
f 37/64/6 41/73/6 39/62/6
f 36/61/5 40/43/5 42/74/5
f 39/72/4 43/48/4 44/55/4
f 42/55/2 46/71/2 45/72/2
f 41/56/6 45/75/6 43/54/6
f 40/8/5 44/50/5 46/76/5
f 43/67/18 47/66/18 48/48/18
f 46/63/17 50/65/17 49/71/17
f 45/49/6 49/77/6 47/6/6
f 44/78/5 48/42/5 50/47/5
f 47/58/3 19/42/3 20/66/3
f 50/57/1 22/45/1 21/65/1
f 49/79/6 21/80/6 19/81/6
f 48/81/5 20/66/5 22/42/5
f 19/40/15 24/42/15 20/58/15
f 22/43/16 25/45/16 21/57/16
f 21/46/6 23/42/6 19/78/6
f 20/6/5 26/49/5 22/77/5
f 23/44/2 28/50/2 24/51/2
f 26/50/4 29/44/4 25/43/4
f 25/52/6 27/50/6 23/8/6
f 24/54/5 30/56/5 26/75/5
f 27/45/17 32/43/17 28/44/17
f 30/42/18 33/40/18 29/41/18
f 29/59/6 31/61/6 27/43/6
f 28/62/5 34/64/5 30/73/5
f 31/65/1 36/57/1 32/45/1
f 34/66/3 37/58/3 33/42/3
f 33/68/6 35/70/6 31/57/6
f 32/70/5 38/68/5 34/69/5
f 35/71/16 40/63/16 36/65/16
f 38/48/15 41/67/15 37/66/15
f 37/64/6 39/62/6 35/63/6
f 36/61/5 42/74/5 38/82/5
f 39/72/4 44/55/4 40/71/4
f 42/55/2 45/72/2 41/48/2
f 41/56/6 43/54/6 39/55/6
f 40/8/5 46/76/5 42/83/5
f 43/67/18 48/48/18 44/72/18
f 46/63/17 49/71/17 45/55/17
f 45/49/6 47/6/6 43/48/6
f 44/78/5 50/47/5 46/46/5
f 47/58/3 20/66/3 48/67/3
f 50/57/1 21/65/1 49/63/1
f 49/79/6 19/81/6 47/66/6
f 48/81/5 22/42/5 50/84/5

v 0.15533009171486 -0.03125 0.375
v 0.15533009171486 0.03125 0.375
v 0.12929555773735 -0.03125 0.31214708089828
v 0.12929555773735 0.03125 0.31214708089828
v 0.375 -0.03125 0.15533009171486
v 0.375 0.03125 0.15533009171486
v 0.31214708089828 -0.03125 0.12929555773735
v 0.31214708089828 0.03125 0.12929555773735
v 0.375 -0.03125 -0.15533009171486
v 0.375 0.03125 -0.15533009171486
v 0.31214708089828 -0.03125 -0.12929555773735
v 0.31214708089828 0.03125 -0.12929555773735
v 0.15533009171486 -0.03125 -0.375
v 0.15533009171486 0.03125 -0.375
v 0.12929555773735 -0.03125 -0.31214708089828
v 0.12929555773735 0.03125 -0.31214708089828
v -0.15533009171486 -0.03125 -0.375
v -0.15533009171486 0.03125 -0.375
v -0.12929555773735 -0.03125 -0.31214708089828
v -0.12929555773735 0.03125 -0.31214708089828
v -0.375 -0.03125 -0.15533009171486
v -0.375 0.03125 -0.15533009171486
v -0.31214708089828 -0.03125 -0.12929555773735
v -0.31214708089828 0.03125 -0.12929555773735
v -0.375 -0.03125 0.15533009171486
v -0.375 0.03125 0.15533009171486
v -0.31214708089828 -0.03125 0.12929555773735
v -0.31214708089828 0.03125 0.12929555773735
v -0.15533009171486 -0.03125 0.375
v -0.15533009171486 0.03125 0.375
v -0.12929555773735 -0.03125 0.31214708089828
v -0.12929555773735 0.03125 0.31214708089828
# 32 vertices

# 0 normal

vt 0.40000000596046 0 0
vt 0.40000000596046 0.17857146263123 0
vt 0.34999999403954 0.17857146263123 0
vt 0.05000000074506 0.17857146263123 0
vt 0.05000000074506 0 0
vt 0.10000000149012 0 0
vt 0.34999999403954 0.3421802520752 0
vt 0.34999999403954 0.19353413581848 0
vt 0 0.17857146263123 0
vt 0 0 0
vt 0 0.34217631816864 0
vt 0 0.19353806972504 0
vt 0.34999999403954 0 0
vt 0.05000000074506 0.3421802520752 0
vt 0.05000000074506 0.19353413581848 0
vt 0.10000000149012 0.17857146263123 0
vt 0.15000000596046 0 0
vt 0.15000000596046 0.17857146263123 0
vt 0.30000001192093 0.17857146263123 0
vt 0.30000001192093 0 0
vt 0.10000000149012 0.34217631816864 0
vt 0.10000000149012 0.19353806972504 0
vt 0.10000000149012 0.33928573131561 0
vt 0.20000000298023 0 0
vt 0.20000000298023 0.17857146263123 0
vt 0.25 0.17857146263123 0
vt 0.25 0 0
vt 0.15000000596046 0.19353413581848 0
vt 0.15000000596046 0.3421802520752 0
vt 0.15000000596046 0.33928573131561 0
vt 0.20000000298023 0.19353806972504 0
vt 0.20000000298023 0.34217631816864 0
vt 0.25 0.3421802520752 0
vt 0.25 0.19353413581848 0
vt 0.30000001192093 0.19353806972504 0
vt 0.30000001192093 0.34217631816864 0
vt 0.10000000149012 0.20346784591675 0
vt 0.15000000596046 0.20346105098724 0
# 38 texture coordinates

o tube2
usemtl default
f 51/85/15 55/86/15 56/87/15
f 54/88/16 58/89/16 57/90/16
f 53/91/6 57/92/6 55/86/6
f 52/86/5 56/40/5 58/91/5
f 55/89/2 59/88/2 60/93/2
f 58/93/4 62/94/4 61/89/4
f 57/95/6 61/96/6 59/88/6
f 56/88/5 60/44/5 62/95/5
f 59/88/17 63/89/17 64/90/17
f 62/87/18 66/97/18 65/85/18
f 61/98/6 65/99/6 63/100/6
f 60/100/5 64/45/5 66/98/5
f 63/101/1 67/102/1 68/100/1
f 66/103/3 70/104/3 69/97/3
f 65/105/6 69/106/6 67/102/6
f 64/102/5 68/65/5 70/107/5
f 67/108/16 71/109/16 72/102/16
f 70/110/15 74/111/15 73/104/15
f 69/112/6 73/113/6 71/71/6
f 68/109/5 72/71/5 74/114/5
f 71/111/4 75/110/4 76/109/4
f 74/109/2 78/108/2 77/111/2
f 73/115/6 77/116/6 75/72/6
f 72/72/5 76/110/5 78/115/5
f 75/104/18 79/103/18 80/110/18
f 78/102/17 82/101/17 81/108/17
f 77/117/6 81/118/6 79/103/6
f 76/67/5 80/103/5 82/118/5
f 79/97/3 51/87/3 52/103/3
f 82/100/1 54/90/1 53/101/1
f 81/119/6 53/120/6 51/58/6
f 80/87/5 52/58/5 54/120/5
f 51/85/15 56/87/15 52/97/15
f 54/88/16 57/90/16 53/100/16
f 53/91/6 55/86/6 51/40/6
f 52/86/5 58/91/5 54/92/5
f 55/89/2 60/93/2 56/94/2
f 58/93/4 61/89/4 57/88/4
f 57/95/6 59/88/6 55/44/6
f 56/88/5 62/95/5 58/96/5
f 59/88/17 64/90/17 60/100/17
f 62/87/18 65/85/18 61/86/18
f 61/98/6 63/100/6 59/45/6
f 60/100/5 66/98/5 62/99/5
f 63/101/1 68/100/1 64/90/1
f 66/103/3 69/97/3 65/87/3
f 65/105/6 67/102/6 63/65/6
f 64/102/5 70/107/5 66/121/5
f 67/108/16 72/102/16 68/101/16
f 70/110/15 73/104/15 69/103/15
f 69/112/6 71/71/6 67/109/6
f 68/109/5 74/114/5 70/122/5
f 71/111/4 76/109/4 72/108/4
f 74/109/2 77/111/2 73/110/2
f 73/115/6 75/72/6 71/110/6
f 72/72/5 78/115/5 74/116/5
f 75/104/18 80/110/18 76/111/18
f 78/102/17 81/108/17 77/109/17
f 77/117/6 79/103/6 75/67/6
f 76/67/5 82/118/5 78/117/5
f 79/97/3 52/103/3 80/104/3
f 82/100/1 53/101/1 81/102/1
f 81/119/6 51/58/6 79/87/6
f 80/87/5 54/120/5 82/119/5

v 0.18121843039989 -0.03125 0.4375
v 0.18121843039989 0.03125 0.4375
v 0.15472806990147 -0.03125 0.3735466003418
v 0.15472806990147 0.03125 0.3735466003418
v 0.4375 -0.03125 0.18121843039989
v 0.4375 0.03125 0.18121843039989
v 0.3735466003418 -0.03125 0.15472806990147
v 0.3735466003418 0.03125 0.15472806990147
v 0.4375 -0.03125 -0.18121843039989
v 0.4375 0.03125 -0.18121843039989
v 0.3735466003418 -0.03125 -0.15472806990147
v 0.3735466003418 0.03125 -0.15472806990147
v 0.18121843039989 -0.03125 -0.4375
v 0.18121843039989 0.03125 -0.4375
v 0.15472806990147 -0.03125 -0.3735466003418
v 0.15472806990147 0.03125 -0.3735466003418
v -0.18121843039989 -0.03125 -0.4375
v -0.18121843039989 0.03125 -0.4375
v -0.15472806990147 -0.03125 -0.3735466003418
v -0.15472806990147 0.03125 -0.3735466003418
v -0.4375 -0.03125 -0.18121843039989
v -0.4375 0.03125 -0.18121843039989
v -0.3735466003418 -0.03125 -0.15472806990147
v -0.3735466003418 0.03125 -0.15472806990147
v -0.4375 -0.03125 0.18121843039989
v -0.4375 0.03125 0.18121843039989
v -0.3735466003418 -0.03125 0.15472806990147
v -0.3735466003418 0.03125 0.15472806990147
v -0.18121843039989 -0.03125 0.4375
v -0.18121843039989 0.03125 0.4375
v -0.15472806990147 -0.03125 0.3735466003418
v -0.15472806990147 0.03125 0.3735466003418
# 32 vertices

# 0 normal

vt 0.80000001192093 0.03571426868439 0
vt 0.80000001192093 0.25 0
vt 0.75 0.25 0
vt 0.44999998807907 0.25 0
vt 0.44999998807907 0.03571426868439 0
vt 0.5 0.03571426868439 0
vt 0.75 0.44862389564514 0
vt 0.75 0.26566183567047 0
vt 0.80000001192093 0.46428573131561 0
vt 0.40000000596046 0.25 0
vt 0.40000000596046 0.03571426868439 0
vt 0.40000000596046 0.44862174987793 0
vt 0.40000000596046 0.26566410064697 0
vt 0.44999998807907 0.46428573131561 0
vt 0.5 0.25 0
vt 0.75 0.03571426868439 0
vt 0.44999998807907 0.44862389564514 0
vt 0.44999998807907 0.26566183567047 0
vt 0.55000001192093 0.03571426868439 0
vt 0.55000001192093 0.25 0
vt 0.69999998807907 0.25 0
vt 0.5 0.44862174987793 0
vt 0.5 0.26566410064697 0
vt 0.55000001192093 0.46428573131561 0
vt 0.60000002384186 0.03571426868439 0
vt 0.60000002384186 0.25 0
vt 0.64999997615814 0.25 0
vt 0.64999997615814 0.03571426868439 0
vt 0.69999998807907 0.03571426868439 0
vt 0.55000001192093 0.26566183567047 0
vt 0.55000001192093 0.44862389564514 0
vt 0.60000002384186 0.46428573131561 0
vt 0.60000002384186 0.26566410064697 0
vt 0.60000002384186 0.44862174987793 0
vt 0.64999997615814 0.46428573131561 0
vt 0.64999997615814 0.44862389564514 0
vt 0.64999997615814 0.26566183567047 0
vt 0.69999998807907 0.46428573131561 0
vt 0.69999998807907 0.44862174987793 0
vt 0.69999998807907 0.26566410064697 0
# 40 texture coordinates

o tube3
usemtl default
f 83/123/15 87/124/15 88/125/15
f 86/126/16 90/127/16 89/128/16
f 85/129/6 89/130/6 87/124/6
f 84/124/5 88/131/5 90/129/5
f 87/127/2 91/126/2 92/132/2
f 90/132/4 94/133/4 93/127/4
f 89/134/6 93/135/6 91/126/6
f 88/126/5 92/136/5 94/134/5
f 91/128/17 95/137/17 96/126/17
f 94/125/18 98/138/18 97/123/18
f 93/139/6 97/140/6 95/137/6
f 92/137/5 96/13/5 98/139/5
f 95/141/1 99/142/1 100/137/1
f 98/138/3 102/125/3 101/143/3
f 97/144/6 101/145/6 99/142/6
f 96/142/5 100/146/5 102/144/5
f 99/147/16 103/148/16 104/142/16
f 102/149/15 106/150/15 105/151/15
f 101/152/6 105/153/6 103/154/6
f 100/148/5 104/154/5 106/153/5
f 103/148/4 107/147/4 108/150/4
f 106/148/2 110/147/2 109/150/2
f 105/155/6 109/156/6 107/157/6
f 104/157/5 108/149/5 110/155/5
f 107/151/18 111/143/18 112/149/18
f 110/142/17 114/141/17 113/147/17
f 109/158/6 113/159/6 111/143/6
f 108/160/5 112/143/5 114/159/5
f 111/138/3 83/125/3 84/143/3
f 114/141/1 86/142/1 85/137/1
f 113/161/6 85/162/6 83/125/6
f 112/125/5 84/12/5 86/161/5
f 83/123/15 88/125/15 84/138/15
f 86/126/16 89/128/16 85/137/16
f 85/129/6 87/124/6 83/131/6
f 84/124/5 90/129/5 86/130/5
f 87/127/2 92/132/2 88/133/2
f 90/132/4 93/127/4 89/126/4
f 89/134/6 91/126/6 87/136/6
f 88/126/5 94/134/5 90/135/5
f 91/128/17 96/126/17 92/127/17
f 94/125/18 97/123/18 93/124/18
f 93/139/6 95/137/6 91/13/6
f 92/137/5 98/139/5 94/140/5
f 95/141/1 100/137/1 96/128/1
f 98/138/3 101/143/3 97/151/3
f 97/144/6 99/142/6 95/146/6
f 96/142/5 102/144/5 98/145/5
f 99/147/16 104/142/16 100/141/16
f 102/149/15 105/151/15 101/143/15
f 101/152/6 103/154/6 99/148/6
f 100/148/5 106/153/5 102/152/5
f 103/148/4 108/150/4 104/149/4
f 106/148/2 109/150/2 105/149/2
f 105/155/6 107/157/6 103/149/6
f 104/157/5 110/155/5 106/156/5
f 107/151/18 112/149/18 108/150/18
f 110/142/17 113/147/17 109/148/17
f 109/158/6 111/143/6 107/160/6
f 108/160/5 114/159/5 110/158/5
f 111/138/3 84/143/3 112/151/3
f 114/141/1 85/137/1 113/128/1
f 113/161/6 83/125/6 111/12/6
f 112/125/5 86/161/5 114/162/5

