# WaveFront *.obj file (generated by CINEMA 4D)

v 1.32452213764191 1.89161419868469 0.61963665485382
v 1.66810739040375 1.59686589241028 0.61963665485382
v 1.94758808612823 1.24075090885162 0.61963665485382
v 2.15222430229187 0.83695447444916 0.61963665485382
v 2.27415156364441 0.40099450945854 0.61963665485382
v 2.30868434906006 -0.0503757968545 0.61963665485382
v 2.25449585914612 -0.49980986118317 0.61963671445847
v 2.11366844177246 -0.9300365447998 0.61963677406311
v 1.89161360263824 -1.32452237606049 0.61963677406311
v -0.43037021160126 2.4407684803009 0.19792510569096
v -0.43037021160126 2.4407684803009 -0.22378627955914
v 2.54718112945557 -0.11355991661549 0.19792528450489
v 2.54718112945557 -0.11355991661549 -0.2237861007452
v 2.50923442840576 0.38243249058723 0.19792528450489
v 2.50923442840576 0.38243249058723 -0.2237861007452
v 2.37525391578674 0.86149120330811 0.19792519509792
v 2.37525391578674 0.86149120330811 -0.22378619015217
v 2.15038752555847 1.30520641803741 0.19792510569096
v 2.15038752555847 1.30520641803741 -0.22378627955914
v 1.46572601795197 2.02041339874268 -0.22378627955914
v 1.46572589874268 2.0204131603241 0.19792510569096
v -0.4009915292263 2.27415227890015 0.61963665485382
v 0.05037859454751 2.30868482589722 0.61963665485382
v 0.49981284141541 2.25449562072754 0.61963665485382
v 0.93003952503204 2.11366748809814 0.61963665485382
v 1.3245222568512 1.89161443710327 -0.64549767971039
v 1.66810762882233 1.59686613082886 -0.64549767971039
v 1.94758832454681 1.2407511472702 -0.64549767971039
v 2.15222454071045 0.83695477247238 -0.64549767971039
v 2.27415156364441 0.40099450945854 -0.64549750089645
v 2.30868434906006 -0.0503757968545 -0.6454975605011
v 2.25449585914612 -0.49980986118317 -0.6454975605011
v 2.11366844177246 -0.9300365447998 -0.64549750089645
v 1.89161360263824 -1.32452237606049 -0.6454975605011
v 1.84327781200409 1.69652664661407 0.19792510569096
v 1.84327781200409 1.69652664661407 -0.22378627955914
v 1.03224515914917 2.26441860198975 0.19792510569096
v 1.03224515914917 2.26441860198975 -0.22378627955914
v 2.08887910842896 -1.51366710662842 0.19792538881302
v 2.08887910842896 -1.51366710662842 -0.2237861007452
v 0.06562197208405 2.47871494293213 -0.22378627955914
v 0.06562180072069 2.47871470451355 0.19792510569096
v 0.55948668718338 2.41916871070862 0.19792510569096
v 0.55948680639267 2.4191689491272 -0.22378627955914
v 2.48763561248779 -0.60742443799973 -0.2237861007452
v 2.48763561248779 -0.60742443799973 0.19792523980141
v -0.4009915292263 2.27415227890015 -0.64549767971039
v 0.05037876591086 2.3086850643158 -0.64549767971039
v 0.49981287121773 2.2544960975647 -0.64549767971039
v 0.93003958463669 2.11366772651672 -0.64549767971039
v 2.33288621902466 -1.08018290996552 -0.2237861007452
v 2.33288621902466 -1.08018290996552 0.19792538881302
# 52 vertices

vt 0.08333337306976 0.99999910593033 0
vt 0.16666665673256 0.99999916553497 0
vt 0.16666665673256 0.66666609048843 0
vt 0.08333337306976 0.66666603088379 0
vt 0.83333313465118 0.99999976158142 0
vt 0.9166664481163 0.99999988079071 0
vt 0.9166664481163 0.66666680574417 0
vt 0.83333313465118 0.66666668653488 0
vt 0.16666668653488 0.33333301544189 0
vt 0.08333337306976 0.33333301544189 0
vt 0.00000000002911 0.99999910593033 0
vt 0 0.66666603088379 0
vt 0.74999958276749 0.99999964237213 0
vt 0.74999958276749 0.66666650772095 0
vt 0.58333337306976 0.99999934434891 0
vt 0.66666680574417 0.99999952316284 0
vt 0.66666680574417 0.6666664481163 0
vt 0.58333337306976 0.66666620969772 0
vt 0.1666667163372 0 0
vt 0.08333337306976 0 0
vt 0.9166664481163 0.33333373069763 0
vt 0.83333313465118 0.33333361148834 0
vt 0.50000005960464 0.99999928474426 0
vt 0.50000005960464 0.66666615009308 0
vt 0.91666656732559 0.00000059604645 0
vt 0.83333313465118 0.00000047683716 0
vt 0 0.33333301544189 0
vt 0.41666680574417 0.99999916553497 0
vt 0.41666674613953 0.66666609048843 0
vt 0 0 0
vt 0.74999958276749 0.33333337306976 0
vt 0.33333340287209 0.99999916553497 0
vt 0.33333340287209 0.66666609048843 0
vt 0.74999958276749 0.00000035762787 0
vt 0.66666680574417 0.33333325386047 0
vt 0.58333349227905 0.33333313465118 0
vt 0.25000002980232 0.99999916553497 0
vt 0.25000002980232 0.66666609048843 0
vt 0.66666692495346 0.00000023841858 0
vt 0.58333349227905 0.00000011920929 0
vt 1 1 0
vt 1 0.66666686534882 0
vt 0.50000005960464 0.33333313465118 0
vt 0.50000005960464 0.00000011920929 0
vt 1 0.33333373069763 0
vt 1 0.00000071525574 0
vt 0.25000008940697 0.33333301544189 0
vt 0.25000008940697 0 0
vt 0.41666674613953 0.33333301544189 0
vt 0.41666674613953 0 0
vt 0.33333346247673 0.33333301544189 0
vt 0.33333346247673 0 0
# 52 texture coordinates

o Circle.001
usemtl default
f 33/1 32/2 45/3 51/4
f 49/5 48/6 41/7 44/8
f 51/4 45/3 46/9 52/10
f 34/11 33/1 51/4 40/12
f 50/13 49/5 44/8 38/14
f 27/15 26/16 20/17 36/18
f 52/10 46/9 7/19 8/20
f 44/8 41/7 42/21 43/22
f 26/16 50/13 38/14 20/17
f 28/23 27/15 36/18 19/24
f 43/22 42/21 23/25 24/26
f 40/12 51/4 52/10 39/27
f 29/28 28/23 19/24 17/29
f 39/27 52/10 8/20 9/30
f 38/14 44/8 43/22 37/31
f 30/32 29/28 17/29 15/33
f 37/31 43/22 24/26 25/34
f 36/18 20/17 21/35 35/36
f 31/37 30/32 15/33 13/38
f 35/36 21/35 1/39 2/40
f 20/17 38/14 37/31 21/35
f 32/2 31/37 13/38 45/3
f 48/6 47/41 11/42 41/7
f 21/35 37/31 25/34 1/39
f 19/24 36/18 35/36 18/43
f 18/43 35/36 2/40 3/44
f 42/21 10/45 22/46 23/25
f 41/7 11/42 10/45 42/21
f 46/9 12/47 6/48 7/19
f 45/3 13/38 12/47 46/9
f 17/29 19/24 18/43 16/49
f 16/49 18/43 3/44 4/50
f 15/33 17/29 16/49 14/51
f 14/51 16/49 4/50 5/52
f 12/47 14/51 5/52 6/48
f 13/38 15/33 14/51 12/47

