# WaveFront *.obj file (generated by Cinema 4D)

v -0.500000 1.261810 -1.705238
v -0.500000 -1.705238 -1.261810
v -0.500000 1.705238 1.261810
v -0.500000 -1.261810 1.705238
v -3.500000 1.261810 -1.705238
v -3.500000 -1.705238 -1.261810
v -3.500000 1.705238 1.261810
v -3.500000 -1.261810 1.705238
# 8 vertices

vn 0.000000 0.147809 0.989016
vn 1.000000 0.000000 0.000000
vn 0.000000 -0.989016 0.147809
vn -1.000000 0.000000 0.000000
vn 0.000000 0.989016 -0.147809
# 5 normals

vt 0.320312 0.203125 0.000000
vt 0.320312 0.296875 0.000000
vt 0.367187 0.296875 0.000000
vt 0.367187 0.203125 0.000000
vt 0.359374 0.203125 0.000000
vt 0.359374 0.296875 0.000000
vt 0.374999 0.296875 0.000000
vt 0.374999 0.203125 0.000000
vt 0.320312 0.218750 0.000000
vt 0.367187 0.218750 0.000000
vt 0.367187 0.187500 0.000000
vt 0.320312 0.187500 0.000000
vt 0.312500 0.203125 0.000000
vt 0.312500 0.296875 0.000000
vt 0.328125 0.296875 0.000000
vt 0.328125 0.203125 0.000000
vt 0.367187 0.281250 0.000000
vt 0.320312 0.281250 0.000000
vt 0.320312 0.312500 0.000000
vt 0.367187 0.312500 0.000000
# 20 texture coordinates

o right
f 4/4/1 3/3/1 7/2/1 8/1/1
f 2/8/2 1/7/2 3/6/2 4/5/2
f 6/12/3 2/11/3 4/10/3 8/9/3
f 8/16/4 7/15/4 5/14/4 6/13/4
f 1/20/5 5/19/5 7/18/5 3/17/5

v 0.500000 1.261810 -1.705238
v 0.500000 -1.705238 -1.261810
v 3.500000 1.261810 -1.705238
v 3.500000 -1.705238 -1.261810
v 0.500000 1.705238 1.261810
v 0.500000 -1.261810 1.705238
v 3.500000 1.705238 1.261810
v 3.500000 -1.261810 1.705238
# 8 vertices

# 0 normal

vt 0.429687 0.281250 0.000000
vt 0.382812 0.281250 0.000000
vt 0.382812 0.312500 0.000000
vt 0.429687 0.312500 0.000000
vt 0.382812 0.218750 0.000000
vt 0.429687 0.218750 0.000000
vt 0.429687 0.187500 0.000000
vt 0.382812 0.187500 0.000000
vt 0.382812 0.203125 0.000000
vt 0.382812 0.296875 0.000000
vt 0.429687 0.296875 0.000000
vt 0.429687 0.203125 0.000000
vt 0.375000 0.203125 0.000000
vt 0.375000 0.296875 0.000000
vt 0.390625 0.296875 0.000000
vt 0.390625 0.203125 0.000000
vt 0.421875 0.203125 0.000000
vt 0.421875 0.296875 0.000000
vt 0.437500 0.296875 0.000000
vt 0.437500 0.203125 0.000000
# 20 texture coordinates

o left
f 11/24/5 9/23/5 13/22/5 15/21/5
f 10/28/3 12/27/3 16/26/3 14/25/3
f 16/32/1 15/31/1 13/30/1 14/29/1
f 14/36/4 13/35/4 9/34/4 10/33/4
f 12/40/2 11/39/2 15/38/2 16/37/2

