# WaveFront *.obj file (generated by Cinema 4D)

v -0.030000 0.695802 0.122619
v -0.030000 0.584396 0.118018
v 0.030000 0.695802 0.122619
v 0.030000 0.584396 0.118018
v 0.030000 0.699110 -0.037491
v 0.030000 0.588395 -0.042077
v -0.040000 -0.420910 -0.086191
v -0.040000 -0.354386 -0.080720
v 0.040000 -0.420910 -0.086191
v 0.040000 -0.354386 -0.080720
v 0.040000 -0.428619 0.033673
v 0.040000 -0.361785 0.039164
v -0.040000 -0.428619 0.033673
v -0.040000 -0.361785 0.039164
v -0.030000 -0.355472 -0.063238
v -0.030000 0.531995 -0.007033
v 0.030000 -0.355472 -0.063238
v 0.030000 0.531995 -0.007033
v 0.030000 -0.360713 0.021680
v 0.030000 0.529687 0.078012
v -0.030000 -0.360713 0.021680
v -0.030000 0.529687 0.078012
v -0.000000 0.530834 0.035489
v -0.000000 0.586371 0.037968
v 0.075000 0.530834 0.035489
v 0.075000 0.586371 0.037968
v 0.050000 0.528157 0.135545
v 0.050000 0.583910 0.138030
v -0.050000 0.528157 0.135545
v -0.050000 0.528157 0.135545
v -0.050000 0.583910 0.138030
v -0.050000 0.583910 0.138030
v -0.075000 0.530834 0.035489
v -0.075000 0.586371 0.037968
v -0.050000 0.533587 -0.064562
v -0.050000 0.588908 -0.062088
v 0.050000 0.533587 -0.064562
v 0.050000 0.588908 -0.062088
v -0.030000 0.588395 -0.042077
v -0.030000 0.699110 -0.037491
v -0.000000 3.516407 -0.014021
v -0.000000 3.357792 0.072189
v -0.015000 3.408654 0.018633
v -0.025000 3.348465 -0.040017
v -0.015000 3.347640 -0.049991
v -0.000000 3.566078 -0.075370
v -0.015000 0.698633 -0.014976
v -0.000000 0.698845 -0.024983
v 0.015000 0.698633 -0.014976
v 0.015000 3.347640 -0.049991
v 0.025000 0.698423 -0.004970
v 0.025000 3.348465 -0.040017
v 0.015000 0.697123 0.057573
v 0.015000 3.408654 0.018633
v -0.000000 0.696104 0.107608
v -0.015000 0.697123 0.057573
v -0.025000 0.698423 -0.004970
v -0.025000 1.197351 0.009675
v -0.015000 1.197367 -0.000334
v -0.000000 1.197384 -0.010342
v 0.015000 1.197367 -0.000334
v 0.025000 1.197351 0.009675
v 0.015000 1.197266 0.072230
v -0.000000 1.197219 0.122275
v -0.015000 1.197266 0.072230
v -0.015000 0.919229 0.065299
v -0.000000 0.920239 -0.017268
v -0.025000 0.919989 0.002748
v -0.000000 0.918642 0.115340
v 0.015000 0.919229 0.065299
v 0.025000 0.919989 0.002748
v -0.015000 0.920114 -0.007260
v 0.015000 0.920114 -0.007260
v -0.015000 1.751773 0.076954
v -0.025000 1.750509 0.014413
v -0.000000 1.752806 0.126988
v 0.015000 1.751773 0.076954
v 0.025000 1.750509 0.014413
v -0.015000 1.750310 0.004407
v -0.000000 1.750111 -0.005600
v 0.015000 1.750310 0.004407
v 0.015000 1.473838 0.003548
v 0.025000 1.473930 0.013556
v -0.000000 1.473748 -0.006461
v -0.015000 1.473838 0.003548
v -0.025000 1.473930 0.013556
v -0.015000 1.474519 0.076107
v -0.000000 1.475012 0.126150
v 0.015000 1.474519 0.076107
v 0.015000 2.302302 -0.002930
v 0.025000 2.302717 0.007070
v -0.000000 2.307441 0.119567
v -0.000000 2.301888 -0.012930
v -0.015000 2.302302 -0.002930
v -0.025000 2.302717 0.007070
v -0.015000 2.305330 0.069568
v 0.015000 2.305330 0.069568
v 0.025000 2.026601 0.012251
v 0.015000 2.028539 0.074774
v -0.000000 2.030110 0.124793
v -0.015000 2.028539 0.074774
v -0.025000 2.026601 0.012251
v 0.015000 2.026293 0.002247
v -0.000000 2.025987 -0.007756
v -0.015000 2.026293 0.002247
v 0.025000 2.854197 -0.012335
v 0.015000 2.858157 0.050091
v -0.000000 2.861347 0.100032
v -0.015000 2.858157 0.050091
v -0.025000 2.854197 -0.012335
v 0.015000 2.853566 -0.022323
v -0.000000 2.852936 -0.032312
v -0.015000 2.853566 -0.022323
v -0.025000 2.578239 -0.001115
v -0.015000 2.577716 -0.011109
v -0.000000 2.577194 -0.021104
v 0.015000 2.577716 -0.011109
v 0.025000 2.578239 -0.001115
v 0.015000 2.581524 0.061352
v -0.000000 2.584174 0.111324
v -0.015000 2.581524 0.061352
v -0.025000 3.128892 -0.026516
v -0.015000 3.128154 -0.036497
v -0.000000 3.137252 0.085767
v -0.000000 3.127416 -0.046477
v 0.015000 3.128154 -0.036497
v 0.025000 3.128892 -0.026516
v -0.015000 3.133525 0.035864
v 0.015000 3.133525 0.035864
# 129 vertices

vn 0.000000 0.999787 0.020656
vn 0.000000 0.999787 0.020656
vn -1.000000 0.000000 0.000000
vn 0.000000 -0.041267 0.999148
vn 1.000000 0.000000 0.000000
vn 0.000000 0.081966 -0.996635
vn 1.000000 0.000000 0.000000
vn 0.000000 -0.081874 0.996643
vn 0.000000 0.998101 0.061599
vn 0.000000 -0.997938 -0.064183
vn 0.000000 0.063204 -0.998001
vn 0.000000 -0.063140 0.998005
vn 0.000000 0.041387 -0.999143
vn 0.970183 0.010820 -0.242130
vn 0.970185 0.010811 -0.242126
vn 0.000000 -0.999642 -0.026747
vn 0.970184 -0.010811 0.242130
vn 0.000000 0.999698 0.024590
vn 0.000000 0.999698 0.024590
vn 0.000000 -0.999642 -0.026747
vn 0.000000 -0.044529 0.999008
vn 0.000000 -0.044529 0.999008
vn 0.000000 -0.999642 -0.026747
vn -0.970184 -0.010793 0.242131
vn 0.000000 -0.999622 -0.027503
vn -0.970182 0.010811 -0.242135
vn 0.000000 0.999679 0.025347
vn 0.000000 -0.999622 -0.027503
vn 0.000000 0.044679 -0.999001
vn 0.000000 0.999679 0.025347
vn 0.970182 0.010829 -0.242135
vn 0.000000 0.999679 0.025347
vn -0.970185 0.010829 -0.242125
vn -0.970186 -0.010811 0.242120
vn 0.970186 -0.010792 0.242121
vn 0.000000 0.998101 0.061599
vn -0.707173 -0.033493 -0.706247
vn -0.989351 0.144046 0.020860
vn -0.985822 0.130407 0.105585
vn -0.835043 0.262736 0.483396
vn 0.835043 0.262736 0.483396
vn 0.985822 0.130407 0.105585
vn -0.987459 0.009868 0.157565
vn 0.707388 0.017653 -0.706605
vn 0.987460 -0.000489 0.157868
vn 0.707327 0.024612 -0.706458
vn -0.707379 -0.013262 -0.706710
vn 0.555004 0.020781 -0.831588
vn 0.987460 -0.002215 0.157852
vn 0.554939 0.028970 -0.831387
vn 0.707173 -0.033493 -0.706247
vn 0.989351 0.144046 0.020860
vn -0.555004 0.020775 -0.831588
vn -0.987459 0.006421 0.157742
vn -0.554939 0.028964 -0.831387
vn 0.957890 -0.000877 0.287134
vn -0.707388 0.017648 -0.706605
vn -0.707381 -0.005535 -0.706811
vn -0.707327 0.024607 -0.706458
vn 0.957891 -0.004015 0.287105
vn -0.987458 -0.005492 0.157785
vn -0.987456 -0.005489 0.157798
vn -0.987460 -0.003934 0.157817
vn -0.957877 -0.009972 0.287005
vn -0.957891 -0.007145 0.287043
vn 0.957877 -0.009983 0.287005
vn 0.957891 -0.007156 0.287042
vn 0.987456 -0.005496 0.157798
vn 0.987460 -0.003941 0.157817
vn -0.957882 -0.000872 0.287161
vn -0.957890 -0.000866 0.287133
vn -0.987457 0.008143 0.157678
vn -0.987459 0.008146 0.157663
vn -0.957883 -0.004011 0.287133
vn -0.957891 -0.004005 0.287105
vn -0.554995 -0.015601 -0.831707
vn -0.987460 -0.000482 0.157868
vn -0.987460 0.004694 0.157801
vn -0.987460 -0.002208 0.157852
vn -0.554997 -0.006508 -0.831827
vn 0.707385 0.009922 -0.706758
vn 0.707383 0.002196 -0.706827
vn 0.555002 0.011683 -0.831767
vn 0.555000 0.002590 -0.831847
vn -0.555002 0.011677 -0.831767
vn -0.555000 0.002584 -0.831847
vn -0.707385 0.009917 -0.706758
vn -0.707383 0.002191 -0.706827
vn 0.554995 -0.015595 -0.831707
vn -0.957886 0.017645 0.286605
vn 0.554997 -0.006502 -0.831827
vn -0.957888 0.011688 0.286903
vn 0.707345 -0.013260 -0.706745
vn 0.707379 -0.013257 -0.706710
vn -0.957888 0.014826 0.286760
vn 0.707381 -0.005530 -0.706811
vn -0.957881 0.008544 0.287039
vn -0.957889 0.008549 0.287012
vn 0.987458 0.001240 0.157880
vn 0.987460 0.001236 0.157865
vn 0.987457 0.002966 0.157858
vn 0.987460 0.002962 0.157843
vn 0.957890 0.002262 0.287128
vn 0.957889 0.005400 0.287087
vn -0.957890 0.002272 0.287127
vn -0.957889 0.005411 0.287087
vn -0.987460 0.001243 0.157864
vn -0.987460 0.002969 0.157842
vn 0.957888 0.011678 0.286904
vn 0.957887 0.017948 0.286583
vn 0.957881 0.008544 0.287039
vn 0.957889 0.008538 0.287013
vn 0.957888 0.014816 0.286760
vn 0.987460 0.006414 0.157742
vn 0.987459 0.009689 0.157579
vn 0.987460 0.004687 0.157802
vn 0.987459 0.008139 0.157663
vn -0.707377 -0.020987 -0.706525
vn -0.707375 -0.028716 -0.706255
vn -0.554992 -0.024693 -0.831489
vn -0.554953 -0.033788 -0.831195
vn -0.554990 -0.033790 -0.831170
vn 0.554992 -0.024687 -0.831489
vn 0.554990 -0.033784 -0.831171
vn 0.707377 -0.020982 -0.706525
vn 0.707375 -0.028711 -0.706255
vn -0.707372 -0.036441 -0.705901
vn -0.707366 -0.043381 -0.705515
vn -0.554988 -0.042881 -0.830753
vn -0.554980 -0.051047 -0.830296
vn 0.554988 -0.042875 -0.830753
vn 0.554998 -0.054671 -0.830054
vn 0.707372 -0.036436 -0.705902
vn 0.707366 -0.043376 -0.705516
vn -0.987335 0.009737 0.158352
vn 0.707316 0.017649 -0.706677
vn 0.987455 -0.000482 0.157899
vn 0.707384 0.024605 -0.706401
vn -0.707310 -0.013258 -0.706779
vn 0.554927 0.020776 -0.831639
vn 0.987455 -0.002208 0.157883
vn 0.555001 0.028963 -0.831345
vn -0.554927 0.020782 -0.831639
vn -0.987455 0.006415 0.157772
vn -0.555001 0.028969 -0.831345
vn 0.957874 -0.000867 0.287187
vn -0.707316 0.017654 -0.706677
vn -0.707312 -0.005531 -0.706880
vn -0.707384 0.024610 -0.706401
vn 0.957874 -0.004006 0.287160
vn -0.987460 -0.005495 0.157772
vn -0.987455 -0.003942 0.157849
vn -0.957890 -0.009982 0.286961
vn -0.957875 -0.007157 0.287098
vn 0.957890 -0.009971 0.286961
vn 0.957875 -0.007146 0.287098
vn 0.987460 -0.005488 0.157773
vn 0.987455 -0.003935 0.157849
vn -0.957874 -0.000877 0.287188
vn -0.987455 0.008141 0.157693
vn -0.957874 -0.004016 0.287160
vn -0.554920 -0.015596 -0.831757
vn -0.987455 -0.000489 0.157899
vn -0.987455 0.004688 0.157832
vn -0.987455 -0.002215 0.157883
vn -0.554922 -0.006503 -0.831877
vn 0.707315 0.009918 -0.706829
vn 0.707313 0.002191 -0.706897
vn 0.554926 0.011678 -0.831818
vn 0.554924 0.002585 -0.831897
vn -0.554926 0.011684 -0.831818
vn -0.554924 0.002591 -0.831897
vn -0.707315 0.009923 -0.706829
vn -0.707313 0.002196 -0.706897
vn 0.554920 -0.015602 -0.831757
vn -0.958254 0.017872 0.285360
vn 0.554922 -0.006509 -0.831877
vn -0.957873 0.011680 0.286956
vn 0.707310 -0.013263 -0.706779
vn -0.957872 0.014819 0.286812
vn 0.707312 -0.005536 -0.706880
vn -0.957873 0.008540 0.287066
vn 0.987455 0.001244 0.157895
vn 0.987455 0.002970 0.157873
vn 0.957874 0.002272 0.287181
vn 0.957873 0.005412 0.287140
vn -0.957874 0.002262 0.287181
vn -0.957873 0.005401 0.287141
vn -0.987455 0.001237 0.157895
vn -0.987455 0.002963 0.157873
vn 0.957873 0.011691 0.286956
vn 0.958343 0.017552 0.285081
vn 0.957873 0.008550 0.287065
vn 0.957872 0.014829 0.286812
vn 0.987455 0.006422 0.157772
vn 0.987360 0.009907 0.158182
vn 0.987455 0.004695 0.157832
vn 0.987455 0.008148 0.157692
vn -0.707309 -0.020984 -0.706593
vn -0.707307 -0.028714 -0.706324
vn -0.554919 -0.024688 -0.831538
vn -0.554917 -0.033786 -0.831220
vn 0.554919 -0.024694 -0.831538
vn 0.554917 -0.033792 -0.831219
vn 0.707309 -0.020989 -0.706593
vn 0.707307 -0.028719 -0.706323
vn -0.707305 -0.036440 -0.705968
vn -0.707312 -0.043379 -0.705569
vn -0.554915 -0.042877 -0.830801
vn -0.590235 -0.053053 -0.805486
vn 0.554915 -0.042883 -0.830801
vn 0.622354 -0.048033 -0.781261
vn 0.707305 -0.036445 -0.705968
vn 0.707312 -0.043384 -0.705569
# 214 normals

vt 0.000000 0.541667 0.000000
vt 0.500000 0.625000 0.000000
vt 0.500000 0.541667 0.000000
vt -0.000023 1.000000 0.000000
vt 1.000000 0.625000 0.000000
vt 1.000000 0.541667 0.000000
vt -0.000018 1.000000 0.000000
vt -0.000019 1.000000 0.000000
vt 0.000000 0.625000 0.000000
vt -0.000019 1.000000 0.000000
vt 0.500000 0.000000 0.000000
vt 0.500000 0.041667 0.000000
vt 1.000000 0.041667 0.000000
vt -0.000020 1.000000 0.000000
vt 1.000000 0.000000 0.000000
vt 0.000000 0.000000 0.000000
vt -0.000020 1.000000 0.000000
vt 0.000000 0.041667 0.000000
vt -0.000000 1.000000 0.000000
vt -0.000000 1.000000 0.000000
vt -0.000000 1.000000 0.000000
vt 0.000000 0.041500 0.000000
vt 1.000000 0.041500 0.000000
vt 1.000000 -0.000166 0.000000
vt -0.000000 1.000000 0.000000
vt 0.000000 0.458333 0.000000
vt 0.500000 0.458333 0.000000
vt -0.000000 1.000000 0.000000
vt 1.000000 0.458333 0.000000
vt -0.000000 1.000000 0.000000
vt 0.500000 0.041667 0.000000
vt -0.000000 1.000000 0.000000
vt -0.000000 1.000000 0.000000
vt -0.000011 1.000000 0.000000
vt 0.000000 0.458333 0.000000
vt 1.000000 0.500000 0.000000
vt 1.000000 0.458333 0.000000
vt -0.000011 1.000000 0.000000
vt 0.500000 0.500000 0.000000
vt 0.000000 0.500000 0.000000
vt 0.000000 0.541667 0.000000
vt -0.000000 1.000000 0.000000
vt 0.000000 0.500000 0.000000
vt -0.000011 1.000000 0.000000
vt 1.000000 0.500000 0.000000
vt 1.000000 0.541667 0.000000
vt -0.000000 1.000000 0.000000
vt -0.000026 1.000000 0.000000
vt -0.000000 1.000000 0.000000
vt -0.000011 1.000000 0.000000
vt -0.000000 1.000000 0.000000
vt -0.000000 1.000000 0.000000
vt -0.000000 1.000000 0.000000
vt -0.000011 1.000000 0.000000
vt -0.000000 1.000000 0.000000
vt -0.000000 1.000000 0.000000
vt -0.000000 1.000000 0.000000
vt -0.000009 1.000000 0.000000
vt -0.000000 1.000000 0.000000
vt -0.000008 1.000000 0.000000
vt -0.000007 1.000000 0.000000
vt -0.000008 1.000000 0.000000
vt -0.000000 1.000000 0.000000
vt -0.000008 1.000000 0.000000
vt -0.000000 1.000000 0.000000
vt -0.000008 1.000000 0.000000
vt -0.000008 1.000000 0.000000
vt -0.000013 1.000000 0.000000
vt -0.000012 1.000000 0.000000
vt -0.000018 1.000000 0.000000
vt -0.000012 1.000000 0.000000
vt -0.000018 1.000000 0.000000
vt -0.000018 1.000000 0.000000
vt -0.000007 1.000000 0.000000
vt -0.000018 1.000000 0.000000
vt -0.000020 1.000000 0.000000
vt 0.000000 -0.000166 0.000000
vt -0.000000 1.000000 0.000000
vt -0.000000 1.000000 0.000000
vt -0.000000 1.000000 0.000000
vt -0.000011 1.000000 0.000000
vt -0.000000 1.000000 0.000000
vt -0.000000 1.000000 0.000000
vt 0.500000 0.625000 0.000000
vt 1.000000 0.625000 0.000000
vt 1.000000 0.812500 0.000000
vt -0.000009 1.000000 0.000000
vt 0.500000 0.812500 0.000000
vt 1.000000 1.000000 0.000000
vt -0.000000 1.000000 0.000000
vt -0.000000 1.000000 0.000000
vt 0.500000 1.000000 0.000000
vt -0.000000 1.000000 0.000000
vt -0.000000 1.000000 0.000000
vt -0.000008 1.000000 0.000000
vt 0.500000 0.968770 0.000000
vt 0.000000 0.961754 0.000000
vt 0.000000 1.000000 0.000000
vt -0.000000 1.000000 0.000000
vt 0.500000 0.656238 0.000000
vt 0.000000 0.656238 0.000000
vt 0.000000 0.695360 0.000000
vt -0.000026 1.000000 0.000000
vt 1.000000 0.732165 0.000000
vt 0.500000 0.734398 0.000000
vt 0.500000 0.773465 0.000000
vt -0.000007 1.000000 0.000000
vt 0.000000 0.625000 0.000000
vt -0.000007 1.000000 0.000000
vt 1.000000 0.812497 0.000000
vt 0.500000 0.812497 0.000000
vt 0.500000 0.851572 0.000000
vt -0.000007 1.000000 0.000000
vt 1.000000 0.656238 0.000000
vt 0.500000 0.653835 0.000000
vt 0.500000 0.689948 0.000000
vt -0.000000 1.000000 0.000000
vt 1.000000 0.693924 0.000000
vt 0.500000 0.695360 0.000000
vt -0.000000 1.000000 0.000000
vt -0.000000 1.000000 0.000000
vt -0.000020 1.000000 0.000000
vt -0.000020 1.000000 0.000000
vt -0.000000 1.000000 0.000000
vt 0.500000 0.890606 0.000000
vt 0.000000 0.885186 0.000000
vt 0.000000 0.923532 0.000000
vt -0.000000 1.000000 0.000000
vt -0.000000 1.000000 0.000000
vt 0.000000 0.732165 0.000000
vt 0.000000 0.770435 0.000000
vt -0.000000 1.000000 0.000000
vt 0.500000 0.695360 0.000000
vt -0.000000 1.000000 0.000000
vt 1.000000 0.773465 0.000000
vt 0.500000 0.773465 0.000000
vt -0.000007 1.000000 0.000000
vt -0.000000 1.000000 0.000000
vt 0.000000 0.693924 0.000000
vt -0.000000 1.000000 0.000000
vt 0.000000 0.655600 0.000000
vt -0.000026 1.000000 0.000000
vt -0.000026 1.000000 0.000000
vt 1.000000 0.655600 0.000000
vt -0.000029 1.000000 0.000000
vt -0.000000 1.000000 0.000000
vt -0.000023 1.000000 0.000000
vt -0.000000 1.000000 0.000000
vt -0.000000 1.000000 0.000000
vt -0.000000 1.000000 0.000000
vt -0.000000 1.000000 0.000000
vt 0.500000 0.929751 0.000000
vt -0.000000 1.000000 0.000000
vt -0.000000 1.000000 0.000000
vt 0.500000 0.798074 0.000000
vt 0.000000 0.812497 0.000000
vt 0.000000 0.851572 0.000000
vt -0.000000 1.000000 0.000000
vt 0.500000 0.734398 0.000000
vt -0.000026 1.000000 0.000000
vt 0.000000 0.846948 0.000000
vt -0.000029 1.000000 0.000000
vt -0.000009 1.000000 0.000000
vt 0.500000 0.762044 0.000000
vt 0.000000 0.773465 0.000000
vt -0.000000 1.000000 0.000000
vt 0.000000 0.734398 0.000000
vt -0.000000 1.000000 0.000000
vt -0.000000 1.000000 0.000000
vt 1.000000 0.695360 0.000000
vt 0.500000 0.725982 0.000000
vt -0.000000 1.000000 0.000000
vt 1.000000 0.734398 0.000000
vt -0.000016 1.000000 0.000000
vt -0.000016 1.000000 0.000000
vt -0.000000 1.000000 0.000000
vt -0.000000 1.000000 0.000000
vt -0.000000 1.000000 0.000000
vt 0.500000 0.834143 0.000000
vt -0.000000 1.000000 0.000000
vt 1.000000 0.961754 0.000000
vt 0.500000 0.968770 0.000000
vt -0.000000 1.000000 0.000000
vt -0.000000 1.000000 0.000000
vt 1.000000 0.885186 0.000000
vt 0.500000 0.890606 0.000000
vt 0.500000 0.929751 0.000000
vt -0.000014 1.000000 0.000000
vt 0.500000 0.812497 0.000000
vt -0.000008 1.000000 0.000000
vt 1.000000 0.923532 0.000000
vt -0.000008 1.000000 0.000000
vt -0.000013 1.000000 0.000000
vt 1.000000 0.846948 0.000000
vt 0.500000 0.851572 0.000000
vt -0.000008 1.000000 0.000000
vt 1.000000 0.770435 0.000000
vt -0.000000 1.000000 0.000000
vt 1.000000 0.808670 0.000000
vt -0.000000 1.000000 0.000000
vt 0.000000 0.808670 0.000000
vt -0.000000 1.000000 0.000000
vt -0.000018 1.000000 0.000000
vt -0.000000 1.000000 0.000000
vt -0.000000 1.000000 0.000000
vt -0.000000 1.000000 0.000000
vt -0.000000 1.000000 0.000000
vt -0.000000 1.000000 0.000000
vt -0.000018 1.000000 0.000000
vt -0.000000 1.000000 0.000000
vt -0.000007 1.000000 0.000000
vt -0.000008 1.000000 0.000000
vt -0.000029 1.000000 0.000000
vt -0.000008 1.000000 0.000000
vt -0.000000 1.000000 0.000000
vt 1.000000 0.851572 0.000000
vt -0.000000 1.000000 0.000000
vt 1.000000 0.890606 0.000000
vt -0.000011 1.000000 0.000000
vt 0.000000 0.890606 0.000000
vt -0.000007 1.000000 0.000000
vt 0.500000 0.870175 0.000000
vt 0.000000 0.929751 0.000000
vt -0.000023 1.000000 0.000000
vt -0.000023 1.000000 0.000000
vt 0.500000 0.906309 0.000000
vt -0.000000 1.000000 0.000000
vt -0.000012 1.000000 0.000000
vt -0.000000 1.000000 0.000000
vt 1.000000 0.929751 0.000000
vt -0.000013 1.000000 0.000000
vt 1.000000 0.968770 0.000000
vt -0.000013 1.000000 0.000000
vt 0.000000 0.968770 0.000000
vt -0.000000 1.000000 0.000000
vt 0.500000 0.942326 0.000000
vt -0.000011 1.000000 0.000000
vt -0.000026 1.000000 0.000000
vt -0.000000 1.000000 0.000000
vt -0.000000 1.000000 0.000000
vt -0.000000 1.000000 0.000000
vt -0.000007 1.000000 0.000000
vt -0.000000 1.000000 0.000000
vt -0.000006 1.000000 0.000000
vt -0.000000 1.000000 0.000000
vt -0.000000 1.000000 0.000000
vt -0.000007 1.000000 0.000000
vt -0.000012 1.000000 0.000000
vt -0.000006 1.000000 0.000000
vt -0.000000 1.000000 0.000000
vt -0.000007 1.000000 0.000000
vt -0.000000 1.000000 0.000000
vt -0.000012 1.000000 0.000000
vt -0.000023 1.000000 0.000000
vt -0.000000 1.000000 0.000000
vt -0.000007 1.000000 0.000000
vt -0.000000 1.000000 0.000000
vt -0.000000 1.000000 0.000000
vt -0.000000 1.000000 0.000000
vt -0.000000 1.000000 0.000000
vt -0.000000 1.000000 0.000000
vt -0.000000 1.000000 0.000000
vt -0.000000 1.000000 0.000000
vt -0.000029 1.000000 0.000000
vt -0.000000 1.000000 0.000000
vt -0.000000 1.000000 0.000000
vt -0.000000 1.000000 0.000000
vt -0.000000 1.000000 0.000000
vt -0.000000 1.000000 0.000000
vt -0.000000 1.000000 0.000000
vt -0.000013 1.000000 0.000000
vt -0.000000 1.000000 0.000000
vt -0.000000 1.000000 0.000000
vt -0.000012 1.000000 0.000000
vt -0.000012 1.000000 0.000000
vt -0.000000 1.000000 0.000000
vt -0.000000 1.000000 0.000000
vt -0.000000 1.000000 0.000000
vt -0.000000 1.000000 0.000000
vt -0.000007 1.000000 0.000000
vt -0.000000 1.000000 0.000000
vt -0.000000 1.000000 0.000000
vt -0.000008 1.000000 0.000000
vt -0.000011 1.000000 0.000000
vt -0.000011 1.000000 0.000000
vt -0.000000 1.000000 0.000000
vt -0.000000 1.000000 0.000000
vt -0.000000 1.000000 0.000000
vt -0.000020 1.000000 0.000000
vt -0.000000 1.000000 0.000000
vt -0.000000 1.000000 0.000000
vt -0.000000 1.000000 0.000000
vt -0.000029 1.000000 0.000000
vt -0.000000 1.000000 0.000000
vt -0.000008 1.000000 0.000000
vt -0.000000 1.000000 0.000000
vt -0.000000 1.000000 0.000000
vt -0.000012 1.000000 0.000000
vt -0.000000 1.000000 0.000000
vt -0.000000 1.000000 0.000000
vt -0.000007 1.000000 0.000000
vt -0.000000 1.000000 0.000000
vt -0.000000 1.000000 0.000000
vt -0.000000 1.000000 0.000000
vt -0.000026 1.000000 0.000000
vt -0.000000 1.000000 0.000000
vt -0.000014 1.000000 0.000000
vt -0.000013 1.000000 0.000000
vt -0.000011 1.000000 0.000000
vt -0.000008 1.000000 0.000000
vt -0.000000 1.000000 0.000000
vt -0.000000 1.000000 0.000000
vt -0.000006 1.000000 0.000000
vt -0.000000 1.000000 0.000000
vt -0.000008 1.000000 0.000000
vt -0.000013 1.000000 0.000000
vt -0.000000 1.000000 0.000000
vt -0.000007 1.000000 0.000000
vt -0.000018 1.000000 0.000000
vt -0.000026 1.000000 0.000000
vt -0.000000 1.000000 0.000000
# 321 texture coordinates

o Default
usemtl default
f 40/1/1 3/2/1 5/3/2
f 2/1/3 40/5/3 39/6/3
f 4/1/4 1/2/4 2/3/4
f 6/6/5 3/9/5 4/1/5
f 7/11/6 8/12/6 10/13/6
f 9/13/7 10/15/7 12/16/7
f 11/16/8 12/18/8 14/12/8
f 13/16/3 14/18/3 8/13/3
f 8/15/9 14/16/9 12/18/9
f 13/22/10 7/23/10 9/24/10
f 15/18/11 16/26/11 18/27/11
f 17/18/7 18/26/7 20/29/7
f 19/31/12 20/27/12 22/29/12
f 21/13/3 22/29/3 16/26/3
f 39/3/13 5/5/13 6/6/13
f 37/35/14 26/36/14 25/37/15
f 23/39/16 25/40/16 27/41/16
f 25/35/17 26/43/17 28/36/17
f 26/45/18 24/39/19 28/46/19
f 23/39/20 27/41/20 29/46/20
f 27/35/21 28/43/22 31/36/21
f 28/46/19 24/39/19 32/41/19
f 23/39/23 29/46/23 33/45/23
f 30/35/24 31/43/24 34/36/24
f 32/41/19 24/39/19 34/40/19
f 23/39/25 33/45/25 35/29/25
f 33/35/26 34/43/26 36/36/26
f 34/40/27 24/39/27 36/26/27
f 23/39/28 35/29/28 37/26/28
f 35/35/29 36/43/29 38/36/29
f 36/26/30 24/39/30 38/29/30
f 23/39/28 37/26/28 25/40/28
f 37/35/14 38/43/31 26/36/14
f 38/29/32 24/39/32 26/45/32
f 39/3/13 40/2/13 5/5/13
f 6/6/7 5/5/7 3/9/7
f 4/1/4 3/9/4 1/2/4
f 2/1/3 1/9/3 40/5/3
f 40/1/1 1/9/1 3/2/1
f 35/35/29 38/36/29 37/37/29
f 33/35/33 36/36/33 35/37/33
f 30/35/34 34/36/34 33/37/34
f 27/35/21 31/36/21 30/37/22
f 25/35/35 28/36/35 27/37/35
f 21/13/3 16/26/3 15/18/3
f 19/31/12 22/29/12 21/13/12
f 17/18/5 20/29/5 19/13/5
f 15/18/11 18/27/11 17/12/11
f 13/22/10 9/24/10 11/77/10
f 7/11/6 10/13/6 9/15/6
f 9/13/5 12/16/5 11/18/5
f 11/16/8 14/12/8 13/11/8
f 13/16/3 8/13/3 7/15/3
f 8/15/36 12/18/36 10/13/36
f 46/84/37 45/85/37 44/86/37
f 41/88/38 44/86/38 43/89/38
f 46/84/39 44/86/39 41/88/39
f 41/88/40 43/89/40 42/92/40
f 41/88/41 42/92/41 54/89/41
f 46/84/42 41/88/42 52/86/42
f 122/96/43 128/97/43 43/98/43
f 71/100/44 73/101/44 61/102/44
f 89/104/45 83/105/45 78/106/45
f 49/108/46 73/101/46 71/100/46
f 105/110/47 102/111/47 95/112/47
f 73/114/48 67/115/48 60/116/48
f 63/118/49 62/119/49 83/105/49
f 48/84/50 67/115/50 73/114/50
f 46/84/51 52/86/51 50/85/51
f 41/88/52 54/89/52 52/86/52
f 67/115/53 72/101/53 59/102/53
f 114/125/54 121/126/54 109/127/54
f 47/108/55 72/101/55 67/115/55
f 88/105/56 89/130/56 77/131/56
f 72/114/57 68/100/57 58/133/57
f 79/135/58 75/136/58 102/111/58
f 57/84/59 68/100/59 72/114/59
f 64/119/60 63/139/60 89/130/60
f 56/108/61 66/141/62 68/100/61
f 68/100/63 66/141/63 65/139/63
f 55/84/64 69/100/64 66/144/64
f 66/144/65 69/100/65 64/119/65
f 53/108/66 70/141/66 69/100/66
f 69/100/67 70/141/67 63/139/67
f 51/84/68 71/100/68 70/144/68
f 70/144/69 71/100/69 62/119/69
f 87/104/70 88/105/71 76/106/70
f 110/152/72 109/127/73 128/97/72
f 65/118/74 64/119/75 88/105/74
f 104/155/76 105/156/76 94/157/76
f 86/159/77 87/130/77 74/131/77
f 95/112/78 96/161/78 121/126/78
f 58/133/79 65/139/79 87/130/79
f 80/164/80 79/165/80 105/156/80
f 62/119/81 61/102/81 82/167/81
f 83/105/82 82/167/82 81/165/82
f 61/170/83 60/116/83 84/171/83
f 82/173/84 84/171/84 80/164/84
f 60/116/85 59/102/85 85/167/85
f 84/171/86 85/167/86 79/165/86
f 59/170/87 58/133/87 86/159/87
f 85/173/88 86/159/88 75/136/88
f 103/110/89 104/155/89 93/179/89
f 128/181/90 124/182/90 42/92/90
f 81/135/91 80/164/91 104/155/91
f 121/185/92 120/186/92 108/187/92
f 98/189/93 103/156/94 90/157/93
f 109/191/95 108/187/95 124/182/95
f 78/106/96 81/165/96 103/156/96
f 96/194/97 92/195/98 120/186/97
f 77/197/99 78/106/100 98/189/99
f 99/199/101 98/189/102 91/195/101
f 76/106/103 77/131/103 99/201/103
f 100/189/104 99/201/104 97/161/104
f 74/197/105 76/106/105 100/189/105
f 101/199/106 100/189/106 92/195/106
f 75/136/107 74/131/107 101/201/107
f 102/111/108 101/201/108 96/161/108
f 120/186/109 119/126/109 107/127/109
f 124/182/110 129/97/110 54/98/110
f 92/195/111 97/161/112 119/126/111
f 108/187/113 107/127/113 129/97/113
f 119/185/114 118/186/114 106/187/114
f 129/181/115 127/182/115 52/92/115
f 97/194/116 91/195/116 118/186/116
f 107/191/117 106/187/117 127/182/117
f 94/216/118 95/112/118 114/125/118
f 115/218/119 114/125/119 110/152/119
f 93/179/120 94/157/120 115/220/120
f 116/222/121 115/220/122 113/223/121
f 90/216/123 93/179/123 116/222/123
f 117/218/124 116/222/124 112/226/124
f 91/195/125 90/157/125 117/220/125
f 118/186/126 117/220/126 111/223/126
f 113/230/127 110/152/127 122/96/127
f 123/232/128 122/96/128 44/92/128
f 112/226/129 113/223/129 123/234/129
f 125/236/130 123/234/130 45/98/130
f 111/230/131 112/226/131 125/236/131
f 126/232/132 125/236/132 46/92/132
f 106/187/133 111/223/133 126/234/133
f 127/182/134 126/234/134 50/98/134
f 122/96/135 43/98/135 44/92/135
f 71/100/136 61/102/136 62/119/136
f 89/104/137 78/106/137 77/197/137
f 49/108/138 71/100/138 51/84/138
f 105/110/139 95/112/139 94/216/139
f 73/114/140 60/116/140 61/170/140
f 63/118/141 83/105/141 89/104/141
f 48/84/142 73/114/142 49/85/142
f 67/115/143 59/102/143 60/116/143
f 114/125/144 109/127/144 110/152/144
f 47/108/145 67/115/145 48/84/145
f 88/105/146 77/131/146 76/106/146
f 72/114/147 58/133/147 59/170/147
f 79/135/148 102/111/148 105/110/148
f 57/84/149 72/114/149 47/85/149
f 64/119/150 89/130/150 88/105/150
f 56/108/61 68/100/61 57/84/151
f 68/100/152 65/139/152 58/133/152
f 55/84/153 66/144/153 56/85/153
f 66/144/154 64/119/154 65/118/154
f 53/108/155 69/100/155 55/84/155
f 69/100/156 63/139/156 64/119/156
f 51/84/157 70/144/157 53/85/157
f 70/144/158 62/119/158 63/118/158
f 87/104/70 76/106/70 74/197/159
f 110/152/72 128/97/72 122/96/160
f 65/118/74 88/105/74 87/104/161
f 104/155/162 94/157/162 93/179/162
f 86/159/163 74/131/163 75/136/163
f 95/112/164 121/126/164 114/125/164
f 58/133/165 87/130/165 86/159/165
f 80/164/166 105/156/166 104/155/166
f 62/119/167 82/167/167 83/105/167
f 83/105/168 81/165/168 78/106/168
f 61/170/169 84/171/169 82/173/169
f 82/173/170 80/164/170 81/135/170
f 60/116/171 85/167/171 84/171/171
f 84/171/172 79/165/172 80/164/172
f 59/170/173 86/159/173 85/173/173
f 85/173/174 75/136/174 79/135/174
f 103/110/175 93/179/175 90/216/175
f 128/181/176 42/92/176 43/89/176
f 81/135/177 104/155/177 103/110/177
f 121/185/178 108/187/178 109/191/178
f 98/189/93 90/157/93 91/195/179
f 109/191/180 124/182/180 128/181/180
f 78/106/181 103/156/181 98/189/181
f 96/194/97 120/186/97 121/185/182
f 77/197/99 98/189/99 99/199/183
f 99/199/101 91/195/101 97/194/184
f 76/106/185 99/201/185 100/189/185
f 100/189/186 97/161/186 92/195/186
f 74/197/187 100/189/187 101/199/187
f 101/199/188 92/195/188 96/194/188
f 75/136/189 101/201/189 102/111/189
f 102/111/190 96/161/190 95/112/190
f 120/186/191 107/127/191 108/187/191
f 124/182/192 54/98/192 42/92/192
f 92/195/111 119/126/111 120/186/193
f 108/187/194 129/97/194 124/182/194
f 119/185/195 106/187/195 107/191/195
f 129/181/196 52/92/196 54/89/196
f 97/194/197 118/186/197 119/185/197
f 107/191/198 127/182/198 129/181/198
f 94/216/199 114/125/199 115/218/199
f 115/218/200 110/152/200 113/230/200
f 93/179/201 115/220/201 116/222/201
f 116/222/121 113/223/121 112/226/202
f 90/216/203 116/222/203 117/218/203
f 117/218/204 112/226/204 111/230/204
f 91/195/205 117/220/205 118/186/205
f 118/186/206 111/223/206 106/187/206
f 113/230/207 122/96/207 123/232/207
f 123/232/208 44/92/208 45/89/208
f 112/226/209 123/234/209 125/236/209
f 125/236/210 45/98/210 46/92/210
f 111/230/211 125/236/211 126/232/211
f 126/232/212 46/92/212 50/89/212
f 106/187/213 126/234/213 127/182/213
f 127/182/214 50/98/214 52/92/214

