o tree
v 0.375 0.875 0.375
v 0.375 0.875 -0.375
v 0.375 0.5625 0.375
v 0.375 0.5625 -0.375
v -0.375 0.875 0.375
v -0.375 0.875 -0.375
v -0.375 0.5625 0.375
v -0.375 0.5625 -0.375
v 0.3125 0.875 -0.3125
v -0.3125 0.875 -0.3125
v 0.3125 0.875 0.3125
v -0.3125 0.875 0.3125
v 0.3125 1 -0.3125
v -0.3125 1 -0.3125
v 0.3125 1 0.3125
v -0.3125 1 0.3125
v 0.0625 0.5625 0.0625
v 0.0625 0.5625 -0.0625
v 0.0625 0.0625 0.0625
v 0.0625 0.0625 -0.0625
v -0.0625 0.5625 0.0625
v -0.0625 0.5625 -0.0625
v -0.0625 0.0625 0.0625
v -0.0625 0.0625 -0.0625
v -0.0625 0.5 0.0625
v -0.0625 0.5 -0.0625
v 0.0625 0.5 -0.0625
v 0.0625 0.5 0.0625
v -0.0625 0.125 -0.0625
v 0.0625 0.125 -0.0625
v 0.0625 0.125 0.0625
v -0.0625 0.125 0.0625
v 0.0625 0.5625 -0.1875
v -0.0625 0.5 -0.1875
v 0.0625 0.5 -0.1875
v -0.0625 0.5625 -0.1875
v -0.1875 0.5625 -0.0625
v -0.1875 0.5 0.0625
v -0.1875 0.5 -0.0625
v -0.1875 0.5625 0.0625
v -0.0625 0.5625 0.1875
v 0.0625 0.5 0.1875
v -0.0625 0.5 0.1875
v 0.0625 0.5625 0.1875
v 0.1875 0.5625 0.0625
v 0.1875 0.5 -0.0625
v 0.1875 0.5 0.0625
v 0.1875 0.5625 -0.0625
v 0.0625 0.0625 0.1875
v 0.0625 0.125 0.1875
v -0.0625 0.125 0.1875
v -0.0625 0.0625 0.1875
v 0.1875 0.0625 -0.0625
v 0.1875 0.125 -0.0625
v 0.1875 0.125 0.0625
v 0.1875 0.0625 0.0625
v -0.0625 0.0625 -0.1875
v -0.0625 0.125 -0.1875
v 0.0625 0.125 -0.1875
v 0.0625 0.0625 -0.1875
v -0.1875 0.0625 0.0625
v -0.1875 0.125 0.0625
v -0.1875 0.125 -0.0625
v -0.1875 0.0625 -0.0625
v 0.3125 0.0625 0.3125
v 0.3125 0.0625 -0.3125
v 0.3125 0 0.3125
v 0.3125 0 -0.3125
v -0.3125 0.0625 0.3125
v -0.3125 0.0625 -0.3125
v -0.3125 0 0.3125
v -0.3125 0 -0.3125
v 0.3125 0.0625 0.25
v -0.3125 0.0625 0.25
v -0.3125 0 0.25
v 0.3125 0 0.25
v -0.3125 0.0625 -0.25
v 0.3125 0.0625 -0.25
v 0.3125 0 -0.25
v -0.3125 0 -0.25
v -0.25 0.0625 -0.25
v -0.25 0.0625 0.25
v -0.25 0.0625 0.3125
v -0.25 0 0.3125
v -0.25 0 0.25
v -0.25 0 -0.25
v -0.25 0 -0.3125
v -0.25 0.0625 -0.3125
v 0.25 0.0625 -0.25
v 0.25 0.0625 0.25
v 0.25 0.0625 0.3125
v 0.25 0 0.3125
v 0.25 0 0.25
v 0.25 0 -0.25
v 0.25 0 -0.3125
v 0.25 0.0625 -0.3125
v -0.25 0.125 0.3125
v 0.25 0.125 0.25
v 0.25 0.125 0.3125
v -0.25 0.125 0.25
v -0.3125 0.125 0.3125
v -0.3125 0.125 0.25
v -0.25 0.125 -0.25
v -0.3125 0.125 -0.25
v -0.25 0.125 -0.3125
v -0.3125 0.125 -0.3125
v 0.25 0.125 -0.3125
v 0.25 0.125 -0.25
v 0.3125 0.125 -0.3125
v 0.3125 0.125 -0.25
v 0.3125 0.125 0.25
v 0.3125 0.125 0.3125
v 0.3125 0.1875 0.25
v 0.25 0.1875 0.25
v 0.25 0.1875 0.3125
v 0.3125 0.1875 0.3125
v 0.3125 0.1875 -0.3125
v 0.25 0.1875 -0.3125
v 0.25 0.1875 -0.25
v 0.3125 0.1875 -0.25
v -0.3125 0.1875 -0.25
v -0.25 0.1875 -0.3125
v -0.25 0.1875 -0.25
v -0.3125 0.1875 -0.3125
v -0.3125 0.1875 0.3125
v -0.25 0.1875 0.25
v -0.25 0.1875 0.3125
v -0.3125 0.1875 0.25
vt 0.9473684210526315 0.84375
vt 0.9473684210526315 1
vt 0.631578947368421 1
vt 0.631578947368421 0.84375
vt 0.9473684210526315 0.84375
vt 0.9473684210526315 1
vt 0.631578947368421 1
vt 0.631578947368421 0.84375
vt 0.6052631578947368 0.65625
vt 0.6052631578947368 0.96875
vt 0.34210526315789475 0.96875
vt 0.34210526315789475 0.65625
vt 0.3157894736842105 0.625
vt 0.3157894736842105 1
vt 0 1
vt 0 0.625
vt 0.9473684210526315 0.84375
vt 0.9473684210526315 1
vt 0.631578947368421 1
vt 0.631578947368421 0.84375
vt 0.9473684210526315 0.84375
vt 0.9473684210526315 1
vt 0.631578947368421 1
vt 0.631578947368421 0.84375
vt 0.6052631578947368 0.96875
vt 0.6052631578947368 0.65625
vt 0.631578947368421 0.625
vt 0.631578947368421 1
vt 0.34210526315789475 0.96875
vt 0.6052631578947368 0.96875
vt 0.631578947368421 1
vt 0.3157894736842105 1
vt 0.34210526315789475 0.65625
vt 0.34210526315789475 0.96875
vt 0.3157894736842105 1
vt 0.3157894736842105 0.625
vt 0.6052631578947368 0.65625
vt 0.34210526315789475 0.65625
vt 0.3157894736842105 0.625
vt 0.631578947368421 0.625
vt 0.9210526315789473 0.8125
vt 0.6578947368421053 0.8125
vt 0.6578947368421053 0.75
vt 0.9210526315789473 0.75
vt 0.9210526315789473 0.8125
vt 0.6578947368421053 0.8125
vt 0.6578947368421053 0.75
vt 0.9210526315789473 0.75
vt 0.9210526315789473 0.8125
vt 0.6578947368421053 0.8125
vt 0.6578947368421053 0.75
vt 0.9210526315789473 0.75
vt 0.9210526315789473 0.8125
vt 0.6578947368421053 0.8125
vt 0.6578947368421053 0.75
vt 0.9210526315789473 0.75
vt 0.2631578947368421 0.375
vt 0.2631578947368421 0.34375
vt 0.3157894736842105 0.34375
vt 0.3157894736842105 0.375
vt 0.5263157894736842 0.625
vt 0.5263157894736842 0.59375
vt 0.5789473684210527 0.59375
vt 0.5789473684210527 0.625
vt 0.42105263157894735 0.3125
vt 0.42105263157894735 0.375
vt 0.3684210526315789 0.375
vt 0.3684210526315789 0.3125
vt 0.631578947368421 0.28125
vt 0.631578947368421 0.34375
vt 0.5789473684210527 0.34375
vt 0.5789473684210527 0.28125
vt 0.5263157894736842 0.53125
vt 0.5263157894736842 0.5
vt 0.5789473684210527 0.5
vt 0.5789473684210527 0.53125
vt 0.5263157894736842 0.4375
vt 0.5263157894736842 0.40625
vt 0.5789473684210527 0.40625
vt 0.5789473684210527 0.4375
vt 0 0.3125
vt 0 0.125
vt 0.05263157894736842 0.125
vt 0.05263157894736842 0.3125
vt 0.05263157894736842 0.3125
vt 0.05263157894736842 0.125
vt 0.10526315789473684 0.125
vt 0.10526315789473684 0.3125
vt 0.10526315789473684 0.3125
vt 0.10526315789473684 0.125
vt 0.15789473684210525 0.125
vt 0.15789473684210525 0.3125
vt 0.15789473684210525 0.3125
vt 0.15789473684210525 0.125
vt 0.21052631578947367 0.125
vt 0.21052631578947367 0.3125
vt 0.21052631578947367 0.09375
vt 0.21052631578947367 0.125
vt 0.15789473684210525 0.125
vt 0.15789473684210525 0.09375
vt 0.631578947368421 0.59375
vt 0.631578947368421 0.625
vt 0.5789473684210527 0.625
vt 0.5789473684210527 0.59375
vt 0.631578947368421 0.5
vt 0.631578947368421 0.53125
vt 0.5789473684210527 0.53125
vt 0.5789473684210527 0.5
vt 0.631578947368421 0.40625
vt 0.631578947368421 0.4375
vt 0.5789473684210527 0.4375
vt 0.5789473684210527 0.40625
vt 0.6842105263157895 0.59375
vt 0.6842105263157895 0.625
vt 0.631578947368421 0.625
vt 0.631578947368421 0.59375
vt 0.631578947368421 0.625
vt 0.6842105263157895 0.625
vt 0.6842105263157895 0.6875
vt 0.631578947368421 0.6875
vt 0.631578947368421 0.53125
vt 0.631578947368421 0.5
vt 0.6842105263157895 0.5
vt 0.6842105263157895 0.53125
vt 0.5263157894736842 0.25
vt 0.47368421052631576 0.25
vt 0.47368421052631576 0.1875
vt 0.5263157894736842 0.1875
vt 0.6842105263157895 0.40625
vt 0.6842105263157895 0.4375
vt 0.631578947368421 0.4375
vt 0.631578947368421 0.40625
vt 0.5263157894736842 0.25
vt 0.5263157894736842 0.1875
vt 0.5789473684210527 0.1875
vt 0.5789473684210527 0.25
vt 0.6842105263157895 0.34375
vt 0.6842105263157895 0.3125
vt 0.7368421052631579 0.3125
vt 0.7368421052631579 0.34375
vt 0.3157894736842105 0.375
vt 0.3157894736842105 0.3125
vt 0.3684210526315789 0.3125
vt 0.3684210526315789 0.375
vt 0.631578947368421 0.15625
vt 0.631578947368421 0.1875
vt 0.5789473684210527 0.1875
vt 0.5789473684210527 0.15625
vt 0.631578947368421 0.25
vt 0.5789473684210527 0.25
vt 0.5789473684210527 0.1875
vt 0.631578947368421 0.1875
vt 0.6842105263157895 0.3125
vt 0.6842105263157895 0.28125
vt 0.7368421052631579 0.28125
vt 0.7368421052631579 0.3125
vt 0.631578947368421 0.1875
vt 0.6842105263157895 0.1875
vt 0.6842105263157895 0.25
vt 0.631578947368421 0.25
vt 0.6842105263157895 0.15625
vt 0.6842105263157895 0.1875
vt 0.631578947368421 0.1875
vt 0.631578947368421 0.15625
vt 0.3157894736842105 0.15625
vt 0.3157894736842105 0.21875
vt 0.2631578947368421 0.21875
vt 0.2631578947368421 0.15625
vt 0.6842105263157895 0.25
vt 0.6842105263157895 0.21875
vt 0.7368421052631579 0.21875
vt 0.7368421052631579 0.25
vt 0.47368421052631576 0.3125
vt 0.47368421052631576 0.375
vt 0.42105263157894735 0.375
vt 0.42105263157894735 0.3125
vt 0.6842105263157895 0.21875
vt 0.6842105263157895 0.1875
vt 0.7368421052631579 0.1875
vt 0.7368421052631579 0.21875
vt 0.3157894736842105 0.15625
vt 0.3684210526315789 0.15625
vt 0.3684210526315789 0.21875
vt 0.3157894736842105 0.21875
vt 0.7368421052631579 0.15625
vt 0.7368421052631579 0.1875
vt 0.6842105263157895 0.1875
vt 0.6842105263157895 0.15625
vt 0.42105263157894735 0.21875
vt 0.3684210526315789 0.21875
vt 0.3684210526315789 0.15625
vt 0.42105263157894735 0.15625
vt 0.2631578947368421 0.15625
vt 0.2631578947368421 0.125
vt 0.3157894736842105 0.125
vt 0.3157894736842105 0.15625
vt 0.47368421052631576 0.15625
vt 0.47368421052631576 0.21875
vt 0.42105263157894735 0.21875
vt 0.42105263157894735 0.15625
vt 0.3684210526315789 0.125
vt 0.3684210526315789 0.15625
vt 0.3157894736842105 0.15625
vt 0.3157894736842105 0.125
vt 0.6842105263157895 0.28125
vt 0.6842105263157895 0.34375
vt 0.631578947368421 0.34375
vt 0.631578947368421 0.28125
vt 0.3684210526315789 0.15625
vt 0.3684210526315789 0.125
vt 0.42105263157894735 0.125
vt 0.42105263157894735 0.15625
vt 0.7368421052631579 0.6875
vt 0.6842105263157895 0.6875
vt 0.6842105263157895 0.625
vt 0.7368421052631579 0.625
vt 0.47368421052631576 0.125
vt 0.47368421052631576 0.15625
vt 0.42105263157894735 0.15625
vt 0.42105263157894735 0.125
vt 0.47368421052631576 0.125
vt 0.5263157894736842 0.125
vt 0.5263157894736842 0.1875
vt 0.47368421052631576 0.1875
vt 0.5789473684210527 0.15625
vt 0.5789473684210527 0.125
vt 0.631578947368421 0.125
vt 0.631578947368421 0.15625
vt 0.5263157894736842 0.1875
vt 0.5263157894736842 0.125
vt 0.5789473684210527 0.125
vt 0.5789473684210527 0.1875
vt 0.6842105263157895 0.125
vt 0.6842105263157895 0.15625
vt 0.631578947368421 0.15625
vt 0.631578947368421 0.125
vt 0.5263157894736842 0.34375
vt 0.5263157894736842 0.28125
vt 0.5789473684210527 0.28125
vt 0.5789473684210527 0.34375
vt 0.5 0.53125
vt 0.7105263157894737 0.53125
vt 0.7105263157894737 0.5625
vt 0.5 0.5625
vt 0.7105263157894737 0.46875
vt 0.5 0.46875
vt 0.5 0.4375
vt 0.7105263157894737 0.4375
vt 0.21052631578947367 0.0625
vt 0.23684210526315788 0.0625
vt 0.23684210526315788 0.3125
vt 0.21052631578947367 0.3125
vt 0 0.34375
vt 0.02631578947368421 0.34375
vt 0.02631578947368421 0.59375
vt 0 0.59375
vt 0.47368421052631576 0.34375
vt 0.5 0.34375
vt 0.5 0.375
vt 0.47368421052631576 0.375
vt 0.5263157894736842 0.28125
vt 0.5 0.28125
vt 0.5 0.25
vt 0.5263157894736842 0.25
vt 0.47368421052631576 0.3125
vt 0.5 0.3125
vt 0.5 0.34375
vt 0.47368421052631576 0.34375
vt 0.7368421052631579 0.46875
vt 0.7105263157894737 0.46875
vt 0.7105263157894737 0.4375
vt 0.7368421052631579 0.4375
vt 0 0.59375
vt 0.02631578947368421 0.59375
vt 0.02631578947368421 0.625
vt 0 0.625
vt 0.47368421052631576 0.53125
vt 0.5 0.53125
vt 0.5 0.5625
vt 0.47368421052631576 0.5625
vt 0.631578947368421 0.78125
vt 0.6578947368421053 0.78125
vt 0.6578947368421053 0.8125
vt 0.631578947368421 0.8125
vt 0.7368421052631579 0.5625
vt 0.7105263157894737 0.5625
vt 0.7105263157894737 0.53125
vt 0.7368421052631579 0.53125
vt 0 0.3125
vt 0.02631578947368421 0.3125
vt 0.02631578947368421 0.34375
vt 0 0.34375
vt 0.47368421052631576 0.4375
vt 0.5 0.4375
vt 0.5 0.46875
vt 0.47368421052631576 0.46875
vt 0.2631578947368421 0.375
vt 0.47368421052631576 0.375
vt 0.47368421052631576 0.625
vt 0.2631578947368421 0.625
vt 0 0.0625
vt 0.21052631578947367 0.0625
vt 0.21052631578947367 0.09375
vt 0 0.09375
vt 0.5 0.34375
vt 0.7105263157894737 0.34375
vt 0.7105263157894737 0.375
vt 0.5 0.375
vt 0.02631578947368421 0.59375
vt 0.23684210526315788 0.59375
vt 0.23684210526315788 0.625
vt 0.02631578947368421 0.625
vt 0.02631578947368421 0.34375
vt 0.23684210526315788 0.34375
vt 0.23684210526315788 0.59375
vt 0.02631578947368421 0.59375
vt 0.02631578947368421 0.3125
vt 0.23684210526315788 0.3125
vt 0.23684210526315788 0.34375
vt 0.02631578947368421 0.34375
vt 0.5 0.28125
vt 0.2894736842105263 0.28125
vt 0.2894736842105263 0.25
vt 0.5 0.25
vt 0.5263157894736842 0.25
vt 0.7368421052631579 0.25
vt 0.7368421052631579 0.28125
vt 0.5263157894736842 0.28125
vt 0.2631578947368421 0.3125
vt 0.23684210526315788 0.3125
vt 0.23684210526315788 0.0625
vt 0.2631578947368421 0.0625
vt 0.6578947368421053 0.78125
vt 0.631578947368421 0.78125
vt 0.631578947368421 0.75
vt 0.6578947368421053 0.75
vt 0.7368421052631579 0.375
vt 0.7105263157894737 0.375
vt 0.7105263157894737 0.34375
vt 0.7368421052631579 0.34375
vt 0.2631578947368421 0.625
vt 0.23684210526315788 0.625
vt 0.23684210526315788 0.59375
vt 0.2631578947368421 0.59375
vt 0.2631578947368421 0.59375
vt 0.23684210526315788 0.59375
vt 0.23684210526315788 0.34375
vt 0.2631578947368421 0.34375
vt 0.2631578947368421 0.34375
vt 0.23684210526315788 0.34375
vt 0.23684210526315788 0.3125
vt 0.2631578947368421 0.3125
vt 0.2631578947368421 0.25
vt 0.2894736842105263 0.25
vt 0.2894736842105263 0.28125
vt 0.2631578947368421 0.28125
vt 0.7105263157894737 0.625
vt 0.6842105263157895 0.625
vt 0.6842105263157895 0.59375
vt 0.7105263157894737 0.59375
vt 0.7105263157894737 0.40625
vt 0.5 0.40625
vt 0.5 0.375
vt 0.7105263157894737 0.375
vt 0.8421052631578947 0.84375
vt 0.631578947368421 0.84375
vt 0.631578947368421 0.8125
vt 0.8421052631578947 0.8125
vt 0.5 0.40625
vt 0.47368421052631576 0.40625
vt 0.47368421052631576 0.375
vt 0.5 0.375
vt 0.7368421052631579 0.5
vt 0.7105263157894737 0.5
vt 0.7105263157894737 0.46875
vt 0.7368421052631579 0.46875
vt 0.8421052631578947 0.75
vt 0.631578947368421 0.75
vt 0.631578947368421 0.71875
vt 0.8421052631578947 0.71875
vt 0.7105263157894737 0.5
vt 0.5 0.5
vt 0.5 0.46875
vt 0.7105263157894737 0.46875
vt 0.5263157894736842 0.3125
vt 0.5 0.3125
vt 0.5 0.28125
vt 0.5263157894736842 0.28125
vt 0.5 0.5
vt 0.47368421052631576 0.5
vt 0.47368421052631576 0.46875
vt 0.5 0.46875
vt 0.8421052631578947 0.71875
vt 0.631578947368421 0.71875
vt 0.631578947368421 0.6875
vt 0.8421052631578947 0.6875
vt 0.5 0.3125
vt 0.2894736842105263 0.3125
vt 0.2894736842105263 0.28125
vt 0.5 0.28125
vt 0.2894736842105263 0.3125
vt 0.2631578947368421 0.3125
vt 0.2631578947368421 0.28125
vt 0.2894736842105263 0.28125
vt 0.7368421052631579 0.59375
vt 0.7105263157894737 0.59375
vt 0.7105263157894737 0.5625
vt 0.7368421052631579 0.5625
vt 0.47368421052631576 0.25
vt 0.2631578947368421 0.25
vt 0.2631578947368421 0.21875
vt 0.47368421052631576 0.21875
vt 0.7105263157894737 0.59375
vt 0.5 0.59375
vt 0.5 0.5625
vt 0.7105263157894737 0.5625
vt 0.7368421052631579 0.40625
vt 0.7105263157894737 0.40625
vt 0.7105263157894737 0.375
vt 0.7368421052631579 0.375
vt 0.5 0.59375
vt 0.47368421052631576 0.59375
vt 0.47368421052631576 0.5625
vt 0.5 0.5625
vt 0.7105263157894737 0.53125
vt 0.6842105263157895 0.53125
vt 0.6842105263157895 0.5
vt 0.7105263157894737 0.5
vt 0.7105263157894737 0.4375
vt 0.6842105263157895 0.4375
vt 0.6842105263157895 0.40625
vt 0.7105263157894737 0.40625
vt 0.7368421052631579 0.4375
vt 0.7105263157894737 0.4375
vt 0.7105263157894737 0.40625
vt 0.7368421052631579 0.40625
vt 0.5 0.625
vt 0.47368421052631576 0.625
vt 0.47368421052631576 0.59375
vt 0.5 0.59375
vt 0.2894736842105263 0.34375
vt 0.2631578947368421 0.34375
vt 0.2631578947368421 0.3125
vt 0.2894736842105263 0.3125
vt 0.7105263157894737 0.15625
vt 0.6842105263157895 0.15625
vt 0.6842105263157895 0.125
vt 0.7105263157894737 0.125
vt 0.7368421052631579 0.15625
vt 0.7105263157894737 0.15625
vt 0.7105263157894737 0.125
vt 0.7368421052631579 0.125
vt 0.7368421052631579 0.625
vt 0.7105263157894737 0.625
vt 0.7105263157894737 0.59375
vt 0.7368421052631579 0.59375
vt 0.02631578947368421 0.125
vt 0 0.125
vt 0 0.09375
vt 0.02631578947368421 0.09375
vt 0.05263157894736842 0.125
vt 0.02631578947368421 0.125
vt 0.02631578947368421 0.09375
vt 0.05263157894736842 0.09375
vt 0.5263157894736842 0.34375
vt 0.5 0.34375
vt 0.5 0.3125
vt 0.5263157894736842 0.3125
vt 0.5 0.53125
vt 0.47368421052631576 0.53125
vt 0.47368421052631576 0.5
vt 0.5 0.5
vt 0.5 0.4375
vt 0.47368421052631576 0.4375
vt 0.47368421052631576 0.40625
vt 0.5 0.40625
vt 0.07894736842105263 0.125
vt 0.05263157894736842 0.125
vt 0.05263157894736842 0.09375
vt 0.07894736842105263 0.09375
vt 0.10526315789473684 0.125
vt 0.07894736842105263 0.125
vt 0.07894736842105263 0.09375
vt 0.10526315789473684 0.09375
vt 0.7368421052631579 0.53125
vt 0.7105263157894737 0.53125
vt 0.7105263157894737 0.5
vt 0.7368421052631579 0.5
vn 1 0 0
vn -1 0 0
vn 0 1 0
vn 0 -1 0
vn 0 0 1
vn 0 0 -1
vn 0 1 0
vn 0 1 0
vn 0 1 0
vn 0 1 0
vn 1 0 0
vn 0 0 -1
vn -1 0 0
vn 0 0 1
vn 1 0 0
vn -1 0 0
vn 0 1 0
vn 0 -1 0
vn 0 0 1
vn 0 0 -1
vn -1 0 0
vn 0 0 -1
vn 1 0 0
vn 0 0 1
vn 0 0 -1
vn 1 0 0
vn 0 0 1
vn -1 0 0
vn 1 0 0
vn 0 -1 0
vn -1 0 0
vn 0 1 0
vn 0 0 -1
vn 0 -1 0
vn 0 0 1
vn 0 1 0
vn -1 0 0
vn 0 -1 0
vn 1 0 0
vn 0 1 0
vn 0 0 1
vn 0 -1 0
vn 0 0 -1
vn 0 1 0
vn 1 0 0
vn 0 1 0
vn -1 0 0
vn 0 -1 0
vn 0 0 -1
vn 0 1 0
vn 0 0 1
vn 0 -1 0
vn -1 0 0
vn 0 1 0
vn 1 0 0
vn 0 -1 0
vn 0 0 1
vn 0 1 0
vn 0 0 -1
vn 0 -1 0
vn 1 0 0
vn -1 0 0
vn 0 1 0
vn 0 -1 0
vn 0 0 1
vn 0 0 -1
vn 0 1 0
vn -1 0 0
vn 0 -1 0
vn 1 0 0
vn 0 1 0
vn 1 0 0
vn 0 -1 0
vn -1 0 0
vn 0 1 0
vn 0 1 0
vn 0 0 1
vn 0 -1 0
vn 0 -1 0
vn 0 -1 0
vn 0 0 -1
vn 0 1 0
vn 0 1 0
vn 0 1 0
vn 0 0 1
vn 0 -1 0
vn 0 -1 0
vn 0 -1 0
vn 0 0 -1
vn 0 1 0
vn 0 0 1
vn 0 0 -1
vn 0 0 1
vn -1 0 0
vn 1 0 0
vn -1 0 0
vn 0 0 -1
vn -1 0 0
vn 0 0 1
vn 0 0 -1
vn 0 0 -1
vn 1 0 0
vn -1 0 0
vn 1 0 0
vn 0 0 1
vn 1 0 0
vn 0 0 -1
vn -1 0 0
vn 0 0 1
vn 1 0 0
vn 0 0 -1
vn -1 0 0
vn 0 0 1
vn 1 0 0
vn 0 0 1
vn 1 0 0
vn 0 0 -1
vn -1 0 0
vn 0 0 1
vn 1 0 0
vn 0 0 -1
vn -1 0 0

f 4/1/1 2/2/1 1/3/1 3/4/1
f 7/5/2 5/6/2 6/7/2 8/8/2
f 15/9/3 13/10/3 14/11/3 16/12/3
f 4/13/4 3/14/4 7/15/4 8/16/4
f 3/17/5 1/18/5 5/19/5 7/20/5
f 8/21/6 6/22/6 2/23/6 4/24/6
f 9/25/7 11/26/7 1/27/7 2/28/7
f 10/29/8 9/30/8 2/31/8 6/32/8
f 12/33/9 10/34/9 6/35/9 5/36/9
f 11/37/10 12/38/10 5/39/10 1/40/10
f 13/41/11 15/42/11 11/43/11 9/44/11
f 14/45/12 13/46/12 9/47/12 10/48/12
f 16/49/13 14/50/13 10/51/13 12/52/13
f 15/53/14 16/54/14 12/55/14 11/56/14
f 45/57/15 47/58/15 46/59/15 48/60/15
f 37/61/16 39/62/16 38/63/16 40/64/16
f 17/65/17 18/66/17 22/67/17 21/68/17
f 20/69/18 19/70/18 23/71/18 24/72/18
f 41/73/19 43/74/19 42/75/19 44/76/19
f 33/77/20 35/78/20 34/79/20 36/80/20
f 26/81/21 29/82/21 32/83/21 25/84/21
f 27/85/22 30/86/22 29/87/22 26/88/22
f 28/89/23 31/90/23 30/91/23 27/92/23
f 25/93/24 32/94/24 31/95/24 28/96/24
f 57/97/25 58/98/25 59/99/25 60/100/25
f 53/101/26 54/102/26 55/103/26 56/104/26
f 49/105/27 50/106/27 51/107/27 52/108/27
f 61/109/28 62/110/28 63/111/28 64/112/28
f 35/113/29 33/114/29 18/115/29 27/116/29
f 34/117/30 35/118/30 27/119/30 26/120/30
f 36/121/31 34/122/31 26/123/31 22/124/31
f 33/125/32 36/126/32 22/127/32 18/128/32
f 39/129/33 37/130/33 22/131/33 26/132/33
f 38/133/34 39/134/34 26/135/34 25/136/34
f 40/137/35 38/138/35 25/139/35 21/140/35
f 37/141/36 40/142/36 21/143/36 22/144/36
f 43/145/37 41/146/37 21/147/37 25/148/37
f 42/149/38 43/150/38 25/151/38 28/152/38
f 44/153/39 42/154/39 28/155/39 17/156/39
f 41/157/40 44/158/40 17/159/40 21/160/40
f 47/161/41 45/162/41 17/163/41 28/164/41
f 46/165/42 47/166/42 28/167/42 27/168/42
f 48/169/43 46/170/43 27/171/43 18/172/43
f 45/173/44 48/174/44 18/175/44 17/176/44
f 50/177/45 49/178/45 19/179/45 31/180/45
f 51/181/46 50/182/46 31/183/46 32/184/46
f 52/185/47 51/186/47 32/187/47 23/188/47
f 49/189/48 52/190/48 23/191/48 19/192/48
f 54/193/49 53/194/49 20/195/49 30/196/49
f 55/197/50 54/198/50 30/199/50 31/200/50
f 56/201/51 55/202/51 31/203/51 19/204/51
f 53/205/52 56/206/52 19/207/52 20/208/52
f 58/209/53 57/210/53 24/211/53 29/212/53
f 59/213/54 58/214/54 29/215/54 30/216/54
f 60/217/55 59/218/55 30/219/55 20/220/55
f 57/221/56 60/222/56 20/223/56 24/224/56
f 62/225/57 61/226/57 23/227/57 32/228/57
f 63/229/58 62/230/58 32/231/58 29/232/58
f 64/233/59 63/234/59 29/235/59 24/236/59
f 61/237/60 64/238/60 24/239/60 23/240/60
f 76/241/61 79/242/61 78/243/61 73/244/61
f 74/245/62 77/246/62 80/247/62 75/248/62
f 102/249/63 100/250/63 103/251/63 104/252/63
f 80/253/64 86/254/64 85/255/64 75/256/64
f 71/257/65 84/258/65 83/259/65 69/260/65
f 70/261/66 88/262/66 87/263/66 72/264/66
f 125/265/67 127/266/67 126/267/67 128/268/67
f 69/269/68 74/270/68 75/271/68 71/272/68
f 75/273/69 85/274/69 84/275/69 71/276/69
f 67/277/70 76/278/70 73/279/70 65/280/70
f 121/281/71 123/282/71 122/283/71 124/284/71
f 66/285/72 78/286/72 79/287/72 68/288/72
f 72/289/73 87/290/73 86/291/73 80/292/73
f 72/293/74 80/294/74 77/295/74 70/296/74
f 82/297/75 90/298/75 89/299/75 81/300/75
f 97/301/76 99/302/76 98/303/76 100/304/76
f 84/305/77 92/306/77 91/307/77 83/308/77
f 85/309/78 93/310/78 92/311/78 84/312/78
f 86/313/79 94/314/79 93/315/79 85/316/79
f 87/317/80 95/318/80 94/319/80 86/320/80
f 88/321/81 96/322/81 95/323/81 87/324/81
f 103/325/82 108/326/82 107/327/82 105/328/82
f 110/329/83 108/330/83 98/331/83 111/332/83
f 113/333/84 114/334/84 115/335/84 116/336/84
f 65/337/85 91/338/85 92/339/85 67/340/85
f 67/341/86 92/342/86 93/343/86 76/344/86
f 76/345/87 93/346/87 94/347/87 79/348/87
f 79/349/88 94/350/88 95/351/88 68/352/88
f 68/353/89 95/354/89 96/355/89 66/356/89
f 117/357/90 118/358/90 119/359/90 120/360/90
f 99/361/91 97/362/91 83/363/91 91/364/91
f 100/365/92 98/366/92 90/367/92 82/368/92
f 97/369/93 101/370/93 69/371/93 83/372/93
f 101/373/94 102/374/94 74/375/94 69/376/94
f 103/377/95 100/378/95 82/379/95 81/380/95
f 102/381/96 104/382/96 77/383/96 74/384/96
f 106/385/97 105/386/97 88/387/97 70/388/97
f 104/389/98 106/390/98 70/391/98 77/392/98
f 108/393/99 103/394/99 81/395/99 89/396/99
f 105/397/100 107/398/100 96/399/100 88/400/100
f 107/401/101 109/402/101 66/403/101 96/404/101
f 109/405/102 110/406/102 78/407/102 66/408/102
f 98/409/103 108/410/103 89/411/103 90/412/103
f 110/413/104 111/414/104 73/415/104 78/416/104
f 112/417/105 99/418/105 91/419/105 65/420/105
f 111/421/106 112/422/106 65/423/106 73/424/106
f 114/425/107 113/426/107 111/427/107 98/428/107
f 115/429/108 114/430/108 98/431/108 99/432/108
f 116/433/109 115/434/109 99/435/109 112/436/109
f 113/437/110 116/438/110 112/439/110 111/440/110
f 118/441/111 117/442/111 109/443/111 107/444/111
f 119/445/112 118/446/112 107/447/112 108/448/112
f 120/449/113 119/450/113 108/451/113 110/452/113
f 117/453/114 120/454/114 110/455/114 109/456/114
f 123/457/115 121/458/115 104/459/115 103/460/115
f 122/461/116 123/462/116 103/463/116 105/464/116
f 124/465/117 122/466/117 105/467/117 106/468/117
f 121/469/118 124/470/118 106/471/118 104/472/118
f 127/473/119 125/474/119 101/475/119 97/476/119
f 126/477/120 127/478/120 97/479/120 100/480/120
f 128/481/121 126/482/121 100/483/121 102/484/121
f 125/485/122 128/486/122 102/487/122 101/488/122
o apple0
v -0.1875 0.640625 0.4375
v -0.1875 0.640625 0.3125
v -0.1875 0.515625 0.4375
v -0.1875 0.515625 0.3125
v -0.3125 0.640625 0.3125
v -0.3125 0.640625 0.4375
v -0.3125 0.515625 0.3125
v -0.3125 0.515625 0.4375
vt 0.7368421052631579 0.6875
vt 0.7894736842105263 0.6875
vt 0.7894736842105263 0.625
vt 0.7368421052631579 0.625
vt 0.7368421052631579 0.6875
vt 0.7894736842105263 0.6875
vt 0.7894736842105263 0.625
vt 0.7368421052631579 0.625
vt 0.7368421052631579 0.6875
vt 0.7894736842105263 0.6875
vt 0.7894736842105263 0.625
vt 0.7368421052631579 0.625
vt 0.7368421052631579 0.6875
vt 0.7894736842105263 0.6875
vt 0.7894736842105263 0.625
vt 0.7368421052631579 0.625
vt 0.7894736842105263 0.625
vt 0.7368421052631579 0.625
vt 0.7368421052631579 0.6875
vt 0.7894736842105263 0.6875
vt 0.7894736842105263 0.6875
vt 0.7368421052631579 0.6875
vt 0.7368421052631579 0.625
vt 0.7894736842105263 0.625
vn 0 0 -1
vn 1 0 0
vn 0 0 1
vn -1 0 0
vn 0 1 0
vn 0 -1 0

f 132/492/123 135/491/123 133/490/123 130/489/123
f 131/496/124 132/495/124 130/494/124 129/493/124
f 136/500/125 131/499/125 129/498/125 134/497/125
f 135/504/126 136/503/126 134/502/126 133/501/126
f 134/508/127 129/507/127 130/506/127 133/505/127
f 135/512/128 132/511/128 131/510/128 136/509/128
o apple1
v 0 0.703125 0.4375
v 0 0.703125 0.3125
v 0 0.578125 0.4375
v 0 0.578125 0.3125
v -0.125 0.703125 0.3125
v -0.125 0.703125 0.4375
v -0.125 0.578125 0.3125
v -0.125 0.578125 0.4375
vt 0.7368421052631579 0.6875
vt 0.7894736842105263 0.6875
vt 0.7894736842105263 0.625
vt 0.7368421052631579 0.625
vt 0.7368421052631579 0.6875
vt 0.7894736842105263 0.6875
vt 0.7894736842105263 0.625
vt 0.7368421052631579 0.625
vt 0.7368421052631579 0.6875
vt 0.7894736842105263 0.6875
vt 0.7894736842105263 0.625
vt 0.7368421052631579 0.625
vt 0.7368421052631579 0.6875
vt 0.7894736842105263 0.6875
vt 0.7894736842105263 0.625
vt 0.7368421052631579 0.625
vt 0.7894736842105263 0.625
vt 0.7368421052631579 0.625
vt 0.7368421052631579 0.6875
vt 0.7894736842105263 0.6875
vt 0.7894736842105263 0.6875
vt 0.7368421052631579 0.6875
vt 0.7368421052631579 0.625
vt 0.7894736842105263 0.625
vn 0 0 -1
vn 1 0 0
vn 0 0 1
vn -1 0 0
vn 0 1 0
vn 0 -1 0

f 140/516/129 143/515/129 141/514/129 138/513/129
f 139/520/130 140/519/130 138/518/130 137/517/130
f 144/524/131 139/523/131 137/522/131 142/521/131
f 143/528/132 144/527/132 142/526/132 141/525/132
f 142/532/133 137/531/133 138/530/133 141/529/133
f 143/536/134 140/535/134 139/534/134 144/533/134
o apple3
v 0.25 0.640625 0.4375
v 0.25 0.640625 0.3125
v 0.25 0.515625 0.4375
v 0.25 0.515625 0.3125
v 0.125 0.640625 0.3125
v 0.125 0.640625 0.4375
v 0.125 0.515625 0.3125
v 0.125 0.515625 0.4375
vt 0.7368421052631579 0.6875
vt 0.7894736842105263 0.6875
vt 0.7894736842105263 0.625
vt 0.7368421052631579 0.625
vt 0.7368421052631579 0.6875
vt 0.7894736842105263 0.6875
vt 0.7894736842105263 0.625
vt 0.7368421052631579 0.625
vt 0.7368421052631579 0.6875
vt 0.7894736842105263 0.6875
vt 0.7894736842105263 0.625
vt 0.7368421052631579 0.625
vt 0.7368421052631579 0.6875
vt 0.7894736842105263 0.6875
vt 0.7894736842105263 0.625
vt 0.7368421052631579 0.625
vt 0.7894736842105263 0.625
vt 0.7368421052631579 0.625
vt 0.7368421052631579 0.6875
vt 0.7894736842105263 0.6875
vt 0.7894736842105263 0.6875
vt 0.7368421052631579 0.6875
vt 0.7368421052631579 0.625
vt 0.7894736842105263 0.625
vn 0 0 -1
vn 1 0 0
vn 0 0 1
vn -1 0 0
vn 0 1 0
vn 0 -1 0

f 148/540/135 151/539/135 149/538/135 146/537/135
f 147/544/136 148/543/136 146/542/136 145/541/136
f 152/548/137 147/547/137 145/546/137 150/545/137
f 151/552/138 152/551/138 150/550/138 149/549/138
f 150/556/139 145/555/139 146/554/139 149/553/139
f 151/560/140 148/559/140 147/558/140 152/557/140
o apple4
v 0.4375 0.640625 0.3125
v 0.4375 0.640625 0.1875
v 0.4375 0.515625 0.3125
v 0.4375 0.515625 0.1875
v 0.3125 0.640625 0.1875
v 0.3125 0.640625 0.3125
v 0.3125 0.515625 0.1875
v 0.3125 0.515625 0.3125
vt 0.7368421052631579 0.6875
vt 0.7894736842105263 0.6875
vt 0.7894736842105263 0.625
vt 0.7368421052631579 0.625
vt 0.7368421052631579 0.6875
vt 0.7894736842105263 0.6875
vt 0.7894736842105263 0.625
vt 0.7368421052631579 0.625
vt 0.7368421052631579 0.6875
vt 0.7894736842105263 0.6875
vt 0.7894736842105263 0.625
vt 0.7368421052631579 0.625
vt 0.7368421052631579 0.6875
vt 0.7894736842105263 0.6875
vt 0.7894736842105263 0.625
vt 0.7368421052631579 0.625
vt 0.7894736842105263 0.625
vt 0.7368421052631579 0.625
vt 0.7368421052631579 0.6875
vt 0.7894736842105263 0.6875
vt 0.7894736842105263 0.6875
vt 0.7368421052631579 0.6875
vt 0.7368421052631579 0.625
vt 0.7894736842105263 0.625
vn 0 0 -1
vn 1 0 0
vn 0 0 1
vn -1 0 0
vn 0 1 0
vn 0 -1 0

f 156/564/141 159/563/141 157/562/141 154/561/141
f 155/568/142 156/567/142 154/566/142 153/565/142
f 160/572/143 155/571/143 153/570/143 158/569/143
f 159/576/144 160/575/144 158/574/144 157/573/144
f 158/580/145 153/579/145 154/578/145 157/577/145
f 159/584/146 156/583/146 155/582/146 160/581/146
o apple5
v 0.4375 0.703125 0.125
v 0.4375 0.703125 0
v 0.4375 0.578125 0.125
v 0.4375 0.578125 0
v 0.3125 0.703125 0
v 0.3125 0.703125 0.125
v 0.3125 0.578125 0
v 0.3125 0.578125 0.125
vt 0.7368421052631579 0.6875
vt 0.7894736842105263 0.6875
vt 0.7894736842105263 0.625
vt 0.7368421052631579 0.625
vt 0.7368421052631579 0.6875
vt 0.7894736842105263 0.6875
vt 0.7894736842105263 0.625
vt 0.7368421052631579 0.625
vt 0.7368421052631579 0.6875
vt 0.7894736842105263 0.6875
vt 0.7894736842105263 0.625
vt 0.7368421052631579 0.625
vt 0.7368421052631579 0.6875
vt 0.7894736842105263 0.6875
vt 0.7894736842105263 0.625
vt 0.7368421052631579 0.625
vt 0.7894736842105263 0.625
vt 0.7368421052631579 0.625
vt 0.7368421052631579 0.6875
vt 0.7894736842105263 0.6875
vt 0.7894736842105263 0.6875
vt 0.7368421052631579 0.6875
vt 0.7368421052631579 0.625
vt 0.7894736842105263 0.625
vn 0 0 -1
vn 1 0 0
vn 0 0 1
vn -1 0 0
vn 0 1 0
vn 0 -1 0

f 164/588/147 167/587/147 165/586/147 162/585/147
f 163/592/148 164/591/148 162/590/148 161/589/148
f 168/596/149 163/595/149 161/594/149 166/593/149
f 167/600/150 168/599/150 166/598/150 165/597/150
f 166/604/151 161/603/151 162/602/151 165/601/151
f 167/608/152 164/607/152 163/606/152 168/605/152
o apple7
v 0.4375 0.640625 -0.1875
v 0.4375 0.640625 -0.3125
v 0.4375 0.515625 -0.1875
v 0.4375 0.515625 -0.3125
v 0.3125 0.640625 -0.3125
v 0.3125 0.640625 -0.1875
v 0.3125 0.515625 -0.3125
v 0.3125 0.515625 -0.1875
vt 0.7368421052631579 0.6875
vt 0.7894736842105263 0.6875
vt 0.7894736842105263 0.625
vt 0.7368421052631579 0.625
vt 0.7368421052631579 0.6875
vt 0.7894736842105263 0.6875
vt 0.7894736842105263 0.625
vt 0.7368421052631579 0.625
vt 0.7368421052631579 0.6875
vt 0.7894736842105263 0.6875
vt 0.7894736842105263 0.625
vt 0.7368421052631579 0.625
vt 0.7368421052631579 0.6875
vt 0.7894736842105263 0.6875
vt 0.7894736842105263 0.625
vt 0.7368421052631579 0.625
vt 0.7894736842105263 0.625
vt 0.7368421052631579 0.625
vt 0.7368421052631579 0.6875
vt 0.7894736842105263 0.6875
vt 0.7894736842105263 0.6875
vt 0.7368421052631579 0.6875
vt 0.7368421052631579 0.625
vt 0.7894736842105263 0.625
vn 0 0 -1
vn 1 0 0
vn 0 0 1
vn -1 0 0
vn 0 1 0
vn 0 -1 0

f 172/612/153 175/611/153 173/610/153 170/609/153
f 171/616/154 172/615/154 170/614/154 169/613/154
f 176/620/155 171/619/155 169/618/155 174/617/155
f 175/624/156 176/623/156 174/622/156 173/621/156
f 174/628/157 169/627/157 170/626/157 173/625/157
f 175/632/158 172/631/158 171/630/158 176/629/158
o apple11
v -0.1875 0.640625 -0.3125
v -0.1875 0.640625 -0.4375
v -0.1875 0.515625 -0.3125
v -0.1875 0.515625 -0.4375
v -0.3125 0.640625 -0.4375
v -0.3125 0.640625 -0.3125
v -0.3125 0.515625 -0.4375
v -0.3125 0.515625 -0.3125
vt 0.7368421052631579 0.6875
vt 0.7894736842105263 0.6875
vt 0.7894736842105263 0.625
vt 0.7368421052631579 0.625
vt 0.7368421052631579 0.6875
vt 0.7894736842105263 0.6875
vt 0.7894736842105263 0.625
vt 0.7368421052631579 0.625
vt 0.7368421052631579 0.6875
vt 0.7894736842105263 0.6875
vt 0.7894736842105263 0.625
vt 0.7368421052631579 0.625
vt 0.7368421052631579 0.6875
vt 0.7894736842105263 0.6875
vt 0.7894736842105263 0.625
vt 0.7368421052631579 0.625
vt 0.7894736842105263 0.625
vt 0.7368421052631579 0.625
vt 0.7368421052631579 0.6875
vt 0.7894736842105263 0.6875
vt 0.7894736842105263 0.6875
vt 0.7368421052631579 0.6875
vt 0.7368421052631579 0.625
vt 0.7894736842105263 0.625
vn 0 0 -1
vn 1 0 0
vn 0 0 1
vn -1 0 0
vn 0 1 0
vn 0 -1 0

f 180/636/159 183/635/159 181/634/159 178/633/159
f 179/640/160 180/639/160 178/638/160 177/637/160
f 184/644/161 179/643/161 177/642/161 182/641/161
f 183/648/162 184/647/162 182/646/162 181/645/162
f 182/652/163 177/651/163 178/650/163 181/649/163
f 183/656/164 180/655/164 179/654/164 184/653/164
o apple8
v 0.3125 0.703125 -0.3125
v 0.3125 0.703125 -0.4375
v 0.3125 0.578125 -0.3125
v 0.3125 0.578125 -0.4375
v 0.1875 0.703125 -0.4375
v 0.1875 0.703125 -0.3125
v 0.1875 0.578125 -0.4375
v 0.1875 0.578125 -0.3125
vt 0.7368421052631579 0.6875
vt 0.7894736842105263 0.6875
vt 0.7894736842105263 0.625
vt 0.7368421052631579 0.625
vt 0.7368421052631579 0.6875
vt 0.7894736842105263 0.6875
vt 0.7894736842105263 0.625
vt 0.7368421052631579 0.625
vt 0.7368421052631579 0.6875
vt 0.7894736842105263 0.6875
vt 0.7894736842105263 0.625
vt 0.7368421052631579 0.625
vt 0.7368421052631579 0.6875
vt 0.7894736842105263 0.6875
vt 0.7894736842105263 0.625
vt 0.7368421052631579 0.625
vt 0.7894736842105263 0.625
vt 0.7368421052631579 0.625
vt 0.7368421052631579 0.6875
vt 0.7894736842105263 0.6875
vt 0.7894736842105263 0.6875
vt 0.7368421052631579 0.6875
vt 0.7368421052631579 0.625
vt 0.7894736842105263 0.625
vn 0 0 -1
vn 1 0 0
vn 0 0 1
vn -1 0 0
vn 0 1 0
vn 0 -1 0

f 188/660/165 191/659/165 189/658/165 186/657/165
f 187/664/166 188/663/166 186/662/166 185/661/166
f 192/668/167 187/667/167 185/666/167 190/665/167
f 191/672/168 192/671/168 190/670/168 189/669/168
f 190/676/169 185/675/169 186/674/169 189/673/169
f 191/680/170 188/679/170 187/678/170 192/677/170
o apple9
v 0.125 0.640625 -0.3125
v 0.125 0.640625 -0.4375
v 0.125 0.515625 -0.3125
v 0.125 0.515625 -0.4375
v 0 0.640625 -0.4375
v 0 0.640625 -0.3125
v 0 0.515625 -0.4375
v 0 0.515625 -0.3125
vt 0.7368421052631579 0.6875
vt 0.7894736842105263 0.6875
vt 0.7894736842105263 0.625
vt 0.7368421052631579 0.625
vt 0.7368421052631579 0.6875
vt 0.7894736842105263 0.6875
vt 0.7894736842105263 0.625
vt 0.7368421052631579 0.625
vt 0.7368421052631579 0.6875
vt 0.7894736842105263 0.6875
vt 0.7894736842105263 0.625
vt 0.7368421052631579 0.625
vt 0.7368421052631579 0.6875
vt 0.7894736842105263 0.6875
vt 0.7894736842105263 0.625
vt 0.7368421052631579 0.625
vt 0.7894736842105263 0.625
vt 0.7368421052631579 0.625
vt 0.7368421052631579 0.6875
vt 0.7894736842105263 0.6875
vt 0.7894736842105263 0.6875
vt 0.7368421052631579 0.6875
vt 0.7368421052631579 0.625
vt 0.7894736842105263 0.625
vn 0 0 -1
vn 1 0 0
vn 0 0 1
vn -1 0 0
vn 0 1 0
vn 0 -1 0

f 196/684/171 199/683/171 197/682/171 194/681/171
f 195/688/172 196/687/172 194/686/172 193/685/172
f 200/692/173 195/691/173 193/690/173 198/689/173
f 199/696/174 200/695/174 198/694/174 197/693/174
f 198/700/175 193/699/175 194/698/175 197/697/175
f 199/704/176 196/703/176 195/702/176 200/701/176
o apple15
v -0.3125 0.703125 0.3125
v -0.3125 0.703125 0.1875
v -0.3125 0.578125 0.3125
v -0.3125 0.578125 0.1875
v -0.4375 0.703125 0.1875
v -0.4375 0.703125 0.3125
v -0.4375 0.578125 0.1875
v -0.4375 0.578125 0.3125
vt 0.7368421052631579 0.6875
vt 0.7894736842105263 0.6875
vt 0.7894736842105263 0.625
vt 0.7368421052631579 0.625
vt 0.7368421052631579 0.6875
vt 0.7894736842105263 0.6875
vt 0.7894736842105263 0.625
vt 0.7368421052631579 0.625
vt 0.7368421052631579 0.6875
vt 0.7894736842105263 0.6875
vt 0.7894736842105263 0.625
vt 0.7368421052631579 0.625
vt 0.7368421052631579 0.6875
vt 0.7894736842105263 0.6875
vt 0.7894736842105263 0.625
vt 0.7368421052631579 0.625
vt 0.7894736842105263 0.625
vt 0.7368421052631579 0.625
vt 0.7368421052631579 0.6875
vt 0.7894736842105263 0.6875
vt 0.7894736842105263 0.6875
vt 0.7368421052631579 0.6875
vt 0.7368421052631579 0.625
vt 0.7894736842105263 0.625
vn 0 0 -1
vn 1 0 0
vn 0 0 1
vn -1 0 0
vn 0 1 0
vn 0 -1 0

f 204/708/177 207/707/177 205/706/177 202/705/177
f 203/712/178 204/711/178 202/710/178 201/709/178
f 208/716/179 203/715/179 201/714/179 206/713/179
f 207/720/180 208/719/180 206/718/180 205/717/180
f 206/724/181 201/723/181 202/722/181 205/721/181
f 207/728/182 204/727/182 203/726/182 208/725/182
o apple12
v -0.3125 0.703125 -0.1875
v -0.3125 0.703125 -0.3125
v -0.3125 0.578125 -0.1875
v -0.3125 0.578125 -0.3125
v -0.4375 0.703125 -0.3125
v -0.4375 0.703125 -0.1875
v -0.4375 0.578125 -0.3125
v -0.4375 0.578125 -0.1875
vt 0.7368421052631579 0.6875
vt 0.7894736842105263 0.6875
vt 0.7894736842105263 0.625
vt 0.7368421052631579 0.625
vt 0.7368421052631579 0.6875
vt 0.7894736842105263 0.6875
vt 0.7894736842105263 0.625
vt 0.7368421052631579 0.625
vt 0.7368421052631579 0.6875
vt 0.7894736842105263 0.6875
vt 0.7894736842105263 0.625
vt 0.7368421052631579 0.625
vt 0.7368421052631579 0.6875
vt 0.7894736842105263 0.6875
vt 0.7894736842105263 0.625
vt 0.7368421052631579 0.625
vt 0.7894736842105263 0.625
vt 0.7368421052631579 0.625
vt 0.7368421052631579 0.6875
vt 0.7894736842105263 0.6875
vt 0.7894736842105263 0.6875
vt 0.7368421052631579 0.6875
vt 0.7368421052631579 0.625
vt 0.7894736842105263 0.625
vn 0 0 -1
vn 1 0 0
vn 0 0 1
vn -1 0 0
vn 0 1 0
vn 0 -1 0

f 212/732/183 215/731/183 213/730/183 210/729/183
f 211/736/184 212/735/184 210/734/184 209/733/184
f 216/740/185 211/739/185 209/738/185 214/737/185
f 215/744/186 216/743/186 214/742/186 213/741/186
f 214/748/187 209/747/187 210/746/187 213/745/187
f 215/752/188 212/751/188 211/750/188 216/749/188
o apple14
v -0.3125 0.640625 0.125
v -0.3125 0.640625 0
v -0.3125 0.515625 0.125
v -0.3125 0.515625 0
v -0.4375 0.640625 0
v -0.4375 0.640625 0.125
v -0.4375 0.515625 0
v -0.4375 0.515625 0.125
vt 0.7368421052631579 0.6875
vt 0.7894736842105263 0.6875
vt 0.7894736842105263 0.625
vt 0.7368421052631579 0.625
vt 0.7368421052631579 0.6875
vt 0.7894736842105263 0.6875
vt 0.7894736842105263 0.625
vt 0.7368421052631579 0.625
vt 0.7368421052631579 0.6875
vt 0.7894736842105263 0.6875
vt 0.7894736842105263 0.625
vt 0.7368421052631579 0.625
vt 0.7368421052631579 0.6875
vt 0.7894736842105263 0.6875
vt 0.7894736842105263 0.625
vt 0.7368421052631579 0.625
vt 0.7894736842105263 0.625
vt 0.7368421052631579 0.625
vt 0.7368421052631579 0.6875
vt 0.7894736842105263 0.6875
vt 0.7894736842105263 0.6875
vt 0.7368421052631579 0.6875
vt 0.7368421052631579 0.625
vt 0.7894736842105263 0.625
vn 0 0 -1
vn 1 0 0
vn 0 0 1
vn -1 0 0
vn 0 1 0
vn 0 -1 0

f 220/756/189 223/755/189 221/754/189 218/753/189
f 219/760/190 220/759/190 218/758/190 217/757/190
f 224/764/191 219/763/191 217/762/191 222/761/191
f 223/768/192 224/767/192 222/766/192 221/765/192
f 222/772/193 217/771/193 218/770/193 221/769/193
f 223/776/194 220/775/194 219/774/194 224/773/194
o apple2
v 0.1875 0.796875 0.4375
v 0.1875 0.796875 0.3125
v 0.1875 0.671875 0.4375
v 0.1875 0.671875 0.3125
v 0.0625 0.796875 0.3125
v 0.0625 0.796875 0.4375
v 0.0625 0.671875 0.3125
v 0.0625 0.671875 0.4375
vt 0.7368421052631579 0.6875
vt 0.7894736842105263 0.6875
vt 0.7894736842105263 0.625
vt 0.7368421052631579 0.625
vt 0.7368421052631579 0.6875
vt 0.7894736842105263 0.6875
vt 0.7894736842105263 0.625
vt 0.7368421052631579 0.625
vt 0.7368421052631579 0.6875
vt 0.7894736842105263 0.6875
vt 0.7894736842105263 0.625
vt 0.7368421052631579 0.625
vt 0.7368421052631579 0.6875
vt 0.7894736842105263 0.6875
vt 0.7894736842105263 0.625
vt 0.7368421052631579 0.625
vt 0.7894736842105263 0.625
vt 0.7368421052631579 0.625
vt 0.7368421052631579 0.6875
vt 0.7894736842105263 0.6875
vt 0.7894736842105263 0.6875
vt 0.7368421052631579 0.6875
vt 0.7368421052631579 0.625
vt 0.7894736842105263 0.625
vn 0 0 -1
vn 1 0 0
vn 0 0 1
vn -1 0 0
vn 0 1 0
vn 0 -1 0

f 228/780/195 231/779/195 229/778/195 226/777/195
f 227/784/196 228/783/196 226/782/196 225/781/196
f 232/788/197 227/787/197 225/786/197 230/785/197
f 231/792/198 232/791/198 230/790/198 229/789/198
f 230/796/199 225/795/199 226/794/199 229/793/199
f 231/800/200 228/799/200 227/798/200 232/797/200
o apple6
v 0.4375 0.796875 -0.0625
v 0.4375 0.796875 -0.1875
v 0.4375 0.671875 -0.0625
v 0.4375 0.671875 -0.1875
v 0.3125 0.796875 -0.1875
v 0.3125 0.796875 -0.0625
v 0.3125 0.671875 -0.1875
v 0.3125 0.671875 -0.0625
vt 0.7368421052631579 0.6875
vt 0.7894736842105263 0.6875
vt 0.7894736842105263 0.625
vt 0.7368421052631579 0.625
vt 0.7368421052631579 0.6875
vt 0.7894736842105263 0.6875
vt 0.7894736842105263 0.625
vt 0.7368421052631579 0.625
vt 0.7368421052631579 0.6875
vt 0.7894736842105263 0.6875
vt 0.7894736842105263 0.625
vt 0.7368421052631579 0.625
vt 0.7368421052631579 0.6875
vt 0.7894736842105263 0.6875
vt 0.7894736842105263 0.625
vt 0.7368421052631579 0.625
vt 0.7894736842105263 0.625
vt 0.7368421052631579 0.625
vt 0.7368421052631579 0.6875
vt 0.7894736842105263 0.6875
vt 0.7894736842105263 0.6875
vt 0.7368421052631579 0.6875
vt 0.7368421052631579 0.625
vt 0.7894736842105263 0.625
vn 0 0 -1
vn 1 0 0
vn 0 0 1
vn -1 0 0
vn 0 1 0
vn 0 -1 0

f 236/804/201 239/803/201 237/802/201 234/801/201
f 235/808/202 236/807/202 234/806/202 233/805/202
f 240/812/203 235/811/203 233/810/203 238/809/203
f 239/816/204 240/815/204 238/814/204 237/813/204
f 238/820/205 233/819/205 234/818/205 237/817/205
f 239/824/206 236/823/206 235/822/206 240/821/206
o apple10
v -0.015625 0.796875 -0.3125
v -0.015625 0.796875 -0.4375
v -0.015625 0.671875 -0.3125
v -0.015625 0.671875 -0.4375
v -0.140625 0.796875 -0.4375
v -0.140625 0.796875 -0.3125
v -0.140625 0.671875 -0.4375
v -0.140625 0.671875 -0.3125
vt 0.7368421052631579 0.6875
vt 0.7894736842105263 0.6875
vt 0.7894736842105263 0.625
vt 0.7368421052631579 0.625
vt 0.7368421052631579 0.6875
vt 0.7894736842105263 0.6875
vt 0.7894736842105263 0.625
vt 0.7368421052631579 0.625
vt 0.7368421052631579 0.6875
vt 0.7894736842105263 0.6875
vt 0.7894736842105263 0.625
vt 0.7368421052631579 0.625
vt 0.7368421052631579 0.6875
vt 0.7894736842105263 0.6875
vt 0.7894736842105263 0.625
vt 0.7368421052631579 0.625
vt 0.7894736842105263 0.625
vt 0.7368421052631579 0.625
vt 0.7368421052631579 0.6875
vt 0.7894736842105263 0.6875
vt 0.7894736842105263 0.6875
vt 0.7368421052631579 0.6875
vt 0.7368421052631579 0.625
vt 0.7894736842105263 0.625
vn 0 0 -1
vn 1 0 0
vn 0 0 1
vn -1 0 0
vn 0 1 0
vn 0 -1 0

f 244/828/207 247/827/207 245/826/207 242/825/207
f 243/832/208 244/831/208 242/830/208 241/829/208
f 248/836/209 243/835/209 241/834/209 246/833/209
f 247/840/210 248/839/210 246/838/210 245/837/210
f 246/844/211 241/843/211 242/842/211 245/841/211
f 247/848/212 244/847/212 243/846/212 248/845/212
o apple13
v -0.3125 0.8125 0
v -0.3125 0.8125 -0.125
v -0.3125 0.6875 0
v -0.3125 0.6875 -0.125
v -0.4375 0.8125 -0.125
v -0.4375 0.8125 0
v -0.4375 0.6875 -0.125
v -0.4375 0.6875 0
vt 0.7368421052631579 0.6875
vt 0.7894736842105263 0.6875
vt 0.7894736842105263 0.625
vt 0.7368421052631579 0.625
vt 0.7368421052631579 0.6875
vt 0.7894736842105263 0.6875
vt 0.7894736842105263 0.625
vt 0.7368421052631579 0.625
vt 0.7368421052631579 0.6875
vt 0.7894736842105263 0.6875
vt 0.7894736842105263 0.625
vt 0.7368421052631579 0.625
vt 0.7368421052631579 0.6875
vt 0.7894736842105263 0.6875
vt 0.7894736842105263 0.625
vt 0.7368421052631579 0.625
vt 0.7894736842105263 0.625
vt 0.7368421052631579 0.625
vt 0.7368421052631579 0.6875
vt 0.7894736842105263 0.6875
vt 0.7894736842105263 0.6875
vt 0.7368421052631579 0.6875
vt 0.7368421052631579 0.625
vt 0.7894736842105263 0.625
vn 0 0 -1
vn 1 0 0
vn 0 0 1
vn -1 0 0
vn 0 1 0
vn 0 -1 0

f 252/852/213 255/851/213 253/850/213 250/849/213
f 251/856/214 252/855/214 250/854/214 249/853/214
f 256/860/215 251/859/215 249/858/215 254/857/215
f 255/864/216 256/863/216 254/862/216 253/861/216
f 254/868/217 249/867/217 250/866/217 253/865/217
f 255/872/218 252/871/218 251/870/218 256/869/218